<svg version="1.1" xmlns="http://www.w3.org/2000/svg" xmlns:xlink="http://www.w3.org/1999/xlink" width="74.64451" height="140.79274" viewBox="0,0,74.64451,140.79274"><g transform="translate(-204.72444,-140.35938)"><g data-paper-data="{&quot;isPaintingLayer&quot;:true}" fill-rule="nonzero" stroke="#000000" stroke-width="4" stroke-linejoin="miter" stroke-miterlimit="10" stroke-dasharray="" stroke-dashoffset="0" style="mix-blend-mode: normal"><g><path d="M213.99483,227.30405l4.00382,-16.01951l18.6113,0.10672" fill="none" stroke-linecap="round"/><path d="M213.54561,241.7024c-4.18471,-0.44101 -7.21961,-4.19087 -6.77859,-8.37559c0.44101,-4.18471 4.19088,-7.21959 8.3756,-6.77859c4.18471,0.44101 7.21959,4.19088 6.77858,8.37558c-0.44101,4.18471 -4.19087,7.21961 -8.37558,6.77858z" fill="#ffffff" stroke-linecap="butt"/></g><path d="M237.01293,232.23638c0,0 -3.33017,13.40949 -6.99524,19.79151c-4.11773,7.17024 -16.51167,16.04782 -16.51167,16.04782" fill="none" stroke-linecap="round"/><path d="M236.65677,232.96657c0,0 16.95608,7.36769 15.09528,15.04319c-1.46223,6.03145 -12.32657,18.89762 -12.32657,18.89762" fill="none" stroke-linecap="round"/><path d="M227.07963,278.18057c-1.57959,2.28422 -4.87141,0.15139 -8.54001,-2.38554c-3.66863,-2.53693 -6.57548,-4.69061 -4.99589,-6.97484c1.57959,-2.28422 7.0475,-3.83405 10.71612,-1.29712c3.66863,2.53693 4.39939,8.37324 2.81979,10.65749z" fill="#ffffff" stroke-linecap="butt"/><path d="M254.23519,273.6865c-1.04153,2.5745 -4.72025,1.21359 -8.85504,-0.45918c-4.13481,-1.67277 -7.44246,-3.13825 -6.40094,-5.71274c1.04153,-2.5745 6.03787,-5.28312 10.17266,-3.61036c4.13481,1.67277 6.12483,7.20778 5.08331,9.78228z" fill="#ffffff" stroke-linecap="butt"/><path d="M236.12167,231.49829v-32.53953" fill="none" stroke-linecap="round"/><path d="M267.79829,169.63557c0,15.06422 -12.55309,27.27619 -28.03809,27.27619c-15.48501,0 -28.03809,-12.21197 -28.03809,-27.27619c0,-15.06422 12.55309,-27.27619 28.0381,-27.27619c15.48501,0 28.0381,12.21197 28.0381,27.27619z" fill="#ffffff" stroke-linecap="butt"/><g fill="none" stroke-linecap="butt"><path d="M237.80946,172.549c0,3.60782 -0.29671,6.53254 -0.66272,6.53254c-0.36601,0 -0.66273,-2.92472 -0.66273,-6.53254c0,-3.60782 0.29672,-6.53254 0.66273,-6.53254c0.36601,0 0.66272,2.92472 0.66272,6.53254z"/><path d="M254.54911,172.62592c0,3.60782 -0.29671,6.53254 -0.66272,6.53254c-0.36601,0 -0.66272,-2.92472 -0.66272,-6.53254c0,-3.60782 0.29672,-6.53254 0.66272,-6.53254c0.36601,0 0.66272,2.92472 0.66272,6.53254z"/></g><path d="M265.57622,216.79038l-14.95993,5.01524l-13.99483,-11.776" fill="none" stroke-linecap="round"/><path d="M270.35262,205.55977c4.19469,0.3331 7.32513,4.00356 6.99203,8.19826c-0.3331,4.19469 -4.00356,7.32512 -8.19825,6.99202c-4.19469,-0.3331 -7.32513,-4.00356 -6.99204,-8.19826c0.3331,-4.19469 4.00356,-7.32512 8.19825,-6.99202z" fill="#ffffff" stroke-linecap="butt"/></g></g></svg>