<svg version="1.1" xmlns="http://www.w3.org/2000/svg" xmlns:xlink="http://www.w3.org/1999/xlink" width="70.8674" height="135.1269" viewBox="0,0,70.8674,135.1269"><g transform="translate(-216.32667,-159.0024)"><g stroke-miterlimit="10"><path d="M252.41006,204.43544l5.3912,14.5125l-22.12668,-0.49073" fill="none" stroke="#000000" stroke-width="4" stroke-linecap="round"/><path d="M246.12949,191.11744c3.12675,-2.81596 7.94429,-2.56403 10.76026,0.56275c2.81596,3.12675 2.56403,7.9443 -0.56275,10.76026c-3.12675,2.81596 -7.9443,2.56403 -10.76026,-0.56275c-2.81596,-3.12676 -2.56402,-7.9443 0.56275,-10.76026z" fill="#cccccc" stroke="#000000" stroke-width="4" stroke-linecap="butt"/><path d="M235.56146,244.36894c0,0 8.86637,11.59386 10.64459,19.33099c1.85947,8.09066 0.27934,25.73091 0.27934,25.73091" fill="none" stroke="#000000" stroke-width="4" stroke-linecap="round"/><path d="M234.81774,244.06904c0,0 -4.01202,-16.59333 -3.12608,-22.47919c0.80727,-5.36321 8.77631,-12.51128 8.77631,-12.51128" fill="none" stroke="#212121" stroke-width="4" stroke-linecap="round"/><path d="M279.67339,198.58257c-5.47742,14.03312 -21.61161,20.84487 -36.03671,15.21446c-14.42513,-5.63041 -21.67866,-21.57088 -16.20124,-35.60399c5.47742,-14.03312 21.61161,-20.84487 36.03673,-15.21447c14.42513,5.63041 21.67867,21.57088 16.20125,35.60401z" fill="#ffffff" stroke="#000000" stroke-width="4" stroke-linecap="butt"/><path d="M234.36011,244.04466c0,0 -0.25327,12.72222 -1.66345,20.4701c-1.52192,8.36184 -7.15845,26.07942 -7.15845,26.07942" fill="none" stroke="#212121" stroke-width="4" stroke-linecap="round"/><path d="M252.90101,200.30026l1.09208,15.61272l-20.74503,3.36687" fill="none" stroke="#333333" stroke-width="4" stroke-linecap="round"/><g fill="none" stroke="#000000"><path d="M260.79088,190.42329c-1.31182,3.36088 -3.18142,5.77075 -4.17588,5.38258c-0.99447,-0.38816 -0.73722,-3.42737 0.5746,-6.78824c1.31182,-3.36088 3.18145,-5.77074 4.17591,-5.38257c0.99447,0.38816 0.73719,3.42735 -0.57463,6.78823z" stroke-width="2" stroke-linecap="butt"/><path d="M285.94407,180.01654l-15.8801,5.79411l-8.85304,-15.85447" stroke-width="2.5" stroke-linecap="round"/><path d="M276.99186,196.9253c-1.31182,3.36088 -3.18143,5.77075 -4.17589,5.38258c-0.99447,-0.38816 -0.73722,-3.42737 0.5746,-6.78823c1.31182,-3.36088 3.18145,-5.77075 4.17592,-5.38258c0.99447,0.38816 0.7372,3.42735 -0.57463,6.78823z" stroke-width="2" stroke-linecap="butt"/></g><path d="M242.51195,193.05725c0.15589,-4.20499 3.69111,-7.48743 7.89612,-7.33152c4.20499,0.15589 7.48743,3.69111 7.33152,7.89612c-0.15589,4.20499 -3.69111,7.48743 -7.89612,7.33152c-4.20499,-0.15589 -7.48743,-3.69111 -7.33152,-7.89612z" fill="#ffffff" stroke="#333333" stroke-width="4" stroke-linecap="butt"/><path d="M263.71011,288.8404c0,2.7772 -3.9206,2.89524 -8.38095,2.89524c-4.46036,0 -8.07619,-0.11804 -8.07619,-2.89524c0,-2.7772 3.61584,-7.1619 8.07619,-7.1619c4.46035,0 8.38095,4.3847 8.38095,7.1619z" fill="#cccccc" stroke="#000000" stroke-width="4" stroke-linecap="butt"/><path d="M234.78381,289.23406c0,2.7772 -3.9206,2.89524 -8.38095,2.89524c-4.46036,0 -8.07619,-0.11803 -8.07619,-2.89524c0,-2.7772 3.61583,-7.1619 8.07619,-7.1619c4.46036,0 8.38095,4.3847 8.38095,7.1619z" fill="#ffffff" stroke="#333333" stroke-width="4" stroke-linecap="butt"/></g></g></svg>