<svg version="1.1" xmlns="http://www.w3.org/2000/svg" xmlns:xlink="http://www.w3.org/1999/xlink" width="80.43782" height="128.59876" viewBox="0,0,80.43782,128.59876"><g transform="translate(-197.16034,-167.16658)"><g stroke-miterlimit="10"><path d="M236.30174,230.69586l5.16668,29.65812" fill="none" stroke="#000000" stroke-width="4" stroke-linecap="round"/><path d="M248.63347,269.03749c-0.18389,4.20386 -3.74084,7.46271 -7.94471,7.27884c-4.20386,-0.18389 -7.46271,-3.74084 -7.27884,-7.94471c0.18389,-4.20386 3.74085,-7.46272 7.94471,-7.27884c4.20387,0.18388 7.46271,3.74084 7.27884,7.94471z" fill="#cccccc" stroke="#000000" stroke-width="4" stroke-linecap="butt"/><path d="M233.54563,251.44376c0,0 14.2683,9.68246 18.35547,14.77166c4.09065,5.09353 7.58728,25.25498 7.58728,25.25498" fill="none" stroke="#000000" stroke-width="4" stroke-linecap="round"/><path d="M272.68215,291.02398c-0.05912,2.77657 -3.98134,2.81113 -8.44068,2.71619c-4.45936,-0.09495 -8.07186,-0.28992 -8.01274,-3.0665c0.05912,-2.77657 3.76747,-7.08332 8.2268,-6.98837c4.45934,0.09494 8.28572,4.56211 8.2266,7.33867z" fill="#cccccc" stroke="#000000" stroke-width="4" stroke-linecap="butt"/><path d="M233.38496,250.66508c0,0 1.0872,-15.45312 2.43768,-22.44098c1.18365,-6.12462 5.23088,-17.23896 5.23088,-17.23896" fill="none" stroke="#212121" stroke-width="4" stroke-linecap="round"/><path d="M275.59814,196.44277c0,15.06422 -12.55309,27.27619 -28.03809,27.27619c-15.48501,0 -28.03809,-12.21197 -28.03809,-27.27619c0,-15.06422 12.55309,-27.27619 28.0381,-27.27619c15.48501,0 28.0381,12.21197 28.0381,27.27619z" fill="#ffffff" stroke="#000000" stroke-width="4" stroke-linecap="butt"/><path d="M245.60933,199.29757c0,2.43533 -0.29671,4.40955 -0.66272,4.40955c-0.36601,0 -0.66273,-1.97422 -0.66273,-4.40955c0,-2.43533 0.29672,-4.40956 0.66273,-4.40956c0.36601,0 0.66272,1.97423 0.66272,4.40956z" fill="none" stroke="#000000" stroke-width="4" stroke-linecap="butt"/><path d="M262.34895,199.37449c0,2.43533 -0.29671,4.40955 -0.66272,4.40955c-0.36601,0 -0.66272,-1.97422 -0.66272,-4.40955c0,-2.43533 0.29672,-4.40956 0.66272,-4.40956c0.36601,0 0.66272,1.97423 0.66272,4.40956z" fill="none" stroke="#000000" stroke-width="4" stroke-linecap="butt"/><path d="M233.27452,251.86879l-26.25673,41.68603" fill="none" stroke="#212121" stroke-width="4" stroke-linecap="round"/><path d="M215.61724,290.12019c0.01504,2.77716 -3.90487,2.91644 -8.36514,2.9406c-4.4603,0.02416 -8.07671,-0.07429 -8.09176,-2.85146c-0.01504,-2.77716 3.57698,-7.18139 8.03727,-7.20553c4.4603,-0.02416 8.40457,4.33924 8.41962,7.11639z" fill="#ffffff" stroke="#333333" stroke-width="4" stroke-linecap="butt"/><path d="M234.93508,229.1238l0.67036,31.87676" fill="none" stroke="#333333" stroke-width="4" stroke-linecap="round"/><path d="M244.73121,264.72084c1.352,3.98476 -0.78225,8.31107 -4.76703,9.66309c-3.98476,1.352 -8.31107,-0.78225 -9.66309,-4.76703c-1.352,-3.98476 0.78225,-8.31107 4.76703,-9.66309c3.98476,-1.352 8.31107,0.78225 9.66309,4.76703z" fill="#ffffff" stroke="#333333" stroke-width="4" stroke-linecap="butt"/><path d="M234.60187,187.73322l16.07615,8.44381" fill="none" stroke="#000000" stroke-width="2.5" stroke-linecap="round"/></g></g></svg>