<svg version="1.1" xmlns="http://www.w3.org/2000/svg" xmlns:xlink="http://www.w3.org/1999/xlink" width="73.20511" height="144.50885" viewBox="0,0,73.20511,144.50885"><g transform="translate(-193.89654,-150.72381)"><g stroke-miterlimit="10"><path d="M255.69398,209.40759l-14.34762,14.43869l-12.8411,-9.4834" fill="none" stroke="#000000" stroke-width="4" stroke-linecap="round"/><path d="M265.09315,201.34794c0.19688,4.20327 -3.05094,7.77031 -7.25422,7.96719c-4.20327,0.19688 -7.77031,-3.05094 -7.96719,-7.25422c-0.19688,-4.20327 3.05095,-7.77031 7.25422,-7.96719c4.20328,-0.19688 7.77031,3.05094 7.96719,7.25422z" fill="#cccccc" stroke="#000000" stroke-width="4" stroke-linecap="butt"/><path d="M227.47231,241.52238c0,0 12.62546,8.52779 15.51528,16.48538c2.63585,7.25823 -6.20469,24.45192 -6.20469,24.45192" fill="none" stroke="#000000" stroke-width="4" stroke-linecap="round"/><path d="M251.48903,290.29186c-1.40407,2.39613 -4.84638,0.51583 -8.69471,-1.7392c-3.84833,-2.25503 -6.90834,-4.18493 -5.50427,-6.58106c1.40407,-2.39613 6.74054,-4.35112 10.58886,-2.09609c3.84833,2.25502 5.01418,8.02022 3.61011,10.41635z" fill="#cccccc" stroke="#000000" stroke-width="4" stroke-linecap="butt"/><path d="M227.27388,240.87393c0,0 -2.49908,-10.61484 -2.49908,-16.22351c0,-5.20813 2.49908,-16.31602 2.49908,-16.31602" fill="none" stroke="#212121" stroke-width="4" stroke-linecap="round"/><path d="M259.27259,180c0,15.06422 -12.55309,27.27619 -28.03809,27.27619c-15.48501,0 -28.03809,-12.21197 -28.03809,-27.27619c0,-15.06422 12.55309,-27.27619 28.0381,-27.27619c15.48501,0 28.0381,12.21197 28.0381,27.27619z" fill="#ffffff" stroke="#000000" stroke-width="4" stroke-linecap="butt"/><path d="M230.93,183.76465c0,3.60782 -1.39105,4.69144 -3.10699,4.69144c-1.71594,0 -3.10704,-1.08362 -3.10704,-4.69144c0,-3.60782 1.3911,-6.53254 3.10704,-6.53254c1.71594,0 3.10699,2.92472 3.10699,6.53254z" fill="none" stroke="#000000" stroke-width="2" stroke-linecap="butt"/><path d="M227.49836,241.56005c0,0 3.32001,12.57163 1.4908,19.44216c-1.98599,7.4594 -12.97511,23.69306 -12.97511,23.69306" fill="none" stroke="#212121" stroke-width="4" stroke-linecap="round"/><path d="M225.83858,214.56315l-12.9441,7.92189l-8.95301,-12.44461" fill="none" stroke="#333333" stroke-width="4" stroke-linecap="round"/><path d="M211.11795,201.10147c0.19688,4.20327 -3.05094,7.77031 -7.25422,7.96719c-4.20327,0.19688 -7.77031,-3.05094 -7.96719,-7.25422c-0.19688,-4.20327 3.05094,-7.77031 7.25422,-7.96719c4.20327,-0.19688 7.77031,3.05094 7.96719,7.25422z" fill="#ffffff" stroke="#333333" stroke-width="4" stroke-linecap="butt"/><path d="M248.83885,183.9983c0,3.60782 -1.39105,4.69144 -3.10699,4.69144c-1.71594,0 -3.10704,-1.08362 -3.10704,-4.69144c0,-3.60782 1.3911,-6.53254 3.10704,-6.53254c1.71594,0 3.10699,2.92472 3.10699,6.53254z" fill="none" stroke="#000000" stroke-width="2" stroke-linecap="butt"/><path d="M211.03853,165.64957l0.82139,6.02359l-3.28558,0.82139" fill="none" stroke="#ff0000" stroke-width="2" stroke-linecap="round"/><path d="M218.97871,170.03036l-3.55939,0.8214l-0.8214,-5.74979" fill="none" stroke="#ff0000" stroke-width="2" stroke-linecap="round"/><path d="M208.84813,176.05394l3.55939,-0.82139l0.8214,4.65458" fill="none" stroke="#ff0000" stroke-width="2" stroke-linecap="round"/><path d="M216.80922,179.5324l-0.89794,-5.12125l4.10699,-0.8214" fill="none" stroke="#ff0000" stroke-width="2" stroke-linecap="round"/><path d="M224.03882,165.86873l10.86595,12.80098" fill="none" stroke="#000000" stroke-width="2.5" stroke-linecap="round"/><path d="M237.6782,176.05563c0,0 0.16431,1.50702 0.01628,2.05158c-0.16493,0.60673 -0.74185,1.67332 -0.74185,1.67332" fill="none" stroke="#000000" stroke-width="1.5" stroke-linecap="round"/><path d="M229.94255,291.59478c-0.82964,2.65039 -4.60647,1.59183 -8.86315,0.25938c-4.25669,-1.33245 -7.67215,-2.52525 -6.84251,-5.17565c0.82964,-2.65039 5.59021,-5.75471 9.84689,-4.42226c4.25669,1.33245 6.68841,6.68813 5.85877,9.33852z" fill="#ffffff" stroke="#333333" stroke-width="4" stroke-linecap="butt"/></g></g></svg>