<svg version="1.1" xmlns="http://www.w3.org/2000/svg" xmlns:xlink="http://www.w3.org/1999/xlink" width="82.625" height="127.34074" viewBox="0,0,82.625,127.34074"><g transform="translate(-209.1442,-167.9625)"><g stroke-miterlimit="10"><path d="M286.35417,211.15555c-7.37558,13.13513 -24.30024,17.63716 -37.80226,10.05556c-13.50203,-7.58161 -18.4685,-24.37583 -11.09293,-37.51096c7.37558,-13.13513 24.30024,-17.63716 37.80227,-10.05555c13.50203,7.58161 18.46851,24.37583 11.09294,37.51096z" fill="#ffffff" stroke="#000000" stroke-width="4" stroke-linecap="butt"/><path d="M225.19859,236.01281l-1.56823,-14.72575l24.59823,1.34505" fill="none" stroke="#000000" stroke-width="4" stroke-linecap="round"/><path d="M228.75133,247.7798c-4.17143,-0.55263 -7.10505,-4.38225 -6.55241,-8.55369c0.55263,-4.17143 4.38225,-7.10506 8.55369,-6.55241c4.17143,0.55263 7.10505,4.38226 6.55241,8.55369c-0.55263,4.17144 -4.38225,7.10506 -8.55369,6.55241z" fill="#cccccc" stroke="#000000" stroke-width="4" stroke-linecap="butt"/><path d="M235.56941,243.31961c0,0 20.53258,3.3444 22.38437,11.40168c1.78722,7.77632 -34.05878,10.0089 -34.05878,10.0089" fill="none" stroke="#000000" stroke-width="4" stroke-linecap="round"/><path d="M211.83941,275.29713c-1.99802,-1.92892 0.64013,-4.83154 3.7381,-8.04048c3.09797,-3.20895 5.69429,-5.72833 7.69232,-3.79941c1.99802,1.92892 2.64114,7.57572 -0.45682,10.78466c-3.09796,3.20895 -8.97556,2.98416 -10.97359,1.05523z" fill="#cccccc" stroke="#000000" stroke-width="4" stroke-linecap="butt"/><path d="M235.73269,242.94957l15.93164,-28.37259" fill="none" stroke="#212121" stroke-width="4" stroke-linecap="round"/><path d="M235.62132,243.52389c0,0 4.81656,10.79217 4.4195,18.73429c-0.42147,8.43027 -8.64038,27.53543 -8.64038,27.53543" fill="none" stroke="#212121" stroke-width="4" stroke-linecap="round"/><path d="M247.11014,290.40801c0,2.7772 -3.9206,2.89524 -8.38095,2.89524c-4.46036,0 -8.07619,-0.11803 -8.07619,-2.89524c0,-2.7772 3.61583,-7.1619 8.07619,-7.1619c4.46036,0 8.38095,4.3847 8.38095,7.1619z" fill="#ffffff" stroke="#333333" stroke-width="4" stroke-linecap="butt"/><path d="M254.53882,235.41964l-21.56617,-1.02875l12.79095,-11.39979" fill="none" stroke="#333333" stroke-width="4" stroke-linecap="round"/><path d="M261.22933,227.02139c4.07145,-1.06279 8.23358,1.37624 9.29637,5.4477c1.06279,4.07145 -1.37623,8.23358 -5.4477,9.29637c-4.07145,1.06279 -8.23358,-1.37623 -9.29637,-5.4477c-1.06279,-4.07145 1.37623,-8.23358 5.4477,-9.29638z" fill="#ffffff" stroke="#333333" stroke-width="4" stroke-linecap="butt"/><path d="M284.23451,207.04237c-1.17508,3.41109 -2.94589,5.89447 -3.95521,5.54677c-1.00932,-0.3477 -0.87497,-3.39481 0.30012,-6.80591c1.17508,-3.41109 2.94592,-5.89446 3.95523,-5.54676c1.00932,0.3477 0.87494,3.3948 -0.30015,6.8059z" fill="none" stroke="#000000" stroke-width="2" stroke-linecap="butt"/><path d="M278.99076,185.24028l7.46143,13.18186" fill="none" stroke="#000000" stroke-width="3" stroke-linecap="round"/></g></g></svg>