<svg version="1.1" xmlns="http://www.w3.org/2000/svg" xmlns:xlink="http://www.w3.org/1999/xlink" width="118.06797" height="99.66296" viewBox="0,0,118.06797,99.66296"><g transform="translate(-187.95838,-196.83133)"><g stroke-miterlimit="10"><path d="M272.48187,270.56196l-20.69451,-2.46869l-8.62958,-17.4334" fill="none" stroke="#000000" stroke-width="4" stroke-linecap="round"/><path d="M287.18074,266.42068c2.14436,3.62049 0.94772,8.29384 -2.67278,10.4382c-3.62049,2.14436 -8.29384,0.94773 -10.43821,-2.67278c-2.14436,-3.62049 -0.94772,-8.29385 2.67278,-10.43821c3.6205,-2.14436 8.29384,-0.94772 10.43821,2.67278z" fill="#cccccc" stroke="#000000" stroke-width="4" stroke-linecap="butt"/><path d="M223.70531,259.07894c0,0 3.97661,25.58088 7.60494,30.65004c3.39748,4.74664 -24.80723,-7.27018 -24.80723,-7.27018" fill="none" stroke="#000000" stroke-width="4" stroke-linecap="round"/><path d="M190.00527,285.35679c-0.51665,-2.72872 3.31356,-3.57405 7.69605,-4.40382c4.3825,-0.82977 7.95717,-1.38644 8.47382,1.34228c0.51665,2.72872 -2.22039,7.70954 -6.60288,8.5393c-4.38249,0.82976 -9.05034,-2.74904 -9.56699,-5.47776z" fill="#cccccc" stroke="#000000" stroke-width="4" stroke-linecap="butt"/><path d="M224.4213,258.00196l29.29809,-14.1578" fill="none" stroke="#212121" stroke-width="4" stroke-linecap="round"/><path d="M297.58692,244.69123c-9.80947,11.43263 -27.28848,12.52634 -39.04046,2.44287c-11.75198,-10.08347 -13.3267,-27.52573 -3.51723,-38.95836c9.80947,-11.43263 27.28848,-12.52634 39.04047,-2.44287c11.75198,10.08347 13.32671,27.52574 3.51724,38.95837z" fill="#ffffff" stroke="#000000" stroke-width="4" stroke-linecap="butt"/><path d="M276.2537,228.83254c-0.08507,3.22759 -0.45067,5.83782 -0.81658,5.8301c-0.36591,-0.00772 -0.59358,-2.63047 -0.50851,-5.85806c0.08507,-3.22759 0.45068,-5.83782 0.81659,-5.8301c0.36591,0.00772 0.59357,2.63047 0.5085,5.85806z" fill="none" stroke="#000000" stroke-width="4" stroke-linecap="butt"/><path d="M292.98688,229.25458c-0.08507,3.22759 -0.45067,5.83782 -0.81658,5.8301c-0.36591,-0.00772 -0.59357,-2.63047 -0.5085,-5.85806c0.08507,-3.22759 0.45068,-5.83782 0.81658,-5.8301c0.36591,0.00772 0.59357,2.63047 0.5085,5.85806z" fill="none" stroke="#000000" stroke-width="4" stroke-linecap="butt"/><path d="M225.04763,260.64407c0,0 29.08079,30.45874 21.27683,31.46004c-8.43535,1.08232 -30.05821,-7.14288 -30.05821,-7.14288" fill="none" stroke="#212121" stroke-width="4" stroke-linecap="round"/><path d="M204.09344,293.4708c-1.6004,-2.2697 1.53573,-4.62548 5.181,-7.19583c3.64529,-2.57036 6.66839,-4.55757 8.2688,-2.28786c1.6004,2.2697 1.17208,7.93682 -2.47321,10.50718c-3.64529,2.57036 -9.37619,1.24621 -10.97659,-1.02349z" fill="#ffffff" stroke="#333333" stroke-width="4" stroke-linecap="butt"/><path d="M254.7215,280.13929l-9.75218,-8.71548l-3.05784,-21.43947" fill="none" stroke="#333333" stroke-width="4" stroke-linecap="round"/><path d="M266.32648,289.3968c-2.58765,3.31818 -7.37528,3.91039 -10.69347,1.32273c-3.31818,-2.58765 -3.91039,-7.37528 -1.32273,-10.69347c2.58765,-3.31818 7.37528,-3.91039 10.69347,-1.32273c3.31818,2.58765 3.91039,7.37528 1.32273,10.69347z" fill="#ffffff" stroke="#333333" stroke-width="4" stroke-linecap="butt"/><path d="M260.77632,214.38945l20.52879,6.31678" fill="none" stroke="#000000" stroke-width="2.5" stroke-linecap="round"/><path d="M270.37286,235.19789l4.89231,0.32615" fill="none" stroke="#000000" stroke-width="2.5" stroke-linecap="round"/></g></g></svg>