<svg version="1.1" xmlns="http://www.w3.org/2000/svg" xmlns:xlink="http://www.w3.org/1999/xlink" width="60.0762" height="144.95984" viewBox="0,0,60.0762,144.95984"><g transform="translate(-209.02933,-149.16946)"><g data-paper-data="{&quot;isPaintingLayer&quot;:true}" fill-rule="nonzero" stroke-linejoin="miter" stroke-miterlimit="10" stroke-dasharray="" stroke-dashoffset="0" style="mix-blend-mode: normal"><path d="M236.24252,212.11052l6.37959,29.42109" fill="none" stroke="#000000" stroke-width="4" stroke-linecap="round"/><path d="M251.42579,249.23904c-0.01118,4.20785 -3.4314,7.60997 -7.63928,7.59878c-4.20785,-0.01118 -7.60997,-3.4314 -7.59878,-7.63928c0.01118,-4.20785 3.43141,-7.60997 7.63928,-7.59878c4.20786,0.01118 7.60997,3.4314 7.59878,7.63928z" fill="#cccccc" stroke="#000000" stroke-width="4" stroke-linecap="butt"/><path d="M263.71009,288.8404c0,2.7772 -3.9206,2.89524 -8.38095,2.89524c-4.46036,0 -8.07619,-0.11804 -8.07619,-2.89524c0,-2.7772 3.61584,-7.1619 8.07619,-7.1619c4.46035,0 8.38095,4.3847 8.38095,7.1619z" fill="#cccccc" stroke="#000000" stroke-width="4" stroke-linecap="butt"/><path d="M246.7868,287.62201l-11.85654,-47.21987" fill="none" stroke="#000000" stroke-width="4" stroke-linecap="round"/><path d="M235.10682,239.31958v-32.53953" fill="none" stroke="#212121" stroke-width="4" stroke-linecap="round"/><g stroke="#000000"><path d="M267.10551,178.44565c0,15.06422 -12.55309,27.27619 -28.03809,27.27619c-15.48501,0 -28.03809,-12.21197 -28.03809,-27.27619c0,-15.06422 12.55309,-27.27619 28.0381,-27.27619c15.48501,0 28.0381,12.21197 28.0381,27.27619z" fill="#ffffff" stroke-width="4" stroke-linecap="butt"/><g fill="none"><path d="M237.11671,182.2103c0,3.60782 -0.29671,6.53254 -0.66272,6.53254c-0.36601,0 -0.66273,-2.92472 -0.66273,-6.53254c0,-3.60782 0.29672,-6.53254 0.66273,-6.53254c0.36601,0 0.66272,2.92472 0.66272,6.53254z" stroke-width="4" stroke-linecap="butt"/><path d="M253.85636,182.28722c0,3.60782 -0.29671,6.53254 -0.66272,6.53254c-0.36601,0 -0.66272,-2.92472 -0.66272,-6.53254c0,-3.60782 0.29672,-6.53254 0.66272,-6.53254c0.36601,0 0.66272,2.92472 0.66272,6.53254z" stroke-width="4" stroke-linecap="butt"/><path d="M257.75569,163.37006l-12.6864,11.17159l-14.01183,-11.55029" stroke-width="2.5" stroke-linecap="round"/></g></g><path d="M234.93481,239.47165l-7.88929,48.7806" fill="none" stroke="#212121" stroke-width="4" stroke-linecap="round"/><path d="M234.78375,289.23406c0,2.7772 -3.9206,2.89524 -8.38095,2.89524c-4.46036,0 -8.07619,-0.11803 -8.07619,-2.89524c0,-2.7772 3.61583,-7.1619 8.07619,-7.1619c4.46036,0 8.38095,4.3847 8.38095,7.1619z" fill="#ffffff" stroke="#333333" stroke-width="4" stroke-linecap="butt"/><path d="M226.87479,243.66735l6.63908,-30.97169" fill="none" stroke="#333333" stroke-width="4" stroke-linecap="round"/><path d="M235.06402,249.32592c0.27881,4.19863 -2.8988,7.82834 -7.09744,8.10717c-4.19863,0.27881 -7.82834,-2.8988 -8.10717,-7.09744c-0.27881,-4.19863 2.8988,-7.82834 7.09744,-8.10717c4.19863,-0.27881 7.82834,2.8988 8.10717,7.09744z" fill="#ffffff" stroke="#333333" stroke-width="4" stroke-linecap="butt"/></g></g></svg>