<svg version="1.1" xmlns="http://www.w3.org/2000/svg" xmlns:xlink="http://www.w3.org/1999/xlink" width="64.23359" height="142.88276" viewBox="0,0,64.23359,142.88276"><g transform="translate(-212.98772,-146.28125)"><g data-paper-data="{&quot;isPaintingLayer&quot;:true}" fill-rule="nonzero" stroke-width="4" stroke-linejoin="miter" stroke-miterlimit="10" stroke-dasharray="" stroke-dashoffset="0" style="mix-blend-mode: normal"><path d="M258.70159,226.72031l-13.49184,-0.01394l-6.93005,-13.67358" data-paper-data="{&quot;index&quot;:null}" fill="none" stroke="#000000" stroke-linecap="round"/><path d="M272.51712,219.35162c3.21525,2.7145 3.62118,7.52149 0.90669,10.73676c-2.7145,3.21525 -7.52149,3.62118 -10.73675,0.90669c-3.21525,-2.7145 -3.62118,-7.52149 -0.90669,-10.73675c2.7145,-3.21525 7.5215,-3.62119 10.73675,-0.90669z" data-paper-data="{&quot;index&quot;:null}" fill="#cccccc" stroke="#000000" stroke-linecap="butt"/><path d="M235.71144,235.82977c0,0 17.81022,8.86618 14.15309,16.30376c-3.55817,7.23633 -16.84936,17.72905 -16.84936,17.72905" fill="none" stroke="#000000" stroke-linecap="round"/><path d="M246.62103,279.50436c-1.53776,2.31261 -4.86785,0.24005 -8.58204,-2.22967c-3.71421,-2.46973 -6.65977,-4.57012 -5.12201,-6.88274c1.53776,-2.31261 6.97654,-3.96169 10.69073,-1.49197c3.7142,2.46972 4.55108,8.29177 3.01334,10.60438z" fill="#cccccc" stroke="#000000" stroke-linecap="butt"/><path d="M235.26862,235.41617l4.18572,-32.26919" fill="none" stroke="#212121" stroke-linecap="round"/><path d="M275.06486,175.61509c-0.03097,15.06419 -12.60914,27.25032 -28.09411,27.21849c-15.48498,-0.03184 -28.01292,-12.26959 -27.98195,-27.33378c0.03097,-15.06419 12.60914,-27.25032 28.09412,-27.21849c15.48498,0.03184 28.01293,12.26959 27.98196,27.33378z" fill="#ffffff" stroke="#000000" stroke-linecap="butt"/><path d="M245.33167,178.52872c-0.00742,3.60781 -0.31014,6.53192 -0.67615,6.53116c-0.36601,-0.00075 -0.65672,-2.92608 -0.6493,-6.53389c0.00742,-3.60781 0.31015,-6.53192 0.67616,-6.53116c0.36601,0.00075 0.65671,2.92608 0.64929,6.53389z" fill="none" stroke="#000000" stroke-linecap="butt"/><path d="M262.07114,178.64006c-0.00742,3.60781 -0.31014,6.53192 -0.67615,6.53116c-0.36601,-0.00075 -0.65671,-2.92608 -0.64929,-6.53389c0.00742,-3.60781 0.31015,-6.53192 0.67615,-6.53116c0.36601,0.00075 0.65671,2.92608 0.64929,6.53389z" fill="none" stroke="#000000" stroke-linecap="butt"/><path d="M234.8209,236.53468c0,0 -4.06862,14.69711 -7.27664,21.78528c-3.37713,7.46185 -12.50487,21.9224 -12.50487,21.9224" fill="none" stroke="#212121" stroke-linecap="round"/><path d="M230.86407,285.49552c-0.79987,2.65953 -4.58833,1.64341 -8.8597,0.35881c-4.27136,-1.28463 -7.7,-2.439 -6.90014,-5.09855c0.79987,-2.65953 5.52527,-5.81706 9.79666,-4.53247c4.27136,1.28463 6.76301,6.61267 5.96317,9.27219z" fill="#ffffff" stroke="#333333" stroke-linecap="butt"/><path d="M223.06993,234.02121l-2.71829,-16.68186l17.17327,-3.20421" fill="none" stroke="#333333" stroke-linecap="round"/><path d="M230.19655,236.62448c3.11368,2.83042 3.34333,7.64906 0.51291,10.76276c-2.83042,3.11368 -7.64906,3.34333 -10.76276,0.51291c-3.11368,-2.83042 -3.34333,-7.64906 -0.51291,-10.76276c2.83042,-3.11368 7.64906,-3.34333 10.76276,-0.51291z" fill="#ffffff" stroke="#333333" stroke-linecap="butt"/></g></g></svg>