<svg version="1.1" xmlns="http://www.w3.org/2000/svg" xmlns:xlink="http://www.w3.org/1999/xlink" width="67.20458" height="146.23403" viewBox="0,0,67.20458,146.23403"><g transform="translate(-211.13865,-146.28124)"><g data-paper-data="{&quot;isPaintingLayer&quot;:true}" fill-rule="nonzero" stroke-width="4" stroke-linejoin="miter" stroke-miterlimit="10" stroke-dasharray="" stroke-dashoffset="0" style="mix-blend-mode: normal"><path d="M219.07971,231.26723l2.42121,-13.27282l14.69073,-4.37891" data-paper-data="{&quot;index&quot;:null}" fill="none" stroke="#000000" stroke-linecap="round"/><path d="M223.86489,246.17591c-3.24466,2.67927 -8.04694,2.22092 -10.72623,-1.02373c-2.67927,-3.24466 -2.22092,-8.04694 1.02373,-10.72622c3.24466,-2.67927 8.04694,-2.22092 10.72622,1.02373c2.67927,3.24466 2.22093,8.04695 -1.02373,10.72622z" data-paper-data="{&quot;index&quot;:null}" fill="#cccccc" stroke="#000000" stroke-linecap="butt"/><path d="M235.71145,235.82977c0,0 -5.48109,16.67348 -8.86833,24.29312c-3.20648,7.21302 -12.78572,19.74518 -12.78572,19.74518" fill="none" stroke="#000000" stroke-linecap="round"/><path d="M227.66326,289.50986c-1.53776,2.31261 -4.86785,0.24005 -8.58204,-2.22967c-3.71421,-2.46973 -6.65977,-4.57012 -5.12201,-6.88274c1.53776,-2.31261 6.97654,-3.96169 10.69073,-1.49197c3.7142,2.46972 4.55108,8.29177 3.01334,10.60438z" fill="#cccccc" stroke="#000000" stroke-linecap="butt"/><path d="M239.45435,203.14698l-4.18572,32.26919" fill="none" stroke="#212121" stroke-linecap="round"/><path d="M275.06487,175.61509c-0.03097,15.06419 -12.60914,27.25032 -28.09411,27.21849c-15.48498,-0.03184 -28.01292,-12.26959 -27.98195,-27.33378c0.03097,-15.06419 12.60914,-27.25032 28.09412,-27.21849c15.48498,0.03184 28.01293,12.26959 27.98196,27.33378z" fill="#ffffff" stroke="#000000" stroke-linecap="butt"/><path d="M245.33168,177.7388c-0.00742,3.60781 -0.31014,6.53192 -0.67615,6.53116c-0.36601,-0.00075 -0.65672,-2.92608 -0.6493,-6.53389c0.00742,-3.60781 0.31015,-6.53192 0.67616,-6.53116c0.36601,0.00075 0.65671,2.92608 0.64929,6.53389z" fill="none" stroke="#000000" stroke-linecap="butt"/><path d="M262.07115,177.85014c-0.00742,3.60781 -0.31014,6.53192 -0.67615,6.53116c-0.36601,-0.00075 -0.65671,-2.92608 -0.64929,-6.53389c0.00742,-3.60781 0.31015,-6.53192 0.67615,-6.53116c0.36601,0.00075 0.65671,2.92608 0.64929,6.53389z" fill="none" stroke="#000000" stroke-linecap="butt"/><path d="M236.35398,236.64784c0,0 16.5736,6.45774 17.5426,13.62863c0.82082,6.07421 -13.33356,23.55747 -13.33356,23.55747" fill="none" stroke="#212121" stroke-linecap="round"/><path d="M254.80963,281.73933c-1.41691,2.38857 -4.84908,0.48984 -8.68527,-1.78577c-3.83618,-2.27564 -6.88582,-4.22188 -5.46891,-6.61046c1.41691,-2.38857 6.76374,-4.31494 10.59995,-2.03932c3.83618,2.27564 4.97111,8.04697 3.55423,10.43554z" fill="#ffffff" stroke="#333333" stroke-linecap="butt"/><path d="M261.15834,222.79097l-15.6173,6.46322l-7.04869,-15.98449" fill="none" stroke="#333333" stroke-linecap="round"/><path d="M262.06188,215.25776c2.04287,-3.67872 6.68113,-5.00484 10.35986,-2.96198c3.67872,2.04287 5.00484,6.68113 2.96198,10.35986c-2.04287,3.67872 -6.68113,5.00484 -10.35986,2.96198c-3.67872,-2.04287 -5.00484,-6.68113 -2.96198,-10.35986z" fill="#ffffff" stroke="#333333" stroke-linecap="butt"/></g></g></svg>