<svg version="1.1" xmlns="http://www.w3.org/2000/svg" xmlns:xlink="http://www.w3.org/1999/xlink" width="77.69339" height="139.68877" viewBox="0,0,77.69339,139.68877"><g transform="translate(-198.23182,-150.31793)"><g data-paper-data="{&quot;isPaintingLayer&quot;:true}" fill-rule="nonzero" stroke-width="4" stroke-linejoin="miter" stroke-miterlimit="10" stroke-dasharray="" stroke-dashoffset="0" style="mix-blend-mode: normal"><path d="M239.60924,242.55792l-8.52135,-10.46022l6.20967,-14.01543" data-paper-data="{&quot;index&quot;:null}" fill="none" stroke="#000000" stroke-linecap="round"/><path d="M254.05425,248.60018c-0.06946,4.20732 -3.53649,7.56168 -7.7438,7.49222c-4.20732,-0.06946 -7.56168,-3.53649 -7.49221,-7.74379c0.06946,-4.20732 3.53649,-7.56168 7.74379,-7.49221c4.20732,0.06946 7.5617,3.53649 7.49221,7.74379z" data-paper-data="{&quot;index&quot;:null}" fill="#cccccc" stroke="#000000" stroke-linecap="butt"/><path d="M235.27345,241.01034c0,0 4.26587,18.03284 -1.9957,20.11643c-5.8531,1.94766 -21.89483,10.96109 -21.89483,10.96109" fill="none" stroke="#000000" stroke-linecap="round"/><path d="M216.46795,287.9437c-2.7112,0.60191 -3.67614,-3.19992 -4.64285,-7.55426c-0.96671,-4.35435 -1.63513,-7.90979 1.07606,-8.51171c2.7112,-0.60191 7.77534,1.9777 8.74204,6.33201c0.96671,4.35434 -2.46405,9.13203 -5.17526,9.73396z" fill="#cccccc" stroke="#000000" stroke-linecap="butt"/><path d="M235.03082,239.62289l3.70016,-32.32847" fill="none" stroke="#212121" stroke-linecap="round"/><path d="M273.92521,179.7963c-0.1086,15.06383 -12.7494,27.18499 -28.234,27.07335c-15.48461,-0.11163 -27.94933,-12.41379 -27.84072,-27.47761c0.1086,-15.06383 12.7494,-27.18499 28.23401,-27.07335c15.48461,0.11163 27.94934,12.41379 27.84073,27.47761z" fill="#ffffff" stroke="#000000" stroke-linecap="butt"/><path d="M244.17338,181.50345c-0.02601,3.60772 -0.34379,6.53024 -0.70979,6.52759c-0.366,-0.00264 -0.64162,-2.92942 -0.61562,-6.53715c0.02601,-3.60772 0.3438,-6.53024 0.7098,-6.52759c0.366,0.00264 0.64161,2.92942 0.61561,6.53715z" fill="none" stroke="#000000" stroke-linecap="butt"/><path d="M260.91205,181.70104c-0.02601,3.60772 -0.34379,6.53024 -0.70979,6.52759c-0.366,-0.00264 -0.64161,-2.92942 -0.61561,-6.53715c0.02601,-3.60772 0.3438,-6.53024 0.70979,-6.52759c0.366,0.00264 0.64161,2.92942 0.61561,6.53715z" fill="none" stroke="#000000" stroke-linecap="butt"/><path d="M236.16816,240.42081c0,0 11.08707,7.64909 16.01688,13.4541c4.65441,5.48071 -0.90843,26.25167 -0.90843,26.25167" fill="none" stroke="#212121" stroke-linecap="round"/><path d="M267.08328,285.95628c-0.59306,2.71315 -4.44842,1.99124 -8.8059,1.03877c-4.35747,-0.9525 -7.8647,-1.8399 -7.27164,-4.55307c0.59306,-2.71315 5.06178,-6.22457 9.41927,-5.27211c4.35747,0.9525 7.2513,6.07324 6.65826,8.78639z" fill="#ffffff" stroke="#333333" stroke-linecap="butt"/><path d="M247.28723,240.38999l-15.91833,-5.68154l5.4936,-16.58338" fill="none" stroke="#333333" stroke-linecap="round"/><path d="M253.01024,235.40875c3.98266,-1.35821 8.31228,0.7693 9.67051,4.75197c1.35821,3.98266 -0.7693,8.31228 -4.75197,9.67051c-3.98266,1.35821 -8.31228,-0.7693 -9.67051,-4.75197c-1.35821,-3.98266 0.7693,-8.31228 4.75197,-9.67051z" fill="#ffffff" stroke="#333333" stroke-linecap="butt"/></g></g></svg>