<svg version="1.1" xmlns="http://www.w3.org/2000/svg" xmlns:xlink="http://www.w3.org/1999/xlink" width="62.12892" height="139.80846" viewBox="0,0,62.12892,139.80846"><g transform="translate(-209.61768,-151.41691)"><g data-paper-data="{&quot;isPaintingLayer&quot;:true}" fill-rule="nonzero" stroke="#000000" stroke-width="4" stroke-linejoin="miter" stroke-miterlimit="10" stroke-dasharray="" stroke-dashoffset="0" style="mix-blend-mode: normal"><path d="M234.67091,243.26018c0,0 9.6187,12.95821 5.63175,20.68496c-3.2012,6.20395 -23.98656,8.82204 -23.98656,8.82204" fill="none" stroke-linecap="round"/><path d="M237.55935,243.4585c0,0 14.57657,8.70719 16.04534,15.96027c1.38649,6.84675 -7.46531,26.40954 -7.46531,26.40954" fill="none" stroke-linecap="round"/><path d="M222.67365,288.11663c-2.49078,1.22834 -4.33072,-2.23569 -6.30353,-6.23604c-1.97281,-4.00036 -3.46623,-7.29548 -0.97544,-8.52384c2.49078,-1.22834 8.02255,0.07522 9.99538,4.07557c1.97281,4.00036 -0.22562,9.45594 -2.7164,10.68432z" fill="#ffffff" stroke-linecap="butt"/><path d="M262.65091,286.92968c-0.29658,2.76132 -4.20737,2.45999 -8.64221,1.98366c-4.43485,-0.47633 -8.0174,-0.97984 -7.72082,-3.74116c0.29658,-2.76132 4.36,-6.7348 8.79485,-6.25846c4.43485,0.47633 7.86476,5.25465 7.56818,8.01596z" fill="#ffffff" stroke-linecap="butt"/><path d="M236.01724,210.01629v32.53953" fill="none" stroke-linecap="round"/><path d="M267.69386,180.6931c0,15.06422 -12.55309,27.27619 -28.03809,27.27619c-15.48501,0 -28.03809,-12.21197 -28.03809,-27.27619c0,-15.06422 12.55309,-27.27619 28.0381,-27.27619c15.48501,0 28.0381,12.21197 28.0381,27.27619z" fill="#ffffff" stroke-linecap="butt"/><g fill="none" stroke-linecap="butt"><path d="M238.83997,185.02522c0,3.60782 -0.29671,6.53254 -0.66272,6.53254c-0.36601,0 -0.66273,-2.92472 -0.66273,-6.53254c0,-3.60782 0.29672,-6.53254 0.66273,-6.53254c0.36601,0 0.66272,2.92472 0.66272,6.53254z"/><path d="M255.57962,185.10214c0,3.60782 -0.29671,6.53254 -0.66272,6.53254c-0.36601,0 -0.66272,-2.92472 -0.66272,-6.53254c0,-3.60782 0.29672,-6.53254 0.66272,-6.53254c0.36601,0 0.66272,2.92472 0.66272,6.53254z"/></g><path d="M256.28429,240.1462l-16.36568,-3.02119l-4.20545,-18.13025" fill="none" stroke-linecap="round"/><path d="M269.68278,240.05565c0.53991,4.1731 -2.40536,7.99377 -6.57847,8.53367c-4.17311,0.53992 -7.99376,-2.40537 -8.53367,-6.57848c-0.53991,-4.1731 2.40537,-7.99376 6.57847,-8.53367c4.17311,-0.53992 7.99377,2.40536 8.53367,6.57847z" fill="#ffffff" stroke-linecap="butt"/><path d="M234.10352,244.28776l-12.11147,-9.84756l12.02281,-15.44451" fill="none" stroke-linecap="round"/><path d="M244.9907,244.7879c0.3511,4.19322 -2.76353,7.87712 -6.95676,8.22821c-4.19322,0.3511 -7.87711,-2.76354 -8.2282,-6.95676c-0.3511,-4.19322 2.76353,-7.87712 6.95676,-8.22821c4.19322,-0.3511 7.87711,2.76354 8.2282,6.95676z" fill="#ffffff" stroke-linecap="butt"/></g></g></svg>