<svg version="1.1" xmlns="http://www.w3.org/2000/svg" xmlns:xlink="http://www.w3.org/1999/xlink" width="72.07154" height="139.21905" viewBox="0,0,72.07154,139.21905"><g transform="translate(-202.54204,-156.35609)"><g stroke-miterlimit="10"><path d="M241.50378,248.52945l-5.16668,-29.65812" fill="none" stroke="#000000" stroke-width="4" stroke-linecap="round"/><path d="M248.66883,257.21296c-0.18389,4.20386 -3.74084,7.46271 -7.94471,7.27884c-4.20386,-0.18389 -7.46271,-3.74084 -7.27884,-7.94471c0.18389,-4.20386 3.74085,-7.46272 7.94471,-7.27884c4.20387,0.18388 7.46271,3.74084 7.27884,7.94471z" fill="#cccccc" stroke="#000000" stroke-width="4" stroke-linecap="butt"/><path d="M233.28089,244.20152l18.26581,40.6677" fill="none" stroke="#000000" stroke-width="4" stroke-linecap="round"/><path d="M266.69637,290.65197c-0.23022,2.76765 -4.14709,2.56028 -8.5921,2.19054c-4.44501,-0.36974 -8.03862,-0.7871 -7.8084,-3.55474c0.23022,-2.76765 4.19707,-6.83752 8.64206,-6.46778c4.445,0.36974 7.98865,5.06435 7.75843,7.83198z" fill="#cccccc" stroke="#000000" stroke-width="4" stroke-linecap="butt"/><path d="M237.25497,201.25995l-4.41266,40.49391" fill="none" stroke="#212121" stroke-width="4" stroke-linecap="round"/><path d="M272.61356,185.63228c0,15.06422 -12.55309,27.27619 -28.03809,27.27619c-15.48501,0 -28.03809,-12.21197 -28.03809,-27.27619c0,-15.06422 12.55309,-27.27619 28.0381,-27.27619c15.48501,0 28.0381,12.21197 28.0381,27.27619z" fill="#ffffff" stroke="#000000" stroke-width="4" stroke-linecap="butt"/><path d="M242.62475,188.48708c0,2.43533 -0.29671,4.40955 -0.66272,4.40955c-0.36601,0 -0.66273,-1.97422 -0.66273,-4.40955c0,-2.43533 0.29672,-4.40956 0.66273,-4.40956c0.36601,0 0.66272,1.97423 0.66272,4.40956z" fill="none" stroke="#000000" stroke-width="4" stroke-linecap="butt"/><path d="M259.36437,188.564c0,2.43533 -0.29671,4.40955 -0.66272,4.40955c-0.36601,0 -0.66272,-1.97422 -0.66272,-4.40955c0,-2.43533 0.29672,-4.40956 0.66272,-4.40956c0.36601,0 0.66272,1.97423 0.66272,4.40956z" fill="none" stroke="#000000" stroke-width="4" stroke-linecap="butt"/><path d="M214.6968,289.21955l17.73478,-45.96323" fill="none" stroke="#212121" stroke-width="4" stroke-linecap="round"/><path d="M220.98032,290.28206c0.13293,2.77402 -3.77753,3.07959 -8.23276,3.29308c-4.45525,0.2135 -8.07258,0.26867 -8.20552,-2.50536c-0.13293,-2.77402 3.26888,-7.32677 7.72412,-7.54025c4.45525,-0.2135 8.58121,3.97852 8.71415,6.75253z" fill="#ffffff" stroke="#333333" stroke-width="4" stroke-linecap="butt"/><path d="M234.65736,250.73272l-0.67036,-31.87676" fill="none" stroke="#333333" stroke-width="4" stroke-linecap="round"/><path d="M243.78313,254.453c1.352,3.98476 -0.78225,8.31107 -4.76703,9.66309c-3.98476,1.352 -8.31107,-0.78225 -9.66309,-4.76703c-1.352,-3.98476 0.78225,-8.31107 4.76703,-9.66309c3.98476,-1.352 8.31107,0.78225 9.66309,4.76703z" fill="#ffffff" stroke="#333333" stroke-width="4" stroke-linecap="butt"/><path d="M231.61729,176.92273l16.07615,8.44381" fill="none" stroke="#000000" stroke-width="2.5" stroke-linecap="round"/></g></g></svg>