<svg version="1.1" xmlns="http://www.w3.org/2000/svg" xmlns:xlink="http://www.w3.org/1999/xlink" width="81.81907" height="143.26792" viewBox="0,0,81.81907,143.26792"><g transform="translate(-193.35143,-150.72381)"><g stroke-miterlimit="10"><path d="M224.09267,232.36361l4.97315,-11.85707l12.56801,-6.22107" fill="none" stroke="#000000" stroke-width="4" stroke-linecap="round"/><path d="M225.31321,246.10845c-3.36042,2.53255 -8.13763,1.86144 -10.67019,-1.49899c-2.53255,-3.36042 -1.86145,-8.13763 1.49899,-10.67019c3.36042,-2.53255 8.13763,-1.86144 10.67018,1.49899c2.53256,3.36043 1.86145,8.13763 -1.49898,10.67019z" fill="#cccccc" stroke="#000000" stroke-width="4" stroke-linecap="butt"/><path d="M247.52719,289.68159l-5.58929,-48.44856" fill="none" stroke="#000000" stroke-width="4" stroke-linecap="round"/><path d="M264.15776,289.32574c-0.09262,2.77565 -4.01497,2.76287 -8.47284,2.61412c-4.45788,-0.14875 -8.06776,-0.38732 -7.97514,-3.16297c0.09262,-2.77565 3.85268,-7.03733 8.31055,-6.88857c4.45787,0.14875 8.23005,4.66177 8.13743,7.43743z" fill="#cccccc" stroke="#000000" stroke-width="4" stroke-linecap="butt"/><path d="M241.17178,208.3344v32.53953" fill="none" stroke="#212121" stroke-width="4" stroke-linecap="round"/><path d="M273.17048,180c0,15.06422 -12.55309,27.27619 -28.03809,27.27619c-15.48501,0 -28.03809,-12.21197 -28.03809,-27.27619c0,-15.06422 12.55309,-27.27619 28.0381,-27.27619c15.48501,0 28.0381,12.21197 28.0381,27.27619z" fill="#ffffff" stroke="#000000" stroke-width="4" stroke-linecap="butt"/><path d="M241.18709,240.38168c0,0 -11.21083,13.98094 -18.09295,18.61313c-6.73834,4.53541 -25.76486,-1.05753 -25.76486,-1.05753" fill="none" stroke="#212121" stroke-width="4" stroke-linecap="round"/><path d="M199.38109,273.9143c-2.75036,0.38519 -3.41103,-3.48115 -4.02966,-7.89839c-0.61863,-4.41725 -1.00325,-8.0145 1.74712,-8.39969c2.75036,-0.38519 7.59418,2.58756 8.21281,7.00481c0.61863,4.41725 -3.17992,8.90809 -5.93028,9.29327z" fill="#ffffff" stroke="#333333" stroke-width="4" stroke-linecap="butt"/><path d="M209.95303,227.04056l13.80728,-10.46682l16.4611,-1.94721" fill="none" stroke="#333333" stroke-width="4" stroke-linecap="round"/><path d="M212.45649,238.9622c-2.99667,2.95402 -7.82066,2.91946 -10.77468,-0.07721c-2.95402,-2.99667 -2.91946,-7.82067 0.07721,-10.77469c2.99667,-2.95402 7.82066,-2.91946 10.77469,0.07721c2.95402,2.99667 2.91946,7.82067 -0.07722,10.77469z" fill="#ffffff" stroke="#333333" stroke-width="4" stroke-linecap="butt"/><g fill="none" stroke="#000000"><path d="M241.94364,184.94892c0,3.60782 -0.8654,6.53254 -1.93293,6.53254c-1.06753,0 -1.93296,-2.92472 -1.93296,-6.53254c0,-3.60782 0.86543,-6.53254 1.93296,-6.53254c1.06753,0 1.93293,2.92472 1.93293,6.53254z" stroke-width="2" stroke-linecap="butt"/><path d="M261.59127,166.10868l-12.6864,11.17159l-14.01183,-11.55029" stroke-width="2.5" stroke-linecap="round"/><path d="M259.39989,185.11515c0,3.60782 -0.8654,6.53254 -1.93293,6.53254c-1.06753,0 -1.93296,-2.92472 -1.93296,-6.53254c0,-3.60782 0.86543,-6.53254 1.93296,-6.53254c1.06753,0 1.93293,2.92472 1.93293,6.53254z" stroke-width="2" stroke-linecap="butt"/></g></g></g></svg>