<svg version="1.1" xmlns="http://www.w3.org/2000/svg" xmlns:xlink="http://www.w3.org/1999/xlink" width="78.02846" height="128.81993" viewBox="0,0,78.02846,128.81993"><g transform="translate(-216.3267,-165.30938)"><g stroke-miterlimit="10"><path d="M266.13073,235.48224l-18.24354,0.36975l-9.54426,-13.20811" fill="none" stroke="#000000" stroke-width="4" stroke-linecap="round"/><path d="M279.47961,229.16153c3.0236,2.92644 3.10238,7.74992 0.17591,10.77353c-2.92644,3.0236 -7.74993,3.10238 -10.77353,0.17591c-3.0236,-2.92644 -3.10238,-7.74993 -0.17591,-10.77353c2.92645,-3.0236 7.74993,-3.10237 10.77353,-0.17591z" fill="#cccccc" stroke="#000000" stroke-width="4" stroke-linecap="butt"/><path d="M235.28717,252.04979c0,0 13.52974,3.36439 15.30796,11.10152c1.85947,8.09066 -4.10971,26.27955 -4.10971,26.27955" fill="none" stroke="#000000" stroke-width="4" stroke-linecap="round"/><path d="M235.04128,252.12478c0,0 -1.49228,-17.81936 -0.21587,-23.63306c1.16306,-5.29745 10.10243,-15.43816 10.10243,-15.43816" fill="none" stroke="#212121" stroke-width="4" stroke-linecap="round"/><path d="M289.82739,206.64453c-6.40088,13.63669 -22.95334,19.35754 -36.97094,12.77787c-14.01763,-6.57967 -20.19219,-22.9683 -13.79131,-36.60497c6.40088,-13.63669 22.95334,-19.35754 36.97096,-12.77788c14.01763,6.57967 20.1922,22.9683 13.79132,36.60499z" fill="#ffffff" stroke="#000000" stroke-width="4" stroke-linecap="butt"/><path d="M225.53825,290.5942c0,0 0.69884,-19.36347 2.22076,-27.72532c1.41018,-7.74788 7.42408,-10.59475 7.42408,-10.59475" fill="none" stroke="#212121" stroke-width="4" stroke-linecap="round"/><path d="M261.18242,238.39198l-14.9902,2.77329l-9.0163,-16.54045" fill="none" stroke="#333333" stroke-width="4" stroke-linecap="round"/><g fill="none" stroke="#000000"><path d="M270.27565,198.23606c0.10543,3.60628 -0.67411,6.55504 -1.74119,6.58623c-1.06708,0.0312 -2.01761,-2.86699 -2.12304,-6.47326c-0.10543,-3.60628 0.67414,-6.55504 1.74123,-6.58623c1.06708,-0.0312 2.01758,2.86698 2.12301,6.47326z" stroke-width="2" stroke-linecap="butt"/><path d="M289.36429,178.82968l-12.3545,11.53757l-14.3434,-11.13587" stroke-width="2.5" stroke-linecap="round"/><path d="M287.72929,197.89208c0.10543,3.60628 -0.67412,6.55504 -1.7412,6.58623c-1.06708,0.0312 -2.01761,-2.86699 -2.12303,-6.47325c-0.10543,-3.60628 0.67414,-6.55505 1.74123,-6.58624c1.06708,-0.0312 2.01759,2.86698 2.12301,6.47326z" stroke-width="2" stroke-linecap="butt"/></g><path d="M262.49902,229.6283c4.15097,0.68969 6.95688,4.61384 6.26717,8.76483c-0.68969,4.15097 -4.61384,6.95688 -8.76483,6.26717c-4.15097,-0.68969 -6.95688,-4.61384 -6.26717,-8.76483c0.68969,-4.15097 4.61384,-6.95688 8.76483,-6.26717z" fill="#ffffff" stroke="#333333" stroke-width="4" stroke-linecap="butt"/><path d="M263.71011,288.8404c0,2.7772 -3.9206,2.89524 -8.38095,2.89524c-4.46036,0 -8.07619,-0.11804 -8.07619,-2.89524c0,-2.7772 3.61584,-7.1619 8.07619,-7.1619c4.46035,0 8.38095,4.3847 8.38095,7.1619z" fill="#cccccc" stroke="#000000" stroke-width="4" stroke-linecap="butt"/><path d="M234.78384,289.23407c0,2.7772 -3.9206,2.89524 -8.38095,2.89524c-4.46036,0 -8.07619,-0.11803 -8.07619,-2.89524c0,-2.7772 3.61583,-7.1619 8.07619,-7.1619c4.46036,0 8.38095,4.3847 8.38095,7.1619z" fill="#ffffff" stroke="#333333" stroke-width="4" stroke-linecap="butt"/></g></g></svg>