<svg version="1.1" xmlns="http://www.w3.org/2000/svg" xmlns:xlink="http://www.w3.org/1999/xlink" width="69.93157" height="132.54655" viewBox="0,0,69.93157,132.54655"><g transform="translate(-203.48795,-161.58275)"><g stroke-miterlimit="10"><path d="M262.74378,216.01249l-11.19461,15.33986l-15.36229,-4.39788" fill="none" stroke="#000000" stroke-width="4" stroke-linecap="round"/><path d="M271.35214,212.67768c0.55472,4.17115 -2.37697,8.00225 -6.54814,8.55697c-4.17115,0.55472 -8.00225,-2.37697 -8.55697,-6.54814c-0.55472,-4.17115 2.37698,-8.00225 6.54814,-8.55697c4.17116,-0.55472 8.00225,2.37697 8.55697,6.54814z" fill="#cccccc" stroke="#000000" stroke-width="4" stroke-linecap="butt"/><path d="M233.4503,226.96141l-5.91571,11.38861l-3.74943,2.26539" fill="none" stroke="#333333" stroke-width="4" stroke-linecap="round"/><path d="M234.68899,249.77627c0,0 10.44896,9.2218 12.14873,13.01347c2.20159,4.9111 -0.05086,24.83227 -0.05086,24.83227" fill="none" stroke="#000000" stroke-width="4" stroke-linecap="round"/><path d="M263.71011,288.8404c0,2.7772 -3.9206,2.89524 -8.38095,2.89524c-4.46036,0 -8.07619,-0.11804 -8.07619,-2.89524c0,-2.7772 3.61584,-7.1619 8.07619,-7.1619c4.46035,0 8.38095,4.3847 8.38095,7.1619z" fill="#cccccc" stroke="#000000" stroke-width="4" stroke-linecap="butt"/><path d="M234.84815,248.79803v-32.53953" fill="none" stroke="#212121" stroke-width="4" stroke-linecap="round"/><path d="M261.56413,190.85894c0,15.06422 -12.55309,27.27619 -28.03809,27.27619c-15.48501,0 -28.03809,-12.21197 -28.03809,-27.27619c0,-15.06422 12.55309,-27.27619 28.0381,-27.27619c15.48501,0 28.0381,12.21197 28.0381,27.27619z" fill="#ffffff" stroke="#000000" stroke-width="4" stroke-linecap="butt"/><path d="M227.32235,238.42032c1.29285,3.57625 -0.55821,7.52345 -4.13446,8.81631c-3.57625,1.29285 -7.52344,-0.55821 -8.8163,-4.13446c-1.29285,-3.57625 0.5582,-7.52344 4.13446,-8.8163c3.57625,-1.29285 7.52345,0.5582 8.81631,4.13446z" fill="#ffffff" stroke="#333333" stroke-width="4" stroke-linecap="butt"/><g fill="none" stroke="#000000"><path d="M227.6178,191.67526c0.34492,3.59129 -0.23691,6.58535 -1.29955,6.68741c-1.06264,0.10206 -2.20372,-2.72653 -2.54863,-6.31782c-0.34492,-3.59129 0.23694,-6.58536 1.29958,-6.68741c1.06264,-0.10206 2.20369,2.72653 2.5486,6.31783z" stroke-width="2" stroke-linecap="butt"/><path d="M245.37426,171.04295l-11.56026,12.33327l-15.05189,-10.15782" stroke-width="2.5" stroke-linecap="round"/><path d="M245.00998,190.17186c0.34492,3.59129 -0.23691,6.58535 -1.29955,6.68741c-1.06264,0.10206 -2.20372,-2.72653 -2.54863,-6.31782c-0.34492,-3.59129 0.23694,-6.58536 1.29958,-6.68741c1.06264,-0.10206 2.20369,2.72653 2.5486,6.31783z" stroke-width="2" stroke-linecap="butt"/></g><path d="M227.04559,288.25225c0,0 -1.77507,-16.04699 -0.30877,-24.10322c1.47429,-8.10011 7.95672,-14.975 7.95672,-14.975" fill="none" stroke="#212121" stroke-width="4" stroke-linecap="round"/><path d="M234.78381,289.23406c0,2.7772 -3.9206,2.89524 -8.38095,2.89524c-4.46036,0 -8.07619,-0.11803 -8.07619,-2.89524c0,-2.7772 3.61583,-7.1619 8.07619,-7.1619c4.46036,0 8.38095,4.3847 8.38095,7.1619z" fill="#ffffff" stroke="#333333" stroke-width="4" stroke-linecap="butt"/></g></g></svg>