<svg version="1.1" xmlns="http://www.w3.org/2000/svg" xmlns:xlink="http://www.w3.org/1999/xlink" width="116.6354" height="99.04009" viewBox="0,0,116.6354,99.04009"><g transform="translate(-190.4011,-196.61245)"><g stroke-miterlimit="10"><path d="M256.59942,272.33515l-19.74822,-4.28789l8.03194,-19.27086" fill="none" stroke="#000000" stroke-width="4" stroke-linecap="round"/><path d="M270.44462,271.95086c1.92628,3.74108 0.45508,8.3354 -3.28601,10.26167c-3.74108,1.92628 -8.3354,0.45509 -10.26168,-3.28601c-1.92628,-3.74108 -0.45508,-8.33541 3.28601,-10.26168c3.74109,-1.92628 8.3354,-0.45508 10.26168,3.28601z" fill="#cccccc" stroke="#000000" stroke-width="4" stroke-linecap="butt"/><path d="M223.70537,258.3778c0,0 8.15693,26.60655 11.78527,31.67571c3.39748,4.74664 -30.30267,-8.79017 -30.30267,-8.79017" fill="none" stroke="#000000" stroke-width="4" stroke-linecap="round"/><path d="M192.44799,286.33362c-0.51665,-2.72872 3.31356,-3.57405 7.69605,-4.40382c4.3825,-0.82977 7.95717,-1.38644 8.47382,1.34228c0.51665,2.72872 -2.22039,7.70954 -6.60288,8.5393c-4.38249,0.82976 -9.05034,-2.74904 -9.56699,-5.47776z" fill="#cccccc" stroke="#000000" stroke-width="4" stroke-linecap="butt"/><path d="M223.85202,258.72119l31.10844,-16.25118" fill="none" stroke="#212121" stroke-width="4" stroke-linecap="round"/><path d="M298.59707,244.47236c-9.80947,11.43263 -27.28848,12.52634 -39.04046,2.44287c-11.75198,-10.08347 -13.3267,-27.52573 -3.51723,-38.95836c9.80947,-11.43263 27.28848,-12.52634 39.04047,-2.44287c11.75198,10.08347 13.32671,27.52574 3.51724,38.95837z" fill="#ffffff" stroke="#000000" stroke-width="4" stroke-linecap="butt"/><path d="M277.26387,228.61367c-0.08507,3.22759 -0.45067,5.83782 -0.81658,5.8301c-0.36591,-0.00772 -0.59358,-2.63047 -0.50851,-5.85806c0.08507,-3.22759 0.45068,-5.83782 0.81659,-5.8301c0.36591,0.00772 0.59357,2.63047 0.5085,5.85806z" fill="none" stroke="#000000" stroke-width="4" stroke-linecap="butt"/><path d="M293.99705,229.03571c-0.08507,3.22759 -0.45067,5.83782 -0.81658,5.8301c-0.36591,-0.00772 -0.59357,-2.63047 -0.5085,-5.85806c0.08507,-3.22759 0.45068,-5.83782 0.81658,-5.8301c0.36591,0.00772 0.59357,2.63047 0.5085,5.85806z" fill="none" stroke="#000000" stroke-width="4" stroke-linecap="butt"/><path d="M225.04769,259.9429c0,0 23.00518,30.99831 15.20122,31.99961c-8.43535,1.08232 -33.73213,-9.13258 -33.73213,-9.13258" fill="none" stroke="#212121" stroke-width="4" stroke-linecap="round"/><path d="M193.00853,291.28866c-1.6004,-2.2697 1.53573,-4.62548 5.181,-7.19583c3.64529,-2.57036 6.66839,-4.55757 8.2688,-2.28786c1.6004,2.2697 1.17208,7.93682 -2.47321,10.50718c-3.64529,2.57036 -9.37619,1.24621 -10.97659,-1.02349z" fill="#ffffff" stroke="#333333" stroke-width="4" stroke-linecap="butt"/><path d="M267.50747,281.9635l-15.38498,-12.87161l-9.55868,-20.46101" fill="none" stroke="#333333" stroke-width="4" stroke-linecap="round"/><path d="M278.72463,290.71852c-2.58765,3.31818 -7.37528,3.91039 -10.69347,1.32273c-3.31818,-2.58765 -3.91039,-7.37528 -1.32273,-10.69347c2.58765,-3.31818 7.37528,-3.91039 10.69347,-1.32273c3.31818,2.58765 3.91039,7.37528 1.32273,10.69347z" fill="#ffffff" stroke="#333333" stroke-width="4" stroke-linecap="butt"/><path d="M282.31528,220.48736l-20.52879,-6.31678" fill="none" stroke="#000000" stroke-width="2.5" stroke-linecap="round"/><path d="M276.27531,235.30517l-4.89231,-0.32615" fill="none" stroke="#000000" stroke-width="2.5" stroke-linecap="round"/></g></g></svg>