<svg version="1.1" xmlns="http://www.w3.org/2000/svg" xmlns:xlink="http://www.w3.org/1999/xlink" width="61.93112" height="145.47502" viewBox="0,0,61.93112,145.47502"><g transform="translate(-209.72211,-144.17946)"><g data-paper-data="{&quot;isPaintingLayer&quot;:true}" fill-rule="nonzero" stroke="#000000" stroke-width="4" stroke-linejoin="miter" stroke-miterlimit="10" stroke-dasharray="" stroke-dashoffset="0" style="mix-blend-mode: normal"><g><path d="M218.14087,236.2636l-0.41471,-16.50707l17.96533,-4.86199" fill="none" stroke-linecap="round"/><path d="M221.5489,250.26001c-4.15071,0.6913 -8.07596,-2.11306 -8.76726,-6.26378c-0.69131,-4.15071 2.11308,-8.07594 6.26379,-8.76726c4.15071,-0.6913 8.07594,2.11308 8.76725,6.26378c0.69131,4.15071 -2.11306,8.07596 -6.26378,8.76725z" fill="#ffffff" stroke-linecap="butt"/></g><path d="M235.51518,236.86937l-8.75157,46.38401" fill="none" stroke-linecap="round"/><path d="M236.65677,236.78665c0,0 16.53163,13.73449 14.67083,21.40999c-1.46223,6.03145 -20.39118,8.71074 -20.39118,8.71074" fill="none" stroke-linecap="round"/><path d="M242.12024,285.78813c-0.6189,2.70735 -4.46721,1.94873 -8.81539,0.95473c-4.3482,-0.99399 -7.84679,-1.91485 -7.22789,-4.62221c0.6189,-2.70735 5.12093,-6.17602 9.46912,-5.18203c4.3482,0.99399 7.19306,6.14212 6.57417,8.8495z" fill="#ffffff" stroke-linecap="butt"/><path d="M240.89752,279.14692c-1.9142,2.01213 -4.83611,-0.60464 -8.0677,-3.67896c-3.23161,-3.07433 -5.76998,-5.65209 -3.85579,-7.66422c1.9142,-2.01213 7.55613,-2.69668 10.78773,0.37764c3.23161,3.07433 3.04995,8.95341 1.13576,10.96554z" fill="#ffffff" stroke-linecap="butt"/><path d="M236.12167,202.77884v32.53953" fill="none" stroke-linecap="round"/><path d="M267.79829,173.45565c0,15.06422 -12.55309,27.27619 -28.03809,27.27619c-15.48501,0 -28.03809,-12.21197 -28.03809,-27.27619c0,-15.06422 12.55309,-27.27619 28.0381,-27.27619c15.48501,0 28.0381,12.21197 28.0381,27.27619z" fill="#ffffff" stroke-linecap="butt"/><g fill="none" stroke-linecap="butt"><path d="M237.80946,176.36908c0,3.60782 -0.29671,6.53254 -0.66272,6.53254c-0.36601,0 -0.66273,-2.92472 -0.66273,-6.53254c0,-3.60782 0.29672,-6.53254 0.66273,-6.53254c0.36601,0 0.66272,2.92472 0.66272,6.53254z"/><path d="M254.54911,176.446c0,3.60782 -0.29671,6.53254 -0.66272,6.53254c-0.36601,0 -0.66272,-2.92472 -0.66272,-6.53254c0,-3.60782 0.29672,-6.53254 0.66272,-6.53254c0.36601,0 0.66272,2.92472 0.66272,6.53254z"/></g><g><path d="M259.47104,227.37681l-14.41024,6.0006l-7.9053,-17.90495" fill="none" stroke-linecap="round"/><path d="M265.06941,218.02593c3.85911,1.67739 5.62775,6.16559 3.95035,10.0247c-1.67739,3.85911 -6.16558,5.62774 -10.02469,3.95034c-3.85911,-1.67739 -5.62775,-6.16559 -3.95036,-10.0247c1.67739,-3.85911 6.16558,-5.62774 10.02469,-3.95034z" fill="#ffffff" stroke-linecap="butt"/></g></g></g></svg>