<svg version="1.1" xmlns="http://www.w3.org/2000/svg" xmlns:xlink="http://www.w3.org/1999/xlink" width="60.0762" height="144.19914" viewBox="0,0,60.0762,144.19914"><g transform="translate(-207.58098,-149.93016)"><g data-paper-data="{&quot;isPaintingLayer&quot;:true}" fill-rule="nonzero" stroke="#000000" stroke-linejoin="miter" stroke-miterlimit="10" stroke-dasharray="" stroke-dashoffset="0" style="mix-blend-mode: normal"><g><path d="M265.65716,179.20635c0,15.06422 -12.55309,27.27619 -28.03809,27.27619c-15.48501,0 -28.03809,-12.21197 -28.03809,-27.27619c0,-15.06422 12.55309,-27.27619 28.0381,-27.27619c15.48501,0 28.0381,12.21197 28.0381,27.27619z" fill="#ffffff" stroke-width="4" stroke-linecap="butt"/><g fill="none"><path d="M235.6683,182.971c0,3.60782 -0.29671,6.53254 -0.66272,6.53254c-0.36601,0 -0.66273,-2.92472 -0.66273,-6.53254c0,-3.60782 0.29672,-6.53254 0.66273,-6.53254c0.36601,0 0.66272,2.92472 0.66272,6.53254z" stroke-width="4" stroke-linecap="butt"/><path d="M252.40795,183.04792c0,3.60782 -0.29671,6.53254 -0.66272,6.53254c-0.36601,0 -0.66272,-2.92472 -0.66272,-6.53254c0,-3.60782 0.29672,-6.53254 0.66272,-6.53254c0.36601,0 0.66272,2.92472 0.66272,6.53254z" stroke-width="4" stroke-linecap="butt"/><path d="M256.30733,164.13076l-12.6864,11.17159l-14.01183,-11.55029" stroke-width="2.5" stroke-linecap="round"/></g></g><g stroke-width="4"><path d="M234.67688,240.17935l-7.63143,48.0729" fill="none" stroke-linecap="round"/><path d="M235.06917,240.48809l11.71758,47.13392" fill="none" stroke-linecap="round"/><path d="M234.78368,289.23406c0,2.7772 -3.9206,2.89524 -8.38095,2.89524c-4.46036,0 -8.07619,-0.11803 -8.07619,-2.89524c0,-2.7772 3.61583,-7.1619 8.07619,-7.1619c4.46036,0 8.38095,4.3847 8.38095,7.1619z" fill="#ffffff" stroke-linecap="butt"/><path d="M262.59199,288.8404c0,2.7772 -3.9206,2.89524 -8.38095,2.89524c-4.46036,0 -8.07619,-0.11804 -8.07619,-2.89524c0,-2.7772 3.61584,-7.1619 8.07619,-7.1619c4.46035,0 8.38095,4.3847 8.38095,7.1619z" fill="#ffffff" stroke-linecap="butt"/></g><g stroke-width="4"><path d="M253.68746,251.81582c0,4.20788 -3.41116,7.61905 -7.61905,7.61905c-4.20788,0 -7.61905,-3.41116 -7.61905,-7.61905c0,-4.20788 3.41117,-7.61905 7.61905,-7.61905c4.20789,0 7.61905,3.41116 7.61905,7.61905z" fill="#ffffff" stroke-linecap="butt"/><path d="M225.37889,246.15159l9.60733,-30.40191l10.09253,28.95623" fill="none" stroke-linecap="round"/><path d="M231.48787,252.54413c0,4.20788 -3.41116,7.61905 -7.61905,7.61905c-4.20788,0 -7.61905,-3.41116 -7.61905,-7.61905c0,-4.20788 3.41116,-7.61905 7.61905,-7.61905c4.20788,0 7.61905,3.41116 7.61905,7.61905z" fill="#ffffff" stroke-linecap="butt"/></g><path d="M235.24571,240.47711v-32.53953" fill="none" stroke-width="4" stroke-linecap="round"/></g></g></svg>