<svg version="1.1" xmlns="http://www.w3.org/2000/svg" xmlns:xlink="http://www.w3.org/1999/xlink" width="121.3216" height="97.37981" viewBox="0,0,121.3216,97.37981"><g transform="translate(-185.68324,-197.93729)"><g stroke-miterlimit="10"><path d="M263.27657,281.35272l-21.08365,-8.29421l2.6902,-21.49658" fill="none" stroke="#000000" stroke-width="4" stroke-linecap="round"/><path d="M276.67664,280.07813c1.92628,3.74108 0.45508,8.3354 -3.28601,10.26167c-3.74108,1.92628 -8.3354,0.45509 -10.26168,-3.28601c-1.92628,-3.74108 -0.45508,-8.33541 3.28601,-10.26168c3.74109,-1.92628 8.3354,-0.45508 10.26168,3.28601z" fill="#cccccc" stroke="#000000" stroke-width="4" stroke-linecap="butt"/><path d="M223.70534,261.16332c0,0 18.32113,24.96758 21.94947,30.03674c3.39748,4.74664 -30.01942,-10.57074 -30.01942,-10.57074" fill="none" stroke="#000000" stroke-width="4" stroke-linecap="round"/><path d="M202.6863,284.90372c-0.51665,-2.72872 3.31356,-3.57405 7.69605,-4.40382c4.3825,-0.82977 7.95717,-1.38644 8.47382,1.34228c0.51665,2.72872 -2.22039,7.70954 -6.60288,8.5393c-4.38249,0.82976 -9.05034,-2.74904 -9.56699,-5.47776z" fill="#cccccc" stroke="#000000" stroke-width="4" stroke-linecap="butt"/><path d="M224.42132,260.08635l29.29809,-15.78858" fill="none" stroke="#212121" stroke-width="4" stroke-linecap="round"/><path d="M298.5654,245.79719c-9.80947,11.43263 -27.28848,12.52634 -39.04046,2.44287c-11.75198,-10.08347 -13.3267,-27.52573 -3.51723,-38.95836c9.80947,-11.43263 27.28848,-12.52634 39.04047,-2.44287c11.75198,10.08347 13.32671,27.52574 3.51724,38.95837z" fill="#ffffff" stroke="#000000" stroke-width="4" stroke-linecap="butt"/><path d="M277.23219,229.9385c-0.08507,3.22759 -0.45067,5.83782 -0.81658,5.8301c-0.36591,-0.00772 -0.59358,-2.63047 -0.50851,-5.85806c0.08507,-3.22759 0.45068,-5.83782 0.81659,-5.8301c0.36591,0.00772 0.59357,2.63047 0.5085,5.85806z" fill="none" stroke="#000000" stroke-width="4" stroke-linecap="butt"/><path d="M293.96537,230.36054c-0.08507,3.22759 -0.45067,5.83782 -0.81658,5.8301c-0.36591,-0.00772 -0.59357,-2.63047 -0.5085,-5.85806c0.08507,-3.22759 0.45068,-5.83782 0.81658,-5.8301c0.36591,0.00772 0.59357,2.63047 0.5085,5.85806z" fill="none" stroke="#000000" stroke-width="4" stroke-linecap="butt"/><path d="M225.04766,262.72843c0,0 14.54742,28.07112 6.74346,29.07242c-8.43535,1.08232 -31.5064,-9.32141 -31.5064,-9.32141" fill="none" stroke="#212121" stroke-width="4" stroke-linecap="round"/><path d="M188.11191,292.29361c-1.6004,-2.2697 1.53573,-4.62548 5.181,-7.19583c3.64529,-2.57036 6.66839,-4.55757 8.2688,-2.28786c1.6004,2.2697 1.17208,7.93682 -2.47321,10.50718c-3.64529,2.57036 -9.37619,1.24621 -10.97659,-1.02349z" fill="#ffffff" stroke="#333333" stroke-width="4" stroke-linecap="butt"/><path d="M259.93998,278.96213l-16.27528,-7.08472l-1.10092,-20.46101" fill="none" stroke="#333333" stroke-width="4" stroke-linecap="round"/><path d="M273.82803,285.9366c-2.58765,3.31818 -7.37528,3.91039 -10.69347,1.32273c-3.31818,-2.58765 -3.91039,-7.37528 -1.32273,-10.69347c2.58765,-3.31818 7.37528,-3.91039 10.69347,-1.32273c3.31818,2.58765 3.91039,7.37528 1.32273,10.69347z" fill="#ffffff" stroke="#333333" stroke-width="4" stroke-linecap="butt"/><path d="M261.75481,215.49541l20.52879,6.31678" fill="none" stroke="#000000" stroke-width="2.5" stroke-linecap="round"/><path d="M276.24364,236.63l-4.89231,-0.32615" fill="none" stroke="#000000" stroke-width="2.5" stroke-linecap="round"/></g></g></svg>