<svg version="1.1" xmlns="http://www.w3.org/2000/svg" xmlns:xlink="http://www.w3.org/1999/xlink" width="60.0762" height="144.95984" viewBox="0,0,60.0762,144.95984"><g transform="translate(-209.02931,-149.16946)"><g data-paper-data="{&quot;isPaintingLayer&quot;:true}" fill-rule="nonzero" stroke-linejoin="miter" stroke-miterlimit="10" stroke-dasharray="" stroke-dashoffset="0" style="mix-blend-mode: normal"><path d="M235.56682,212.62191l9.2412,28.65134" fill="none" stroke="#000000" stroke-width="4" stroke-linecap="round"/><path d="M254.00217,248.3743c0.40257,4.18858 -2.6666,7.91045 -6.85519,8.31301c-4.18858,0.40257 -7.91045,-2.6666 -8.31301,-6.85519c-0.40257,-4.18858 2.66661,-7.91045 6.85519,-8.31301c4.18859,-0.40257 7.91045,2.6666 8.31301,6.85519z" fill="#cccccc" stroke="#000000" stroke-width="4" stroke-linecap="butt"/><path d="M263.71007,288.8404c0,2.7772 -3.9206,2.89524 -8.38095,2.89524c-4.46036,0 -8.07619,-0.11804 -8.07619,-2.89524c0,-2.7772 3.61584,-7.1619 8.07619,-7.1619c4.46035,0 8.38095,4.3847 8.38095,7.1619z" fill="#cccccc" stroke="#000000" stroke-width="4" stroke-linecap="butt"/><path d="M246.78678,287.62201l-11.54567,-47.53074" fill="none" stroke="#000000" stroke-width="4" stroke-linecap="round"/><path d="M235.10678,239.31958v-32.53953" fill="none" stroke="#212121" stroke-width="4" stroke-linecap="round"/><g stroke="#000000"><path d="M267.10549,178.44565c0,15.06422 -12.55309,27.27619 -28.03809,27.27619c-15.48501,0 -28.03809,-12.21197 -28.03809,-27.27619c0,-15.06422 12.55309,-27.27619 28.0381,-27.27619c15.48501,0 28.0381,12.21197 28.0381,27.27619z" fill="#ffffff" stroke-width="4" stroke-linecap="butt"/><g fill="none"><path d="M237.11667,182.2103c0,3.60782 -0.29671,6.53254 -0.66272,6.53254c-0.36601,0 -0.66273,-2.92472 -0.66273,-6.53254c0,-3.60782 0.29672,-6.53254 0.66273,-6.53254c0.36601,0 0.66272,2.92472 0.66272,6.53254z" stroke-width="4" stroke-linecap="butt"/><path d="M253.85632,182.28722c0,3.60782 -0.29671,6.53254 -0.66272,6.53254c-0.36601,0 -0.66272,-2.92472 -0.66272,-6.53254c0,-3.60782 0.29672,-6.53254 0.66272,-6.53254c0.36601,0 0.66272,2.92472 0.66272,6.53254z" stroke-width="4" stroke-linecap="butt"/><path d="M257.75566,163.37006l-12.6864,11.17159l-14.01183,-11.55029" stroke-width="2.5" stroke-linecap="round"/></g></g><path d="M235.24565,239.78252l-8.20016,48.46973" fill="none" stroke="#212121" stroke-width="4" stroke-linecap="round"/><path d="M234.78372,289.23406c0,2.7772 -3.9206,2.89524 -8.38095,2.89524c-4.46036,0 -8.07619,-0.11803 -8.07619,-2.89524c0,-2.7772 3.61583,-7.1619 8.07619,-7.1619c4.46036,0 8.38095,4.3847 8.38095,7.1619z" fill="#ffffff" stroke="#333333" stroke-width="4" stroke-linecap="butt"/><path d="M227.50612,244.14405l6.49051,-31.21618" fill="none" stroke="#333333" stroke-width="4" stroke-linecap="round"/><path d="M235.56604,249.81487c0.4246,4.1864 -2.62493,7.92437 -6.81134,8.34898c-4.1864,0.4246 -7.92437,-2.62493 -8.34898,-6.81134c-0.4246,-4.1864 2.62493,-7.92437 6.81134,-8.34898c4.1864,-0.4246 7.92437,2.62493 8.34898,6.81134z" fill="#ffffff" stroke="#333333" stroke-width="4" stroke-linecap="butt"/></g></g></svg>