<svg version="1.1" xmlns="http://www.w3.org/2000/svg" xmlns:xlink="http://www.w3.org/1999/xlink" width="114.47236" height="98.35829" viewBox="0,0,114.47236,98.35829"><g transform="translate(-192.85861,-198.23067)"><g stroke-miterlimit="10"><path d="M277.62732,276.75378l-17.92408,-8.76359l-16.1248,-17.11334" fill="none" stroke="#000000" stroke-width="4" stroke-linecap="round"/><path d="M292.98434,277.10996c1.92628,3.74108 0.45508,8.3354 -3.28601,10.26167c-3.74108,1.92628 -8.3354,0.45509 -10.26168,-3.28601c-1.92628,-3.74108 -0.45508,-8.33541 3.28601,-10.26168c3.74109,-1.92628 8.3354,-0.45508 10.26168,3.28601z" fill="#cccccc" stroke="#000000" stroke-width="4" stroke-linecap="butt"/><path d="M223.70531,259.17363c0,0 20.09547,26.2722 23.72381,31.34136c3.39748,4.74664 -31.79377,-10.89689 -31.79377,-10.89689" fill="none" stroke="#000000" stroke-width="4" stroke-linecap="round"/><path d="M200.07703,284.54479c-0.51665,-2.72872 3.31356,-3.57405 7.69605,-4.40382c4.3825,-0.82977 7.95717,-1.38644 8.47382,1.34228c0.51665,2.72872 -2.22039,7.70954 -6.60288,8.5393c-4.38249,0.82976 -9.05034,-2.74904 -9.56699,-5.47776z" fill="#cccccc" stroke="#000000" stroke-width="4" stroke-linecap="butt"/><path d="M224.4213,258.09664l30.60271,-12.85318" fill="none" stroke="#212121" stroke-width="4" stroke-linecap="round"/><path d="M298.89153,246.09057c-9.80947,11.43263 -27.28848,12.52634 -39.04046,2.44287c-11.75198,-10.08347 -13.3267,-27.52573 -3.51723,-38.95836c9.80947,-11.43263 27.28848,-12.52634 39.04047,-2.44287c11.75198,10.08347 13.32671,27.52574 3.51724,38.95837z" fill="#ffffff" stroke="#000000" stroke-width="4" stroke-linecap="butt"/><path d="M277.55832,230.23188c-0.08507,3.22759 -0.45067,5.83782 -0.81658,5.8301c-0.36591,-0.00772 -0.59358,-2.63047 -0.50851,-5.85806c0.08507,-3.22759 0.45068,-5.83782 0.81659,-5.8301c0.36591,0.00772 0.59357,2.63047 0.5085,5.85806z" fill="none" stroke="#000000" stroke-width="4" stroke-linecap="butt"/><path d="M294.2915,230.65392c-0.08507,3.22759 -0.45067,5.83782 -0.81658,5.8301c-0.36591,-0.00772 -0.59357,-2.63047 -0.5085,-5.85806c0.08507,-3.22759 0.45068,-5.83782 0.81658,-5.8301c0.36591,0.00772 0.59357,2.63047 0.5085,5.85806z" fill="none" stroke="#000000" stroke-width="4" stroke-linecap="butt"/><path d="M225.04763,260.73874c0,0 17.91977,29.59109 10.11581,30.59239c-8.43535,1.08232 -31.29105,-5.94907 -31.29105,-5.94907" fill="none" stroke="#212121" stroke-width="4" stroke-linecap="round"/><path d="M195.28728,293.56547c-1.6004,-2.2697 1.53573,-4.62548 5.181,-7.19583c3.64529,-2.57036 6.66839,-4.55757 8.2688,-2.28786c1.6004,2.2697 1.17208,7.93682 -2.47321,10.50718c-3.64529,2.57036 -9.37619,1.24621 -10.97659,-1.02349z" fill="#ffffff" stroke="#333333" stroke-width="4" stroke-linecap="butt"/><path d="M247.87225,279.58168l-13.01373,-8.71548l8.35757,-20.78716" fill="none" stroke="#333333" stroke-width="4" stroke-linecap="round"/><path d="M260.52747,289.45249c-2.58765,3.31818 -7.37528,3.91039 -10.69347,1.32273c-3.31818,-2.58765 -3.91039,-7.37528 -1.32273,-10.69347c2.58765,-3.31818 7.37528,-3.91039 10.69347,-1.32273c3.31818,2.58765 3.91039,7.37528 1.32273,10.69347z" fill="#ffffff" stroke="#333333" stroke-width="4" stroke-linecap="butt"/><path d="M262.08094,215.78879l20.52879,6.31678" fill="none" stroke="#000000" stroke-width="2.5" stroke-linecap="round"/><path d="M271.67748,236.59723l4.89231,0.32615" fill="none" stroke="#000000" stroke-width="2.5" stroke-linecap="round"/></g></g></svg>