<svg version="1.1" xmlns="http://www.w3.org/2000/svg" xmlns:xlink="http://www.w3.org/1999/xlink" width="60.0762" height="144.3381" viewBox="0,0,60.0762,144.3381"><g transform="translate(-208.09672,-149.7912)"><g data-paper-data="{&quot;isPaintingLayer&quot;:true}" fill-rule="nonzero" stroke-linejoin="miter" stroke-miterlimit="10" stroke-dasharray="" stroke-dashoffset="0" style="mix-blend-mode: normal"><path d="M243.54798,241.88878l-7.79525,-29.07805" fill="none" stroke="#000000" stroke-width="4" stroke-linecap="round"/><path d="M252.71416,249.16135c0.19237,4.20347 -3.05928,7.76704 -7.26278,7.95941c-4.20347,0.19237 -7.76704,-3.05928 -7.95941,-7.26278c-0.19237,-4.20347 3.05929,-7.76704 7.26278,-7.95941c4.20348,-0.19237 7.76704,3.05928 7.95941,7.26278z" fill="#cccccc" stroke="#000000" stroke-width="4" stroke-linecap="butt"/><path d="M263.71009,288.8404c0,2.7772 -3.9206,2.89524 -8.38095,2.89524c-4.46036,0 -8.07619,-0.11804 -8.07619,-2.89524c0,-2.7772 3.61584,-7.1619 8.07619,-7.1619c4.46035,0 8.38095,4.3847 8.38095,7.1619z" fill="#cccccc" stroke="#000000" stroke-width="4" stroke-linecap="butt"/><path d="M246.7868,287.62201l-12.47828,-46.59813" fill="none" stroke="#000000" stroke-width="4" stroke-linecap="round"/><path d="M234.17421,239.94132v-32.53953" fill="none" stroke="#212121" stroke-width="4" stroke-linecap="round"/><g stroke="#000000"><path d="M266.1729,179.06739c0,15.06422 -12.55309,27.27619 -28.03809,27.27619c-15.48501,0 -28.03809,-12.21197 -28.03809,-27.27619c0,-15.06422 12.55309,-27.27619 28.0381,-27.27619c15.48501,0 28.0381,12.21197 28.0381,27.27619z" fill="#ffffff" stroke-width="4" stroke-linecap="butt"/><g fill="none"><path d="M236.1841,182.83204c0,3.60782 -0.29671,6.53254 -0.66272,6.53254c-0.36601,0 -0.66273,-2.92472 -0.66273,-6.53254c0,-3.60782 0.29672,-6.53254 0.66273,-6.53254c0.36601,0 0.66272,2.92472 0.66272,6.53254z" stroke-width="4" stroke-linecap="butt"/><path d="M252.92375,182.90896c0,3.60782 -0.29671,6.53254 -0.66272,6.53254c-0.36601,0 -0.66272,-2.92472 -0.66272,-6.53254c0,-3.60782 0.29672,-6.53254 0.66272,-6.53254c0.36601,0 0.66272,2.92472 0.66272,6.53254z" stroke-width="4" stroke-linecap="butt"/><path d="M256.82308,163.9918l-12.6864,11.17159l-14.01183,-11.55029" stroke-width="2.5" stroke-linecap="round"/></g></g><path d="M227.04552,288.25225l7.26755,-48.15886" fill="none" stroke="#212121" stroke-width="4" stroke-linecap="round"/><path d="M234.78375,289.23406c0,2.7772 -3.9206,2.89524 -8.38095,2.89524c-4.46036,0 -8.07619,-0.11803 -8.07619,-2.89524c0,-2.7772 3.61583,-7.1619 8.07619,-7.1619c4.46036,0 8.38095,4.3847 8.38095,7.1619z" fill="#ffffff" stroke="#333333" stroke-width="4" stroke-linecap="butt"/><path d="M228.05441,244.41637l4.49157,-31.56584" fill="none" stroke="#333333" stroke-width="4" stroke-linecap="round"/><path d="M236.76005,249.24283c0.69005,4.15091 -2.11551,8.07531 -6.26643,8.76537c-4.15091,0.69005 -8.07531,-2.11551 -8.76537,-6.26643c-0.69005,-4.15091 2.11551,-8.07531 6.26643,-8.76537c4.15091,-0.69005 8.07531,2.11551 8.76537,6.26643z" fill="#ffffff" stroke="#333333" stroke-width="4" stroke-linecap="butt"/></g></g></svg>