<svg version="1.1" xmlns="http://www.w3.org/2000/svg" xmlns:xlink="http://www.w3.org/1999/xlink" width="102.98688" height="107.31968" viewBox="0,0,102.98688,107.31968"><g transform="translate(-193.46398,-186.24029)"><g stroke-miterlimit="10"><path d="M236.30255,262.42759l-10.13931,-14.74927l16.12173,-7.53419" fill="none" stroke="#000000" stroke-width="4" stroke-linecap="round"/><path d="M248.15008,271.46807c-2.58765,3.31818 -7.37528,3.91039 -10.69347,1.32273c-3.31818,-2.58765 -3.91039,-7.37528 -1.32273,-10.69347c2.58765,-3.31818 7.37529,-3.91039 10.69347,-1.32273c3.31818,2.58766 3.91039,7.37528 1.32273,10.69347z" fill="#cccccc" stroke="#000000" stroke-width="4" stroke-linecap="butt"/><path d="M223.3715,259.89469c0,0 9.67276,16.10429 13.69484,20.86706c3.76619,4.45974 -28.97236,3.81359 -28.97236,3.81359" fill="none" stroke="#000000" stroke-width="4" stroke-linecap="round"/><path d="M195.51086,283.39973c-0.51665,-2.72872 3.31356,-3.57405 7.69605,-4.40382c4.3825,-0.82977 7.95717,-1.38644 8.47382,1.34228c0.51665,2.72872 -2.22039,7.70954 -6.60288,8.5393c-4.38249,0.82976 -9.05034,-2.74904 -9.56699,-5.47776z" fill="#cccccc" stroke="#000000" stroke-width="4" stroke-linecap="butt"/><path d="M224.08708,259.46223l21.18898,-24.69511" fill="none" stroke="#212121" stroke-width="4" stroke-linecap="round"/><path d="M288.01142,234.1002c-9.80947,11.43263 -27.28848,12.52634 -39.04046,2.44287c-11.75198,-10.08347 -13.3267,-27.52573 -3.51723,-38.95836c9.80947,-11.43263 27.28848,-12.52634 39.04047,-2.44287c11.75198,10.08347 13.32671,27.52574 3.51724,38.95837z" fill="#ffffff" stroke="#000000" stroke-width="4" stroke-linecap="butt"/><g fill="none" stroke="#000000"><path d="M266.6782,218.9298c-0.08507,3.60682 -0.45067,6.52373 -0.81658,6.5151c-0.36591,-0.00863 -0.59358,-2.93953 -0.50851,-6.54635c0.08507,-3.60682 0.45068,-6.52373 0.81659,-6.5151c0.36591,0.00863 0.59357,2.93953 0.5085,6.54635z" stroke-width="4" stroke-linecap="butt"/><path d="M283.41138,219.40143c-0.08507,3.60682 -0.45067,6.52373 -0.81658,6.5151c-0.36591,-0.00863 -0.59357,-2.93953 -0.5085,-6.54635c0.08507,-3.60682 0.45068,-6.52373 0.81658,-6.5151c0.36591,0.00863 0.59357,2.93953 0.5085,6.54635z" stroke-width="4" stroke-linecap="butt"/><path d="M287.75571,200.58148l-12.9463,10.86933l-13.73557,-11.87748" stroke-width="2.5" stroke-linecap="round"/></g><path d="M223.98538,259.58594c0,0 28.72121,-3.05832 27.31233,4.68244c-1.52287,8.36704 -24.25218,23.98387 -24.25218,23.98387" fill="none" stroke="#212121" stroke-width="4" stroke-linecap="round"/><path d="M223.91303,257.84407l-1.22766,-17.41888l17.44538,-0.34221" fill="none" stroke="#333333" stroke-width="4" stroke-linecap="round"/><path d="M231.60416,268.73235c-2.58765,3.31818 -7.37528,3.91039 -10.69347,1.32273c-3.31818,-2.58765 -3.91039,-7.37528 -1.32273,-10.69347c2.58765,-3.31818 7.37528,-3.91039 10.69347,-1.32273c3.31818,2.58765 3.91039,7.37528 1.32273,10.69347z" fill="#ffffff" stroke="#333333" stroke-width="4" stroke-linecap="butt"/><path d="M242.75427,288.66474c0,2.7772 -3.9206,2.89524 -8.38095,2.89524c-4.46036,0 -8.07619,-0.11803 -8.07619,-2.89524c0,-2.7772 3.61583,-7.1619 8.07619,-7.1619c4.46036,0 8.38095,4.3847 8.38095,7.1619z" fill="#ffffff" stroke="#333333" stroke-width="4" stroke-linecap="butt"/></g></g></svg>