<svg version="1.1" xmlns="http://www.w3.org/2000/svg" xmlns:xlink="http://www.w3.org/1999/xlink" width="100.73113" height="124.23721" viewBox="0,0,100.73113,124.23721"><g transform="translate(-206.20936,-171.06603)"><g stroke-width="4" stroke-miterlimit="10"><path d="M291.08668,219.11931c-9.90983,11.34575 -27.39781,12.28539 -39.06047,2.09875c-11.66266,-10.18665 -13.08362,-27.6421 -3.17378,-38.98785c9.90983,-11.34575 27.39781,-12.28539 39.06048,-2.09874c11.66266,10.18665 13.08363,27.6421 3.17379,38.98785z" fill="#ffffff" stroke="#000000" stroke-linecap="butt"/><path d="M226.13606,230.92208l1.48151,-14.73473l23.80109,6.35533" fill="none" stroke="#000000" stroke-linecap="round"/><path d="M227.20306,243.1673c-3.96977,-1.39541 -6.0567,-5.74475 -4.66129,-9.71453c1.39541,-3.96977 5.74475,-6.05671 9.71453,-4.66129c3.96977,1.39541 6.0567,5.74476 4.66129,9.71453c-1.39541,3.96978 -5.74475,6.05671 -9.71453,4.66129z" fill="#cccccc" stroke="#000000" stroke-linecap="butt"/><path d="M235.8629,240.09127c0,0 20.2391,6.57274 22.09089,14.63002c1.78722,7.77632 -36.40666,-0.26307 -36.40666,-0.26307" fill="none" stroke="#000000" stroke-linecap="round"/><path d="M208.90457,266.19909c-1.99802,-1.92892 0.64013,-4.83154 3.7381,-8.04048c3.09797,-3.20895 5.69429,-5.72833 7.69232,-3.79941c1.99802,1.92892 2.64114,7.57572 -0.45682,10.78466c-3.09796,3.20895 -8.97556,2.98416 -10.97359,1.05523z" fill="#cccccc" stroke="#000000" stroke-linecap="butt"/><path d="M235.02582,239.8696l21.40577,-24.50743" fill="none" stroke="#212121" stroke-linecap="round"/><path d="M232.57439,289.20664c0,0 0.88179,-17.63774 1.30326,-26.06801c0.39706,-7.94212 1.15671,-23.13656 1.15671,-23.13656" fill="none" stroke="#212121" stroke-linecap="round"/><path d="M247.11014,290.408c0,2.7772 -3.9206,2.89524 -8.38095,2.89524c-4.46036,0 -8.07619,-0.11803 -8.07619,-2.89524c0,-2.7772 3.61583,-7.1619 8.07619,-7.1619c4.46036,0 8.38095,4.3847 8.38095,7.1619z" fill="#ffffff" stroke="#333333" stroke-linecap="butt"/><path d="M251.33024,222.53542l20.14273,-1.28096l17.59815,2.18385" fill="none" stroke="#333333" stroke-linecap="round"/><path d="M295.45268,214.80296c4.03023,-1.20974 8.27807,1.07674 9.4878,5.10698c1.20974,4.03023 -1.07673,8.27807 -5.10698,9.4878c-4.03023,1.20974 -8.27807,-1.07673 -9.4878,-5.10698c-1.20974,-4.03023 1.07673,-8.27807 5.10698,-9.48781z" fill="#ffffff" stroke="#333333" stroke-linecap="butt"/></g></g></svg>