<svg version="1.1" xmlns="http://www.w3.org/2000/svg" xmlns:xlink="http://www.w3.org/1999/xlink" width="135.99855" height="96.0752" viewBox="0,0,135.99855,96.0752"><g transform="translate(-171.6586,-199.56805)"><g stroke-miterlimit="10"><path d="M270.77812,281.67886l-18.47442,-8.62037l-7.42058,-21.49657" fill="none" stroke="#000000" stroke-width="4" stroke-linecap="round"/><path d="M286.46128,282.03505c1.92628,3.74108 0.45508,8.3354 -3.28601,10.26167c-3.74108,1.92628 -8.3354,0.45509 -10.26168,-3.28601c-1.92628,-3.74108 -0.45508,-8.33541 3.28601,-10.26168c3.74109,-1.92628 8.3354,-0.45508 10.26168,3.28601z" fill="#cccccc" stroke="#000000" stroke-width="4" stroke-linecap="butt"/><path d="M223.70535,261.16332c0,0 23.72218,25.80247 27.35052,30.87163c3.39748,4.74664 -23.67891,-10.75332 -23.67891,-10.75332" fill="none" stroke="#000000" stroke-width="4" stroke-linecap="round"/><path d="M212.59257,290.69352c-1.66014,-2.22638 1.41231,-4.66464 4.98802,-7.33093c3.57571,-2.66629 6.54496,-4.73311 8.2051,-2.50672c1.66014,2.22638 1.38251,7.9029 -2.19321,10.56917c-3.5757,2.66628 -9.33977,1.49485 -10.99991,-0.73152z" fill="#cccccc" stroke="#000000" stroke-width="4" stroke-linecap="butt"/><path d="M224.42134,260.08634l30.92886,-13.83165" fill="none" stroke="#212121" stroke-width="4" stroke-linecap="round"/><path d="M299.21772,247.42795c-9.80947,11.43263 -27.28848,12.52634 -39.04046,2.44287c-11.75198,-10.08347 -13.3267,-27.52573 -3.51723,-38.95836c9.80947,-11.43263 27.28848,-12.52634 39.04047,-2.44287c11.75198,10.08347 13.32671,27.52574 3.51724,38.95837z" fill="#ffffff" stroke="#000000" stroke-width="4" stroke-linecap="butt"/><path d="M277.88451,231.56926c-0.08507,3.22759 -0.45067,5.83782 -0.81658,5.8301c-0.36591,-0.00772 -0.59358,-2.63047 -0.50851,-5.85806c0.08507,-3.22759 0.45068,-5.83782 0.81659,-5.8301c0.36591,0.00772 0.59357,2.63047 0.5085,5.85806z" fill="none" stroke="#000000" stroke-width="4" stroke-linecap="butt"/><path d="M294.61769,231.9913c-0.08507,3.22759 -0.45067,5.83782 -0.81658,5.8301c-0.36591,-0.00772 -0.59357,-2.63047 -0.5085,-5.85806c0.08507,-3.22759 0.45068,-5.83782 0.81658,-5.8301c0.36591,0.00772 0.59357,2.63047 0.5085,5.85806z" fill="none" stroke="#000000" stroke-width="4" stroke-linecap="butt"/><path d="M223.74306,262.07612c0,0 3.21006,29.77368 -4.5939,30.77498c-8.43535,1.08232 -33.21522,-9.71935 -33.21522,-9.71935" fill="none" stroke="#212121" stroke-width="4" stroke-linecap="round"/><path d="M174.08728,292.61976c-1.6004,-2.2697 1.53573,-4.62548 5.181,-7.19583c3.64529,-2.57036 6.66839,-4.55757 8.2688,-2.28786c1.6004,2.2697 1.17208,7.93682 -2.47321,10.50718c-3.64529,2.57036 -9.37619,1.24621 -10.97659,-1.02349z" fill="#ffffff" stroke="#333333" stroke-width="4" stroke-linecap="butt"/><path d="M250.80768,276.67905l-17.25373,-5.7801l9.00986,-17.19946" fill="none" stroke="#333333" stroke-width="4" stroke-linecap="round"/><path d="M265.02187,282.02274c-2.58765,3.31818 -7.37528,3.91039 -10.69347,1.32273c-3.31818,-2.58765 -3.91039,-7.37528 -1.32273,-10.69347c2.58765,-3.31818 7.37528,-3.91039 10.69347,-1.32273c3.31818,2.58765 3.91039,7.37528 1.32273,10.69347z" fill="#ffffff" stroke="#333333" stroke-width="4" stroke-linecap="butt"/><path d="M282.93592,223.44295l-20.52879,-6.31678" fill="none" stroke="#000000" stroke-width="2.5" stroke-linecap="round"/><path d="M272.00363,237.93461l4.89231,0.32615" fill="none" stroke="#000000" stroke-width="2.5" stroke-linecap="round"/></g></g></svg>