<svg version="1.1" xmlns="http://www.w3.org/2000/svg" xmlns:xlink="http://www.w3.org/1999/xlink" width="226.41086" height="105.14166" viewBox="0,0,226.41086,105.14166"><g transform="translate(-111.22273,-82.13157)"><g stroke-miterlimit="10"><path d="M210.505,161.12853c0,9.5209 -16.33014,17.23914 -36.47438,17.23914c-20.14426,0 -36.47438,-7.71823 -36.47438,-17.23914c0,-9.5209 16.33014,-17.23914 36.47438,-17.23914c20.14426,0 36.47438,7.71823 36.47438,17.23914z" fill="#000000" stroke="none" stroke-width="0" stroke-linecap="butt"/><path d="M229.74025,151.87383c0,10.62334 -9.74935,19.23525 -21.77575,19.23525c-12.0264,0 -21.77575,-8.61191 -21.77575,-19.23525c0,-10.62334 9.74935,-19.23525 21.77575,-19.23525c12.0264,0 21.77575,8.61191 21.77575,19.23525z" fill="#000000" stroke="none" stroke-width="0" stroke-linecap="butt"/><path d="M192.72147,141.71181l1.45172,-16.33181l10.52495,10.88788z" fill="#000000" stroke="#000000" stroke-width="2.5" stroke-linecap="round"/><path d="M214.13429,136.6308l10.52495,-10.88788l1.45172,16.33181z" fill="#000000" stroke="#000000" stroke-width="2.5" stroke-linecap="round"/><g stroke="none" stroke-width="0" stroke-linecap="butt"><path d="M208.2889,151.78589c0,3.25618 -3.15293,5.89584 -7.04226,5.89584c-3.88933,0 -7.04226,-2.63966 -7.04226,-5.89584c0,-3.25618 3.15293,-5.89584 7.04226,-5.89584c3.88933,0 7.04226,2.63966 7.04226,5.89584z" fill="#fff700"/><path d="M204.0308,151.94967c0,3.16574 -1.09986,5.73207 -2.45661,5.73207c-1.35674,0 -2.45661,-2.56633 -2.45661,-5.73207c0,-3.16574 1.09986,-5.73207 2.45661,-5.73207c1.35674,0 2.45661,2.56633 2.45661,5.73207z" fill="#000000"/></g><g stroke="none" stroke-width="0" stroke-linecap="butt"><path d="M227.51609,151.68781c0,3.25618 -3.15293,5.89586 -7.04226,5.89586c-3.88933,0 -7.04226,-2.63967 -7.04226,-5.89586c0,-3.25618 3.15293,-5.89584 7.04226,-5.89584c3.88933,0 7.04226,2.63966 7.04226,5.89584z" fill="#fff700"/><path d="M223.25799,151.85158c0,3.16574 -1.09986,5.73209 -2.4566,5.73209c-1.35674,0 -2.45661,-2.56634 -2.45661,-5.73209c0,-3.16574 1.09986,-5.73207 2.45661,-5.73207c1.35674,0 2.4566,2.56633 2.4566,5.73207z" fill="#000000"/></g><path d="M153.26101,153.09609l-40.28828,4.91321" fill="none" stroke="#000000" stroke-width="3.5" stroke-linecap="round"/><path d="M159.15685,174.87795c0,3.88933 -3.00629,7.04226 -6.71472,7.04226c-3.70843,0 -6.71472,-3.15293 -6.71472,-7.04226c0,-3.88933 3.00629,-7.04226 6.71472,-7.04226c3.70843,0 6.71472,3.15293 6.71472,7.04226z" fill="#000000" stroke="#000000" stroke-width="3.5" stroke-linecap="butt"/><path d="M192.2391,178.3172c0,3.97979 -2.19971,7.20603 -4.91321,7.20603c-2.71349,0 -4.91321,-3.22626 -4.91321,-7.20603c0,-3.97979 2.19971,-7.20603 4.91321,-7.20603c2.71349,0 4.91321,3.22626 4.91321,7.20603z" fill="#000000" stroke="#000000" stroke-width="3.5" stroke-linecap="butt"/><path d="M205.99608,174.38664c0,3.79889 -1.5398,6.87849 -3.43924,6.87849c-1.89944,0 -3.43924,-3.0796 -3.43924,-6.87849c0,-3.79889 1.5398,-6.87849 3.43924,-6.87849c1.89944,0 3.43924,3.0796 3.43924,6.87849z" fill="#000000" stroke="#000000" stroke-width="3.5" stroke-linecap="butt"/><text transform="translate(256.27411,143.39999) scale(0.63001,0.63001)" font-size="40" xml:space="preserve" fill="#000000" stroke="none" stroke-width="1" stroke-linecap="butt" font-family="Sans Serif" font-weight="normal" text-anchor="start"><tspan x="0" dy="0">RAGER</tspan><tspan x="0" dy="46.150000000000006px">WINS!</tspan></text><path d="M223.0404,111.00312l-10.33917,7.90642l1.82456,-13.9883" fill="none" stroke="#000000" stroke-width="1" stroke-linecap="round"/><path d="M212.70123,118.30135l18.24559,-26.76021" fill="none" stroke="#000000" stroke-width="1" stroke-linecap="round"/><text transform="translate(235.20413,91.62706) scale(0.22134,0.22134)" font-size="40" xml:space="preserve" fill="#000000" stroke="none" stroke-width="1" stroke-linecap="butt" font-family="Sans Serif" font-weight="normal" text-anchor="start"><tspan x="0" dy="0">cat from Flow</tspan></text></g></g></svg>