<svg version="1.1" xmlns="http://www.w3.org/2000/svg" xmlns:xlink="http://www.w3.org/1999/xlink" width="60.0762" height="142.52098" viewBox="0,0,60.0762,142.52098"><g transform="translate(-209.72211,-148.56749)"><g data-paper-data="{&quot;isPaintingLayer&quot;:true}" fill-rule="nonzero" stroke="#000000" stroke-width="4" stroke-linejoin="miter" stroke-miterlimit="10" stroke-dasharray="" stroke-dashoffset="0" style="mix-blend-mode: normal"><g><path d="M228.58778,245.49651l-7.84375,-14.53034l13.81695,-12.46932" fill="none" stroke-linecap="round"/><path d="M237.96369,256.433c-3.38787,2.49572 -8.15747,1.77253 -10.65319,-1.61535c-2.49573,-3.38787 -1.77251,-8.15746 1.61536,-10.65319c3.38787,-2.49572 8.15746,-1.77251 10.65318,1.61535c2.49573,3.38787 1.77253,8.15747 -1.61535,10.65318z" fill="#ffffff" stroke-linecap="butt"/></g><path d="M237.61268,240.97822c0,0 2.87348,18.08552 2.21494,25.63268c-0.53595,6.1421 -5.87472,16.30959 -5.87472,16.30959" fill="none" stroke-linecap="round"/><path d="M235.71794,240.84478c0,0 6.01974,12.79798 9.19874,18.8677c2.51995,4.81138 -19.29495,11.7589 -19.29495,11.7589" fill="none" stroke-linecap="round"/><path d="M249.58485,286.53867c-0.14957,2.77316 -4.07083,2.67989 -8.52471,2.43966c-4.45389,-0.24022 -8.05811,-0.55282 -7.90854,-3.32599c0.14957,-2.77316 3.99629,-6.95677 8.45018,-6.71656c4.45389,0.24022 8.13264,4.8297 7.98308,7.60288z" fill="#ffffff" stroke-linecap="butt"/><path d="M236.64597,282.97741c-2.07327,1.84781 -4.76996,-1.00051 -7.73764,-4.33031c-2.96769,-3.3298 -5.28536,-6.10768 -3.21209,-7.95549c2.07327,-1.84781 7.75239,-2.06581 10.72008,1.26399c2.96769,3.3298 2.30292,9.174 0.22965,11.02181z" fill="#ffffff" stroke-linecap="butt"/><path d="M236.12167,207.16687v32.53953" fill="none" stroke-linecap="round"/><path d="M267.79829,177.84368c0,15.06422 -12.55309,27.27619 -28.03809,27.27619c-15.48501,0 -28.03809,-12.21197 -28.03809,-27.27619c0,-15.06422 12.55309,-27.27619 28.0381,-27.27619c15.48501,0 28.0381,12.21197 28.0381,27.27619z" fill="#ffffff" stroke-linecap="butt"/><g fill="none" stroke-linecap="butt"><path d="M238.09319,181.89205c0,3.60782 -0.29671,6.53254 -0.66272,6.53254c-0.36601,0 -0.66273,-2.92472 -0.66273,-6.53254c0,-3.60782 0.29672,-6.53254 0.66273,-6.53254c0.36601,0 0.66272,2.92472 0.66272,6.53254z"/><path d="M254.83284,181.96897c0,3.60782 -0.29671,6.53254 -0.66272,6.53254c-0.36601,0 -0.66272,-2.92472 -0.66272,-6.53254c0,-3.60782 0.29672,-6.53254 0.66272,-6.53254c0.36601,0 0.66272,2.92472 0.66272,6.53254z"/></g><g><path d="M245.29582,242.16573l-14.97157,-4.41753l5.13978,-18.88554" fill="none" stroke-linecap="round"/><path d="M255.53432,238.43025c1.94043,3.73378 0.48666,8.33362 -3.24713,10.27405c-3.73378,1.94043 -8.33361,0.48665 -10.27403,-3.24713c-1.94043,-3.73378 -0.48666,-8.33362 3.24712,-10.27405c3.73378,-1.94043 8.33361,-0.48665 10.27403,3.24713z" fill="#ffffff" stroke-linecap="butt"/></g></g></g></svg>