<svg version="1.1" xmlns="http://www.w3.org/2000/svg" xmlns:xlink="http://www.w3.org/1999/xlink" width="61.81791" height="142.97635" viewBox="0,0,61.81791,142.97635"><g transform="translate(-215.65158,-151.0203)"><g data-paper-data="{&quot;isPaintingLayer&quot;:true}" fill-rule="nonzero" stroke-width="4" stroke-linejoin="miter" stroke-miterlimit="10" stroke-dasharray="" stroke-dashoffset="0" style="mix-blend-mode: normal"><path d="M230.30378,239.09585l-3.6485,-12.98915l11.27935,-10.38116" data-paper-data="{&quot;index&quot;:null}" fill="none" stroke="#000000" stroke-linecap="round"/><path d="M240.93482,250.57619c-2.3105,3.51681 -7.03445,4.4947 -10.55127,2.1842c-3.51681,-2.3105 -4.4947,-7.03445 -2.1842,-10.55126c2.3105,-3.51681 7.03445,-4.4947 10.55126,-2.1842c3.51681,2.3105 4.49471,7.03445 2.1842,10.55126z" data-paper-data="{&quot;index&quot;:null}" fill="#cccccc" stroke="#000000" stroke-linecap="butt"/><path d="M235.99145,239.50083l-2.3833,48.71164" fill="none" stroke="#000000" stroke-linecap="round"/><path d="M250.15406,289.10141c0,2.7772 -3.9206,2.89524 -8.38095,2.89524c-4.46036,0 -8.07619,-0.11804 -8.07619,-2.89524c0,-2.7772 3.61584,-7.1619 8.07619,-7.1619c4.46035,0 8.38095,4.3847 8.38095,7.1619z" fill="#cccccc" stroke="#000000" stroke-linecap="butt"/><path d="M239.92292,207.90634l-4.06592,32.28451" fill="none" stroke="#212121" stroke-linecap="round"/><path d="M275.42327,179.62741c0.3554,15.06003 -11.90609,27.56475 -27.38678,27.93008c-15.4807,0.36533 -28.3184,-11.54708 -28.6738,-26.60711c-0.3554,-15.06003 11.90609,-27.56475 27.38679,-27.93008c15.4807,-0.36533 28.31841,11.54708 28.67381,26.60711z" fill="#ffffff" stroke="#000000" stroke-linecap="butt"/><path d="M245.79482,184.09231c0.08512,3.60682 -0.14251,6.53773 -0.50843,6.54635c-0.3659,0.00863 -0.73154,-2.90827 -0.81666,-6.51508c-0.08512,-3.60682 0.14252,-6.53773 0.50844,-6.54635c0.3659,-0.00863 0.73153,2.90827 0.81665,6.51508z" fill="none" stroke="#000000" stroke-linecap="butt"/><path d="M262.53164,183.77427c0.08512,3.60682 -0.14251,6.53773 -0.50843,6.54635c-0.3659,0.00863 -0.73153,-2.90827 -0.81665,-6.51508c-0.08512,-3.60682 0.14252,-6.53773 0.50843,-6.54635c0.3659,-0.00863 0.73153,2.90827 0.81665,6.51508z" fill="none" stroke="#000000" stroke-linecap="butt"/><path d="M236.31937,242.04965c0,0 9.32457,15.43489 5.68656,21.68992c-3.08164,5.29843 -23.92592,6.89741 -23.92592,6.89741" fill="none" stroke="#212121" stroke-linecap="round"/><path d="M222.13186,286.6116c-2.72344,0.54381 -3.60688,-3.27778 -4.48028,-7.65179c-0.87338,-4.37401 -1.46566,-7.94297 1.25779,-8.48676c2.72344,-0.54381 7.73127,2.14345 8.60467,6.51747c0.87338,4.37401 -2.65873,9.07728 -5.38217,9.62109z" fill="#ffffff" stroke="#333333" stroke-linecap="butt"/><path d="M255.33591,234.52881l-16.88796,-0.68543l0.30803,-17.46691" fill="none" stroke="#333333" stroke-linecap="round"/><path d="M259.31667,228.06977c3.3978,-2.48219 8.16446,-1.73996 10.64667,1.65784c2.48219,3.3978 1.73996,8.16446 -1.65784,10.64667c-3.3978,2.48219 -8.16446,1.73996 -10.64667,-1.65784c-2.48219,-3.3978 -1.73996,-8.16446 1.65784,-10.64667z" fill="#ffffff" stroke="#333333" stroke-linecap="butt"/></g></g></svg>