<svg version="1.1" xmlns="http://www.w3.org/2000/svg" xmlns:xlink="http://www.w3.org/1999/xlink" width="60.0762" height="142.08216" viewBox="0,0,60.0762,142.08216"><g transform="translate(-209.65113,-150.72381)"><g stroke-miterlimit="10"><path d="M247.18992,232.61689l-11.733,-6.32573l1.50307,-11.92827" fill="none" stroke="#000000" stroke-width="4" stroke-linecap="round"/><path d="M262.83502,234.15112c0.19688,4.20327 -3.05094,7.77031 -7.25422,7.96719c-4.20327,0.19688 -7.77031,-3.05094 -7.96719,-7.25422c-0.19688,-4.20327 3.05095,-7.77031 7.25422,-7.96719c4.20328,-0.19688 7.77031,3.05094 7.96719,7.25422z" fill="#cccccc" stroke="#000000" stroke-width="4" stroke-linecap="butt"/><path d="M226.32043,289.08729l9.6718,-47.80126" fill="none" stroke="#000000" stroke-width="4" stroke-linecap="round"/><path d="M242.539,288.01255c-0.03761,2.77695 -3.95945,2.84188 -8.41939,2.78148c-4.45995,-0.0604 -8.07385,-0.2274 -8.03624,-3.00434c0.03761,-2.77695 3.7125,-7.11228 8.17244,-7.05187c4.45994,0.0604 8.3208,4.49779 8.28319,7.27474z" fill="#cccccc" stroke="#000000" stroke-width="4" stroke-linecap="butt"/><path d="M235.72861,208.3344v32.53953" fill="none" stroke="#212121" stroke-width="4" stroke-linecap="round"/><path d="M267.72731,180c0,15.06422 -12.55309,27.27619 -28.03809,27.27619c-15.48501,0 -28.03809,-12.21197 -28.03809,-27.27619c0,-15.06422 12.55309,-27.27619 28.0381,-27.27619c15.48501,0 28.0381,12.21197 28.0381,27.27619z" fill="#ffffff" stroke="#000000" stroke-width="4" stroke-linecap="butt"/><path d="M235.59805,239.71766c0,0 12.66343,-7.4803 11.17783,0.68198c-1.45436,7.99065 -8.28432,22.38755 -8.28432,22.38755" fill="none" stroke="#212121" stroke-width="4" stroke-linecap="round"/><path d="M255.31122,263.7894c0,2.7772 -3.9206,2.89524 -8.38095,2.89524c-4.46036,0 -8.07619,-0.11803 -8.07619,-2.89524c0,-2.7772 3.61583,-7.1619 8.07619,-7.1619c4.46036,0 8.38095,4.3847 8.38095,7.1619z" fill="#ffffff" stroke="#333333" stroke-width="4" stroke-linecap="butt"/><path d="M225.45932,235.04838l-7.55722,-16.83184l16.48171,-4.16945" fill="none" stroke="#333333" stroke-width="4" stroke-linecap="round"/><path d="M236.12447,240.51839c0.28763,4.19804 -2.88237,7.8344 -7.08042,8.12203c-4.19804,0.28763 -7.8344,-2.88237 -8.12203,-7.08042c-0.28763,-4.19804 2.88237,-7.8344 7.08042,-8.12203c4.19804,-0.28763 7.8344,2.88237 8.12203,7.08042z" fill="#ffffff" stroke="#333333" stroke-width="4" stroke-linecap="butt"/><g fill="none" stroke="#000000"><path d="M240.33217,179.35826c0,3.60782 -0.8654,6.53254 -1.93293,6.53254c-1.06753,0 -1.93296,-2.92472 -1.93296,-6.53254c0,-3.60782 0.86543,-6.53254 1.93296,-6.53254c1.06753,0 1.93293,2.92472 1.93293,6.53254z" stroke-width="2" stroke-linecap="butt"/><path d="M259.97979,160.51802l-12.6864,11.17159l-14.01183,-11.55029" stroke-width="2.5" stroke-linecap="round"/><path d="M257.78842,179.52449c0,3.60782 -0.8654,6.53254 -1.93293,6.53254c-1.06753,0 -1.93296,-2.92472 -1.93296,-6.53254c0,-3.60782 0.86543,-6.53254 1.93296,-6.53254c1.06753,0 1.93293,2.92472 1.93293,6.53254z" stroke-width="2" stroke-linecap="butt"/></g></g></g></svg>