<svg version="1.1" xmlns="http://www.w3.org/2000/svg" xmlns:xlink="http://www.w3.org/1999/xlink" width="76.04628" height="147.24995" viewBox="0,0,76.04628,147.24995"><g transform="translate(-192.43411,-148.98966)"><g stroke-miterlimit="10"><path d="M224.04548,193.25089l15.65951,8.87381l-3.90392,12.85168" fill="none" stroke="#000000" stroke-width="4" stroke-linecap="round"/><path d="M209.45727,191.25116c-0.65485,-4.15661 2.18389,-8.05708 6.34052,-8.71193c4.15661,-0.65485 8.05709,2.18389 8.71193,6.34052c0.65485,4.15661 -2.1839,8.05709 -6.34052,8.71193c-4.15662,0.65484 -8.05708,-2.1839 -8.71193,-6.34052z" fill="#cccccc" stroke="#000000" stroke-width="4" stroke-linecap="butt"/><path d="M235.56144,239.48834l10.92393,47.53074" fill="none" stroke="#000000" stroke-width="4" stroke-linecap="round"/><path d="M262.64823,291.03438c-0.80484,2.65802 -4.5914,1.6348 -8.86034,0.34218c-4.26895,-1.29262 -7.69541,-2.45347 -6.89057,-5.11149c0.80484,-2.65802 5.5362,-5.80668 9.80514,-4.51407c4.26894,1.29262 6.7506,6.62535 5.94577,9.28337z" fill="#cccccc" stroke="#000000" stroke-width="4" stroke-linecap="butt"/><path d="M233.04015,207.92306c0,0 1.73277,9.43883 2.14712,14.72865c0.43193,5.51424 0.39389,17.71151 0.39389,17.71151" fill="none" stroke="#212121" stroke-width="4" stroke-linecap="round"/><path d="M266.48039,183.42033c-2.75284,14.81055 -17.32616,24.52294 -32.55041,21.69321c-15.22427,-2.82972 -25.33435,-17.13002 -22.58151,-31.94057c2.75284,-14.81055 17.32616,-24.52294 32.55042,-21.69322c15.22427,2.82972 25.33436,17.13002 22.58152,31.94058z" fill="#ffffff" stroke="#000000" stroke-width="4" stroke-linecap="butt"/><path d="M226.74409,287.64932l8.8219,-48.46973" fill="none" stroke="#212121" stroke-width="4" stroke-linecap="round"/><path d="M234.7838,289.23407c0,2.7772 -4.22207,5.00554 -8.68242,5.00554c-4.46036,0 -7.77472,-2.22833 -7.77472,-5.00554c0,-2.7772 3.61583,-7.1619 8.07619,-7.1619c4.46036,0 8.38095,4.3847 8.38095,7.1619z" fill="#ffffff" stroke="#333333" stroke-width="4" stroke-linecap="butt"/><path d="M209.39576,200.44178l15.10939,-2.0257l8.18404,16.96766" fill="none" stroke="#333333" stroke-width="4" stroke-linecap="round"/><path d="M200.43435,209.3909c-4.11161,-0.89491 -6.71926,-4.95353 -5.82433,-9.06515c0.89491,-4.11161 4.95353,-6.71926 9.06515,-5.82433c4.11161,0.89491 6.71926,4.95353 5.82433,9.06515c-0.89491,4.11161 -4.95353,6.71926 -9.06515,5.82433z" fill="#ffffff" stroke="#333333" stroke-width="4" stroke-linecap="butt"/><path d="M258.13143,158.34898l-8.91615,13.85716l-9.24604,-15.62659" fill="none" stroke="#000000" stroke-width="2.5" stroke-linecap="round"/><path d="M228.23166,170.24655l13.71577,7.40652h-13.47929" fill="none" stroke="#000000" stroke-width="3" stroke-linecap="round"/><path d="M265.99343,177.71539h-8.89633l9.0524,-7.40651" fill="none" stroke="#000000" stroke-width="3" stroke-linecap="round"/></g></g></svg>