<svg version="1.1" xmlns="http://www.w3.org/2000/svg" xmlns:xlink="http://www.w3.org/1999/xlink" width="62.05545" height="140.32238" viewBox="0,0,62.05545,140.32238"><g transform="translate(-209.89249,-152.7518)"><g stroke-miterlimit="10"><path d="M252.60998,234.60629l-13.15288,-6.34093l-1.34652,-11.97678" fill="none" stroke="#000000" stroke-width="4" stroke-linecap="round"/><path d="M265.38916,236.14153c0.06402,4.20739 -3.29485,7.67007 -7.50225,7.73409c-4.20739,0.06402 -7.67007,-3.29485 -7.73409,-7.50225c-0.06402,-4.20739 3.29486,-7.67007 7.50225,-7.73409c4.2074,-0.06402 7.67007,3.29485 7.73409,7.50225z" fill="#cccccc" stroke="#000000" stroke-width="4" stroke-linecap="butt"/><path d="M236.07393,242.98774c0,0 0.58539,11.57587 -1.05347,19.00843c-1.79294,8.13135 -7.58824,21.59233 -7.58824,21.59233" fill="none" stroke="#000000" stroke-width="4" stroke-linecap="round"/><path d="M242.44778,288.17894c0,2.7772 -3.9206,2.89524 -8.38095,2.89524c-4.46036,0 -8.07619,-0.11804 -8.07619,-2.89524c0,-2.7772 3.61584,-7.1619 8.07619,-7.1619c4.46035,0 8.38095,4.3847 8.38095,7.1619z" fill="#cccccc" stroke="#000000" stroke-width="4" stroke-linecap="butt"/><path d="M237.07023,210.22421l-1.02778,32.52329" fill="none" stroke="#212121" stroke-width="4" stroke-linecap="round"/><path d="M269.94793,182.91464c-0.47581,15.0567 -13.40836,26.86609 -28.88563,26.37699c-15.47728,-0.4891 -27.63838,-13.09147 -27.16257,-28.14818c0.47581,-15.0567 13.40836,-26.86609 28.88564,-26.37699c15.47728,0.4891 27.63839,13.09147 27.16258,28.14818z" fill="#ffffff" stroke="#000000" stroke-width="4" stroke-linecap="butt"/><path d="M236.90611,240.18103c0,0 14.47481,3.71444 12.98921,11.87672c-1.45436,7.99065 -11.83473,24.23578 -11.83473,24.23578" fill="none" stroke="#212121" stroke-width="4" stroke-linecap="round"/><path d="M252.36238,278.18548c0,2.7772 -3.9206,2.89524 -8.38095,2.89524c-4.46036,0 -8.07619,-0.11803 -8.07619,-2.89524c0,-2.7772 3.61583,-7.1619 8.07619,-7.1619c4.46036,0 8.38095,4.3847 8.38095,7.1619z" fill="#ffffff" stroke="#333333" stroke-width="4" stroke-linecap="butt"/><path d="M218.15999,233.2542l1.54029,-19.07552l16.94466,1.38193" fill="none" stroke="#333333" stroke-width="4" stroke-linecap="round"/><path d="M226.87493,242.29392c-1.08479,4.06565 -5.26004,6.48212 -9.32569,5.39734c-4.06565,-1.08479 -6.48212,-5.26004 -5.39734,-9.32569c1.08479,-4.06565 5.26004,-6.48212 9.32569,-5.39734c4.06565,1.08479 6.48212,5.26004 5.39734,9.32569z" fill="#ffffff" stroke="#333333" stroke-width="4" stroke-linecap="butt"/><g fill="none" stroke="#000000"><path d="M248.31677,187.75841c-0.39528,3.5861 -1.57591,6.3984 -2.63701,6.28144c-1.0611,-0.11696 -1.60088,-3.11889 -1.2056,-6.70499c0.39528,-3.5861 1.57594,-6.3984 2.63704,-6.28143c1.0611,0.11696 1.60085,3.11889 1.20557,6.70499z" stroke-width="2" stroke-linecap="butt"/><path d="M269.91031,171.18424l-13.83401,9.71438l-12.662,-13.01593" stroke-width="2.5" stroke-linecap="round"/><path d="M265.64972,189.83619c-0.39528,3.5861 -1.57591,6.3984 -2.63701,6.28144c-1.0611,-0.11696 -1.60088,-3.11889 -1.2056,-6.70499c0.39528,-3.5861 1.57594,-6.3984 2.63704,-6.28143c1.0611,0.11696 1.60085,3.11889 1.20557,6.70499z" stroke-width="2" stroke-linecap="butt"/></g></g></g></svg>