<svg version="1.1" xmlns="http://www.w3.org/2000/svg" xmlns:xlink="http://www.w3.org/1999/xlink" width="88.2928" height="128.20772" viewBox="0,0,88.2928,128.20772"><g transform="translate(-191.26293,-147.46332)"><g data-paper-data="{&quot;isPaintingLayer&quot;:true}" fill-rule="nonzero" stroke-width="4" stroke-linejoin="miter" stroke-miterlimit="10" stroke-dasharray="" stroke-dashoffset="0" style="mix-blend-mode: normal"><path d="M258.34498,225.58184l-14.78023,2.60793l-6.83917,-13.71927" data-paper-data="{&quot;index&quot;:null}" fill="none" stroke="#000000" stroke-linecap="round"/><path d="M270.65413,218.02611c3.19716,2.73578 3.57119,7.54536 0.83542,10.74252c-2.73578,3.19716 -7.54536,3.57119 -10.74251,0.83541c-3.19716,-2.73578 -3.57119,-7.54536 -0.83541,-10.74251c2.73578,-3.19716 7.54537,-3.57119 10.74251,-0.83541z" data-paper-data="{&quot;index&quot;:null}" fill="#cccccc" stroke="#000000" stroke-linecap="butt"/><path d="M235.13286,238.47735c0,0 15.29426,3.02334 19.92764,9.53876c4.44175,6.24594 5.98473,24.32164 5.98473,24.32164" fill="none" stroke="#000000" stroke-linecap="round"/><path d="M277.44151,270.03621c0.24894,2.76603 -3.6453,3.23502 -8.08769,3.63483c-4.44241,0.39981 -8.05424,0.60635 -8.30318,-2.15968c-0.24894,-2.76603 2.95932,-7.45718 7.40171,-7.85699c4.4424,-0.39981 8.74023,3.61581 8.98918,6.38183z" fill="#cccccc" stroke="#000000" stroke-linecap="butt"/><path d="M238.28912,204.3618l-4.0445,32.2872" fill="none" stroke="#212121" stroke-linecap="round"/><path d="M273.77879,176.66376c0.04065,15.06417 -12.47944,27.30996 -27.96439,27.35175c-15.48496,0.04178 -28.07094,-12.13627 -28.11159,-27.20044c-0.04065,-15.06417 12.47944,-27.30996 27.9644,-27.35175c15.48496,-0.04178 28.07095,12.13627 28.1116,27.20044z" fill="#ffffff" stroke="#000000" stroke-linecap="butt"/><path d="M244.06359,179.19209c0.00973,3.60781 -0.27908,6.53332 -0.64509,6.5343c-0.36601,0.00099 -0.67062,-2.92293 -0.68036,-6.53073c-0.00973,-3.60781 0.27909,-6.53332 0.6451,-6.5343c0.36601,-0.00099 0.67061,2.92293 0.68035,6.53073z" fill="none" stroke="#000000" stroke-linecap="butt"/><path d="M260.8034,179.22384c0.00973,3.60781 -0.27908,6.53332 -0.64509,6.5343c-0.36601,0.00099 -0.67061,-2.92293 -0.68035,-6.53073c-0.00973,-3.60781 0.27909,-6.53332 0.64509,-6.5343c0.36601,-0.00099 0.67061,2.92293 0.68035,6.53073z" fill="none" stroke="#000000" stroke-linecap="butt"/><path d="M234.31553,238.76798c0,0 -6.02695,14.54006 -12.62041,17.52117c-5.58509,2.5252 -21.76333,-3.95647 -21.76333,-3.95647" fill="none" stroke="#212121" stroke-linecap="round"/><path d="M194.76957,267.89199c-2.60505,-0.96262 -1.35684,-4.68109 0.18916,-8.86494c1.54602,-4.18385 2.90997,-7.53465 5.51503,-6.57202c2.60505,0.96262 5.46466,5.87405 3.91867,10.05793c-1.54602,4.18385 -7.01779,6.34162 -9.62285,5.37903z" fill="#ffffff" stroke="#333333" stroke-linecap="butt"/><path d="M224.64286,236.58546l-5.22083,-16.07533l16.48722,-5.77575" fill="none" stroke="#333333" stroke-linecap="round"/><path d="M232.08222,238.07595c3.5075,2.32458 4.46647,7.05243 2.1419,10.55994c-2.32458,3.5075 -7.05243,4.46647 -10.55994,2.1419c-3.5075,-2.32458 -4.46647,-7.05243 -2.1419,-10.55994c2.32458,-3.5075 7.05243,-4.46647 10.55994,-2.1419z" fill="#ffffff" stroke="#333333" stroke-linecap="butt"/></g></g></svg>