<svg version="1.1" xmlns="http://www.w3.org/2000/svg" xmlns:xlink="http://www.w3.org/1999/xlink" width="100.35529" height="111.75056" viewBox="0,0,100.35529,111.75056"><g transform="translate(-185.65395,-182.6321)"><g stroke-miterlimit="10"><path d="M258.0083,266.38406l-17.3871,-24.57616" fill="none" stroke="#000000" stroke-width="4" stroke-linecap="round"/><path d="M268.20511,271.15549c1.63683,3.87647 -0.17874,8.3459 -4.05522,9.98274c-3.87647,1.63683 -8.3459,-0.17874 -9.98274,-4.05522c-1.63683,-3.87647 0.17875,-8.34591 4.05522,-9.98274c3.87648,-1.63684 8.3459,0.17874 9.98274,4.05522z" fill="#cccccc" stroke="#000000" stroke-width="4" stroke-linecap="butt"/><path d="M238.15817,262.56808c0,0 26.34454,1.44269 30.43171,6.53189c4.09065,5.09353 -8.75889,18.96156 -8.75889,18.96156" fill="none" stroke="#000000" stroke-width="4" stroke-linecap="round"/><path d="M274.56086,288.84373c0,2.7772 -3.9206,2.89524 -8.38095,2.89524c-4.46036,0 -8.07619,-0.11804 -8.07619,-2.89524c0,-2.7772 3.61584,-7.1619 8.07619,-7.1619c4.46035,0 8.38095,4.3847 8.38095,7.1619z" fill="#cccccc" stroke="#000000" stroke-width="4" stroke-linecap="butt"/><path d="M237.99748,263.14602c0,0 0.03826,-14.22372 2.47796,-20.16363c2.27566,-5.54053 11.70239,-14.36115 11.70239,-14.36115" fill="none" stroke="#212121" stroke-width="4" stroke-linecap="round"/><path d="M284.00922,211.90829c0,15.06422 -12.55309,27.27619 -28.03809,27.27619c-15.48501,0 -28.03809,-12.21197 -28.03809,-27.27619c0,-15.06422 12.55309,-27.27619 28.0381,-27.27619c15.48501,0 28.0381,12.21197 28.0381,27.27619z" fill="#ffffff" stroke="#000000" stroke-width="4" stroke-linecap="butt"/><path d="M254.02041,214.76309c0,2.43533 -0.29671,4.40955 -0.66272,4.40955c-0.36601,0 -0.66273,-1.97422 -0.66273,-4.40955c0,-2.43533 0.29672,-4.40956 0.66273,-4.40956c0.36601,0 0.66272,1.97423 0.66272,4.40956z" fill="none" stroke="#000000" stroke-width="4" stroke-linecap="butt"/><path d="M270.76003,214.84001c0,2.43533 -0.29671,4.40955 -0.66272,4.40955c-0.36601,0 -0.66272,-1.97422 -0.66272,-4.40955c0,-2.43533 0.29672,-4.40956 0.66272,-4.40956c0.36601,0 0.66272,1.97423 0.66272,4.40956z" fill="none" stroke="#000000" stroke-width="4" stroke-linecap="butt"/><path d="M237.89102,263.11722l-41.12582,27.12577" fill="none" stroke="#212121" stroke-width="4" stroke-linecap="round"/><path d="M204.11065,289.55051c-0.02254,2.77711 -3.94397,2.86333 -8.40417,2.82713c-4.46021,-0.0362 -8.07497,-0.18357 -8.05243,-2.96069c0.02254,-2.77711 3.67383,-7.13232 8.13405,-7.09612c4.46021,0.0362 8.34509,4.45257 8.32255,7.22968z" fill="#ffffff" stroke="#333333" stroke-width="4" stroke-linecap="butt"/><path d="M234.35213,275.25754l4.78593,-31.52256" fill="none" stroke="#333333" stroke-width="4" stroke-linecap="round"/><path d="M242.70808,280.48234c0.65129,4.15717 -2.19077,8.05521 -6.34796,8.70651c-4.15717,0.65129 -8.05521,-2.19077 -8.70651,-6.34796c-0.65129,-4.15717 2.19077,-8.05521 6.34796,-8.70651c4.15717,-0.65129 8.05521,2.19077 8.70651,6.34796z" fill="#ffffff" stroke="#333333" stroke-width="4" stroke-linecap="butt"/><path d="M243.01295,203.19874l16.07615,8.44381" fill="none" stroke="#000000" stroke-width="2.5" stroke-linecap="round"/></g></g></svg>