<svg version="1.1" xmlns="http://www.w3.org/2000/svg" xmlns:xlink="http://www.w3.org/1999/xlink" width="59.90307" height="145.45194" viewBox="0,0,59.90307,145.45194"><g transform="translate(-206.61195,-150.37958)"><g stroke-miterlimit="10"><path d="M229.51768,212.93165l14.90116,27.07523" fill="none" stroke="#000000" stroke-width="4" stroke-linecap="round"/><path d="M258.49953,244.63496c0.70242,4.14884 -2.09145,8.08157 -6.2403,8.78399c-4.14884,0.70242 -8.08157,-2.09145 -8.78399,-6.2403c-0.70242,-4.14884 2.09146,-8.08157 6.2403,-8.78399c4.14885,-0.70242 8.08157,2.09145 8.78399,6.2403z" fill="#cccccc" stroke="#000000" stroke-width="4" stroke-linecap="butt"/><path d="M246.3447,285.29805l-20.56468,-44.22214" fill="none" stroke="#000000" stroke-width="4" stroke-linecap="round"/><path d="M262.16857,288.87953c-0.5183,2.72841 -4.39204,2.11269 -8.77403,1.28028c-4.382,-0.83242 -7.91227,-1.62319 -7.39398,-4.3516c0.5183,-2.72841 4.88891,-6.36127 9.27089,-5.52885c4.38199,0.83241 7.41541,5.87176 6.89711,8.60017z" fill="#cccccc" stroke="#000000" stroke-width="4" stroke-linecap="butt"/><path d="M225.45695,240.37351c0,0 -1.33584,-12.49976 -0.74913,-17.85904c0.59359,-5.42208 4.91504,-15.112 4.91504,-15.112" fill="none" stroke="#212121" stroke-width="4" stroke-linecap="round"/><path d="M264.51502,182.71863c-1.63938,14.97475 -15.44689,25.74809 -30.83992,24.06293c-15.39304,-1.68517 -26.54259,-15.19071 -24.90321,-30.16546c1.63938,-14.97475 15.44689,-25.74809 30.83993,-24.06292c15.39304,1.68517 26.5426,15.19071 24.90322,30.16546z" fill="#ffffff" stroke="#000000" stroke-width="4" stroke-linecap="butt"/><path d="M227.16555,290.01777l-1.44526,-49.24482" fill="none" stroke="#212121" stroke-width="4" stroke-linecap="round"/><path d="M241.32334,290.93628c0,2.7772 -3.9206,2.89524 -8.38095,2.89524c-4.46036,0 -8.07619,-0.11803 -8.07619,-2.89524c0,-2.7772 3.61583,-7.1619 8.07619,-7.1619c4.46036,0 8.38095,4.3847 8.38095,7.1619z" fill="#ffffff" stroke="#333333" stroke-width="4" stroke-linecap="butt"/><path d="M231.64014,245.38907l-3.0433,-32.6665" fill="none" stroke="#333333" stroke-width="4" stroke-linecap="round"/><path d="M241.86323,251.12328c0.70242,4.14884 -2.09145,8.08157 -6.2403,8.78399c-4.14884,0.70242 -8.08157,-2.09145 -8.78399,-6.2403c-0.70242,-4.14884 2.09145,-8.08157 6.2403,-8.78399c4.14884,-0.70242 8.08157,2.09145 8.78399,6.2403z" fill="#ffffff" stroke="#333333" stroke-width="4" stroke-linecap="butt"/><g fill="none" stroke="#000000" stroke-width="2.5" stroke-linecap="round"><path d="M238.49472,175.35927l-13.70106,10.42156"/><path d="M236.55094,187.28085l-10.60889,-13.93445"/></g><g fill="none" stroke="#000000" stroke-width="2.5" stroke-linecap="round"><path d="M246.22999,188.74848l13.70106,-10.42156"/><path d="M247.37837,176.31406l10.60889,13.93445"/></g><path d="M218.44693,168.32483c0,0 0.67109,10.17627 -0.45319,10.93362c-1.1237,0.75695 -2.82255,0.85389 -3.52401,0.27726c-1.6203,-1.33196 -1.21251,-4.73721 -0.94532,-5.34593c0.6046,-1.37741 4.79332,-6.08025 4.79332,-6.08025" fill="#77ffff" stroke="#00d1ff" stroke-width="1.5" stroke-linecap="round"/></g></g></svg>