<svg version="1.1" xmlns="http://www.w3.org/2000/svg" xmlns:xlink="http://www.w3.org/1999/xlink" width="101.40879" height="124.7181" viewBox="0,0,101.40879,124.7181"><g transform="translate(-202.39405,-170.58514)"><g stroke-width="4" stroke-miterlimit="10"><path d="M288.65772,217.79692c-9.47279,11.71311 -26.9126,13.31476 -38.95288,3.57738c-12.04029,-9.7374 -14.12168,-27.12647 -4.64889,-38.83958c9.47279,-11.71311 26.9126,-13.31476 38.95289,-3.57737c12.04029,9.7374 14.12169,27.12647 4.6489,38.83958z" fill="#ffffff" stroke="#000000" stroke-linecap="butt"/><path d="M229.93869,226.2507l-3.72745,-10.61927l24.02482,5.44886" fill="none" stroke="#000000" stroke-linecap="round"/><path d="M230.55931,238.63088c-4.0198,-1.24398 -6.27004,-5.51112 -5.02606,-9.53092c1.24398,-4.0198 5.51112,-6.27005 9.53092,-5.02606c4.0198,1.24398 6.27004,5.51113 5.02606,9.53092c-1.24398,4.01981 -5.51112,6.27005 -9.53092,5.02606z" fill="#cccccc" stroke="#000000" stroke-linecap="butt"/><path d="M235.8629,240.09127c0,0 21.11955,1.5835 22.97134,9.64078c1.78722,7.77632 -40.80893,0.61738 -40.80893,0.61738" fill="none" stroke="#000000" stroke-linecap="round"/><path d="M205.08926,260.91636c-1.99802,-1.92892 0.64013,-4.83154 3.7381,-8.04048c3.09797,-3.20895 5.69429,-5.72833 7.69232,-3.79941c1.99802,1.92892 2.64114,7.57572 -0.45682,10.78466c-3.09796,3.20895 -8.97556,2.98416 -10.97359,1.05523z" fill="#cccccc" stroke="#000000" stroke-linecap="butt"/><path d="M234.51157,239.01594c0,0 5.88769,-11.3376 9.54944,-15.86535c3.04406,-3.76398 10.91228,-9.43561 10.91228,-9.43561" fill="none" stroke="#212121" stroke-linecap="round"/><path d="M235.03436,240.00206c0,0 2.1752,17.83581 1.77814,25.77793c-0.42147,8.43028 -4.23811,23.42665 -4.23811,23.42665" fill="none" stroke="#212121" stroke-linecap="round"/><path d="M247.11014,290.408c0,2.7772 -3.9206,2.89524 -8.38095,2.89524c-4.46036,0 -8.07619,-0.11803 -8.07619,-2.89524c0,-2.7772 3.61583,-7.1619 8.07619,-7.1619c4.46036,0 8.38095,4.3847 8.38095,7.1619z" fill="#ffffff" stroke="#333333" stroke-linecap="butt"/><path d="M288.20101,215.99451l-17.45297,4.5257l-21.46674,0.31701" fill="none" stroke="#333333" stroke-linecap="round"/><path d="M291.63949,206.08449c3.79471,-1.81834 8.34501,-0.21617 10.16335,3.57855c1.81834,3.79471 0.21618,8.34501 -3.57855,10.16335c-3.79471,1.81834 -8.34501,0.21618 -10.16335,-3.57855c-1.81834,-3.79471 -0.21618,-8.34501 3.57855,-10.16336z" fill="#ffffff" stroke="#333333" stroke-linecap="butt"/></g></g></svg>