<svg version="1.1" xmlns="http://www.w3.org/2000/svg" xmlns:xlink="http://www.w3.org/1999/xlink" width="103.67671" height="106.05961" viewBox="0,0,103.67671,106.05961"><g transform="translate(-193.46398,-187.50037)"><g stroke-miterlimit="10"><path d="M235.61125,263.38418l-8.43839,-15.78418l16.85879,-5.69695" fill="none" stroke="#000000" stroke-width="4" stroke-linecap="round"/><path d="M246.38136,273.68461c-2.94019,3.01024 -7.76397,3.06703 -10.77422,0.12683c-3.01024,-2.94018 -3.06703,-7.76397 -0.12683,-10.77422c2.94019,-3.01024 7.76398,-3.06703 10.77422,-0.12683c3.01024,2.9402 3.06703,7.76397 0.12683,10.77422z" fill="#cccccc" stroke="#000000" stroke-width="4" stroke-linecap="butt"/><path d="M223.37151,259.89468c0,0 9.67276,16.10429 13.69484,20.86706c3.76619,4.45974 -28.97236,3.81359 -28.97236,3.81359" fill="none" stroke="#000000" stroke-width="4" stroke-linecap="round"/><path d="M195.51087,283.39973c-0.51665,-2.72872 3.31356,-3.57405 7.69605,-4.40382c4.3825,-0.82977 7.95717,-1.38644 8.47382,1.34228c0.51665,2.72872 -2.22039,7.70954 -6.60288,8.5393c-4.38249,0.82976 -9.05034,-2.74904 -9.56699,-5.47776z" fill="#cccccc" stroke="#000000" stroke-width="4" stroke-linecap="butt"/><path d="M223.80072,259.08041l23.80074,-22.18888" fill="none" stroke="#212121" stroke-width="4" stroke-linecap="round"/><path d="M288.60685,235.47848c-9.87083,11.37969 -27.35547,12.37935 -39.05303,2.23281c-11.69756,-10.14655 -13.17842,-27.59702 -3.30759,-38.97671c9.87083,-11.37969 27.35547,-12.37935 39.05304,-2.23281c11.69756,10.14655 13.17844,27.59704 3.3076,38.97673z" fill="#ffffff" stroke="#000000" stroke-width="4" stroke-linecap="butt"/><g fill="none" stroke="#000000"><path d="M267.35555,220.19354c-0.10447,3.60631 -0.48576,6.52121 -0.85162,6.51061c-0.36586,-0.0106 -0.57776,-2.94268 -0.47329,-6.54899c0.10447,-3.60631 0.48577,-6.52121 0.85163,-6.51061c0.36586,0.0106 0.57775,2.94268 0.47327,6.54899z" stroke-width="4" stroke-linecap="butt"/><path d="M284.08595,220.75518c-0.10447,3.60631 -0.48576,6.52122 -0.85162,6.51062c-0.36586,-0.0106 -0.57775,-2.94268 -0.47327,-6.54899c0.10447,-3.60631 0.48576,-6.52121 0.85161,-6.51061c0.36586,0.0106 0.57775,2.94268 0.47328,6.54899z" stroke-width="4" stroke-linecap="butt"/><path d="M288.53147,201.95887l-13.00458,10.79953l-13.67147,-11.9512" stroke-width="2.5" stroke-linecap="round"/></g><path d="M223.98539,259.58594c0,0 28.72121,-3.05832 27.31233,4.68244c-1.52287,8.36704 -24.25218,23.98387 -24.25218,23.98387" fill="none" stroke="#212121" stroke-width="4" stroke-linecap="round"/><path d="M224.28755,257.69296l0.71463,-17.44745l17.37545,1.59754" fill="none" stroke="#333333" stroke-width="4" stroke-linecap="round"/><path d="M230.00162,271.04841c-2.94019,3.01024 -7.76397,3.06703 -10.77422,0.12684c-3.01024,-2.94018 -3.06703,-7.76397 -0.12683,-10.77422c2.94019,-3.01024 7.76397,-3.06703 10.77422,-0.12684c3.01024,2.94019 3.06703,7.76397 0.12683,10.77422z" fill="#ffffff" stroke="#333333" stroke-width="4" stroke-linecap="butt"/><path d="M242.75427,288.66474c0,2.7772 -3.9206,2.89524 -8.38095,2.89524c-4.46036,0 -8.07619,-0.11803 -8.07619,-2.89524c0,-2.7772 3.61583,-7.1619 8.07619,-7.1619c4.46036,0 8.38095,4.3847 8.38095,7.1619z" fill="#ffffff" stroke="#333333" stroke-width="4" stroke-linecap="butt"/></g></g></svg>