<svg version="1.1" xmlns="http://www.w3.org/2000/svg" xmlns:xlink="http://www.w3.org/1999/xlink" width="60.0762" height="144.3381" viewBox="0,0,60.0762,144.3381"><g transform="translate(-207.78583,-149.7912)"><g stroke-miterlimit="10"><path d="M245.6063,241.56605l-11.33099,-27.891" fill="none" stroke="#000000" stroke-width="4" stroke-linecap="round"/><path d="M255.60141,247.64939c0.71067,4.14743 -2.07539,8.08572 -6.22284,8.79637c-4.14743,0.71067 -8.08572,-2.07539 -8.79637,-6.22284c-0.71067,-4.14743 2.0754,-8.08572 6.22284,-8.79637c4.14744,-0.71067 8.08572,2.07539 8.79637,6.22284z" fill="#cccccc" stroke="#000000" stroke-width="4" stroke-linecap="butt"/><path d="M263.71008,288.8404c0,2.7772 -3.9206,2.89524 -8.38095,2.89524c-4.46036,0 -8.07619,-0.11804 -8.07619,-2.89524c0,-2.7772 3.61584,-7.1619 8.07619,-7.1619c4.46035,0 8.38095,4.3847 8.38095,7.1619z" fill="#cccccc" stroke="#000000" stroke-width="4" stroke-linecap="butt"/><path d="M233.99764,240.40214l12.78915,47.21987" fill="none" stroke="#000000" stroke-width="4" stroke-linecap="round"/><path d="M233.86331,207.40179v32.53953" fill="none" stroke="#212121" stroke-width="4" stroke-linecap="round"/><g stroke="#000000"><path d="M265.86202,179.06739c0,15.06422 -12.55309,27.27619 -28.03809,27.27619c-15.48501,0 -28.03809,-12.21197 -28.03809,-27.27619c0,-15.06422 12.55309,-27.27619 28.0381,-27.27619c15.48501,0 28.0381,12.21197 28.0381,27.27619z" fill="#ffffff" stroke-width="4" stroke-linecap="butt"/><g fill="none"><path d="M235.8732,182.83204c0,3.60782 -0.29671,6.53254 -0.66272,6.53254c-0.36601,0 -0.66273,-2.92472 -0.66273,-6.53254c0,-3.60782 0.29672,-6.53254 0.66273,-6.53254c0.36601,0 0.66272,2.92472 0.66272,6.53254z" stroke-width="4" stroke-linecap="butt"/><path d="M252.61285,182.90896c0,3.60782 -0.29671,6.53254 -0.66272,6.53254c-0.36601,0 -0.66272,-2.92472 -0.66272,-6.53254c0,-3.60782 0.29672,-6.53254 0.66272,-6.53254c0.36601,0 0.66272,2.92472 0.66272,6.53254z" stroke-width="4" stroke-linecap="butt"/><path d="M256.51219,163.9918l-12.6864,11.17159l-14.01183,-11.55029" stroke-width="2.5" stroke-linecap="round"/></g></g><path d="M227.0455,288.25225l6.95668,-48.15886" fill="none" stroke="#212121" stroke-width="4" stroke-linecap="round"/><path d="M234.78373,289.23406c0,2.7772 -3.9206,2.89524 -8.38095,2.89524c-4.46036,0 -8.07619,-0.11803 -8.07619,-2.89524c0,-2.7772 3.61583,-7.1619 8.07619,-7.1619c4.46036,0 8.38095,4.3847 8.38095,7.1619z" fill="#ffffff" stroke="#333333" stroke-width="4" stroke-linecap="butt"/><path d="M232.49229,213.80166l-3.97497,31.63505" fill="none" stroke="#333333" stroke-width="4" stroke-linecap="round"/><path d="M237.30069,250.12021c0.75782,4.13908 -1.98322,8.1088 -6.12231,8.86663c-4.13908,0.75782 -8.1088,-1.98322 -8.86663,-6.12231c-0.75782,-4.13908 1.98322,-8.1088 6.12231,-8.86663c4.13908,-0.75782 8.1088,1.98322 8.86663,6.12231z" fill="#ffffff" stroke="#333333" stroke-width="4" stroke-linecap="butt"/></g></g></svg>