<svg version="1.1" xmlns="http://www.w3.org/2000/svg" xmlns:xlink="http://www.w3.org/1999/xlink" width="60.0762" height="143.40549" viewBox="0,0,60.0762,143.40549"><g transform="translate(-209.6511,-150.72381)"><g stroke-miterlimit="10"><path d="M244.7864,243.43256l-7.82645,-29.06967" fill="none" stroke="#000000" stroke-width="4" stroke-linecap="round"/><path d="M253.62163,250.97551c0.19688,4.20327 -3.05094,7.77031 -7.25422,7.96719c-4.20327,0.19688 -7.77031,-3.05094 -7.96719,-7.25422c-0.19688,-4.20327 3.05095,-7.77031 7.25422,-7.96719c4.20328,-0.19688 7.77031,3.05094 7.96719,7.25422z" fill="#cccccc" stroke="#000000" stroke-width="4" stroke-linecap="butt"/><path d="M235.86291,240.09127l10.92393,47.53074" fill="none" stroke="#000000" stroke-width="4" stroke-linecap="round"/><path d="M263.71011,288.8404c0,2.7772 -3.9206,2.89524 -8.38095,2.89524c-4.46036,0 -8.07619,-0.11804 -8.07619,-2.89524c0,-2.7772 3.61584,-7.1619 8.07619,-7.1619c4.46035,0 8.38095,4.3847 8.38095,7.1619z" fill="#cccccc" stroke="#000000" stroke-width="4" stroke-linecap="butt"/><path d="M235.72857,240.87393v-32.53953" fill="none" stroke="#212121" stroke-width="4" stroke-linecap="round"/><path d="M267.72729,180c0,15.06422 -12.55309,27.27619 -28.03809,27.27619c-15.48501,0 -28.03809,-12.21197 -28.03809,-27.27619c0,-15.06422 12.55309,-27.27619 28.0381,-27.27619c15.48501,0 28.0381,12.21197 28.0381,27.27619z" fill="#ffffff" stroke="#000000" stroke-width="4" stroke-linecap="butt"/><path d="M227.04555,288.25225l8.8219,-48.46973" fill="none" stroke="#212121" stroke-width="4" stroke-linecap="round"/><path d="M234.78379,289.23406c0,2.7772 -3.9206,2.89524 -8.38095,2.89524c-4.46036,0 -8.07619,-0.11803 -8.07619,-2.89524c0,-2.7772 3.61583,-7.1619 8.07619,-7.1619c4.46036,0 8.38095,4.3847 8.38095,7.1619z" fill="#ffffff" stroke="#333333" stroke-width="4" stroke-linecap="butt"/><path d="M226.11895,245.38128l8.17433,-30.81813" fill="none" stroke="#333333" stroke-width="4" stroke-linecap="round"/><path d="M233.85938,251.48098c0.19688,4.20327 -3.05094,7.77031 -7.25422,7.96719c-4.20327,0.19688 -7.77031,-3.05094 -7.96719,-7.25422c-0.19688,-4.20327 3.05094,-7.77031 7.25422,-7.96719c4.20327,-0.19688 7.77031,3.05094 7.96719,7.25422z" fill="#ffffff" stroke="#333333" stroke-width="4" stroke-linecap="butt"/><g fill="none" stroke="#000000"><path d="M238.72982,183.76465c0,3.60782 -0.8654,6.53254 -1.93293,6.53254c-1.06753,0 -1.93296,-2.92472 -1.93296,-6.53254c0,-3.60782 0.86543,-6.53254 1.93296,-6.53254c1.06753,0 1.93293,2.92472 1.93293,6.53254z" stroke-width="2" stroke-linecap="butt"/><path d="M258.37746,164.92441l-12.6864,11.17159l-14.01183,-11.55029" stroke-width="2.5" stroke-linecap="round"/><path d="M256.18607,183.93088c0,3.60782 -0.8654,6.53254 -1.93293,6.53254c-1.06753,0 -1.93296,-2.92472 -1.93296,-6.53254c0,-3.60782 0.86543,-6.53254 1.93296,-6.53254c1.06753,0 1.93293,2.92472 1.93293,6.53254z" stroke-width="2" stroke-linecap="butt"/></g></g></g></svg>