<svg version="1.1" xmlns="http://www.w3.org/2000/svg" xmlns:xlink="http://www.w3.org/1999/xlink" width="70.28115" height="147.2448" viewBox="0,0,70.28115,147.2448"><g transform="translate(-208.94735,-150.72381)"><g stroke-miterlimit="10"><path d="M231.35531,232.36361l0.96734,-14.26055l13.36917,-3.81759" fill="none" stroke="#000000" stroke-width="4" stroke-linecap="round"/><path d="M235.37991,246.10845c-3.36042,2.53255 -8.13763,1.86144 -10.67019,-1.49899c-2.53255,-3.36042 -1.86145,-8.13763 1.49899,-10.67019c3.36042,-2.53255 8.13763,-1.86144 10.67018,1.49899c2.53256,3.36043 1.86145,8.13763 -1.49898,10.67019z" fill="#cccccc" stroke="#000000" stroke-width="4" stroke-linecap="butt"/><path d="M247.20917,290.6443l-1.0417,-48.75878" fill="none" stroke="#000000" stroke-width="4" stroke-linecap="round"/><path d="M264.26658,289.24577c0,2.7772 -3.9206,2.89524 -8.38095,2.89524c-4.46036,0 -8.07619,-0.11804 -8.07619,-2.89524c0,-2.7772 3.61584,-7.1619 8.07619,-7.1619c4.46035,0 8.38095,4.3847 8.38095,7.1619z" fill="#cccccc" stroke="#000000" stroke-width="4" stroke-linecap="butt"/><path d="M245.22976,240.87393v-32.53953" fill="none" stroke="#212121" stroke-width="4" stroke-linecap="round"/><path d="M277.22848,180c0,15.06422 -12.55309,27.27619 -28.03809,27.27619c-15.48501,0 -28.03809,-12.21197 -28.03809,-27.27619c0,-15.06422 12.55309,-27.27619 28.0381,-27.27619c15.48501,0 28.0381,12.21197 28.0381,27.27619z" fill="#ffffff" stroke="#000000" stroke-width="4" stroke-linecap="butt"/><path d="M244.78191,240.27744c0,0 -3.90703,16.85961 -6.23421,24.82233c-2.27856,7.79637 -16.24893,16.72541 -16.24893,16.72541" fill="none" stroke="#212121" stroke-width="4" stroke-linecap="round"/><path d="M234.09549,292.7939c-1.86775,2.05533 -4.84865,-0.49404 -8.14962,-3.49376c-3.30097,-2.99973 -5.89757,-5.51883 -4.02981,-7.57416c1.86775,-2.05533 7.49256,-2.86855 10.79354,0.13118c3.30097,2.99973 3.25364,8.88143 1.38589,10.93675z" fill="#ffffff" stroke="#333333" stroke-width="4" stroke-linecap="butt"/><path d="M217.21566,229.44404l10.60263,-12.8703l16.4611,-1.94721" fill="none" stroke="#333333" stroke-width="4" stroke-linecap="round"/><path d="M221.72203,241.36568c-2.99667,2.95402 -7.82066,2.91946 -10.77468,-0.07721c-2.95402,-2.99667 -2.91946,-7.82067 0.07721,-10.77469c2.99667,-2.95402 7.82066,-2.91946 10.77469,0.07721c2.95402,2.99667 2.91946,7.82067 -0.07722,10.77469z" fill="#ffffff" stroke="#333333" stroke-width="4" stroke-linecap="butt"/><g fill="none" stroke="#000000"><path d="M251.48356,185.97658c0,3.60782 -0.8654,6.53254 -1.93293,6.53254c-1.06753,0 -1.93296,-2.92472 -1.93296,-6.53254c0,-3.60782 0.86543,-6.53254 1.93296,-6.53254c1.06753,0 1.93293,2.92472 1.93293,6.53254z" stroke-width="2" stroke-linecap="butt"/><path d="M271.13119,167.13634l-12.6864,11.17159l-14.01183,-11.55029" stroke-width="2.5" stroke-linecap="round"/><path d="M268.93981,186.14281c0,3.60782 -0.8654,6.53254 -1.93293,6.53254c-1.06753,0 -1.93296,-2.92472 -1.93296,-6.53254c0,-3.60782 0.86543,-6.53254 1.93296,-6.53254c1.06753,0 1.93293,2.92472 1.93293,6.53254z" stroke-width="2" stroke-linecap="butt"/></g></g></g></svg>