<svg version="1.1" xmlns="http://www.w3.org/2000/svg" xmlns:xlink="http://www.w3.org/1999/xlink" width="67.42649" height="145.72069" viewBox="0,0,67.42649,145.72069"><g transform="translate(-201.29078,-149.18027)"><g stroke-miterlimit="10"><path d="M264.08791,182.43344l-8.69663,19.10277l-18.94719,11.10839" fill="none" stroke="#000000" stroke-width="4" stroke-linecap="round"/><path d="M232.88866,214.81047l-5.5813,11.55617l-3.68182,2.3737" fill="none" stroke="#333333" stroke-width="4" stroke-linecap="round"/><path d="M234.68899,238.62386c0,0 5.45972,19.49376 7.15949,23.28543c2.20159,4.9111 4.35141,18.96258 4.35141,18.96258" fill="none" stroke="#000000" stroke-width="4" stroke-linecap="round"/><path d="M257.54769,292.21094c-1.93557,1.99158 -4.82938,-0.65624 -8.02798,-3.76488c-3.19861,-3.10865 -5.70932,-5.71336 -3.77375,-7.70494c1.93557,-1.99158 7.58448,-2.61587 10.78308,0.49278c3.1986,3.10865 2.95421,8.98546 1.01864,10.97704z" fill="#cccccc" stroke="#000000" stroke-width="4" stroke-linecap="butt"/><path d="M234.92231,236.59708l-0.94829,-32.52571" fill="none" stroke="#212121" stroke-width="4" stroke-linecap="round"/><path d="M259.34315,177.62777c0.43901,15.05782 -11.75285,27.63044 -27.23128,28.08171c-15.47843,0.45128 -28.38207,-11.38968 -28.82109,-26.4475c-0.43901,-15.05782 11.75285,-27.63044 27.23129,-28.08171c15.47843,-0.45128 28.38208,11.38967 28.8211,26.4475z" fill="#ffffff" stroke="#000000" stroke-width="4" stroke-linecap="butt"/><path d="M227.09727,226.4431c1.39652,3.53705 -0.33872,7.53652 -3.87577,8.93306c-3.53705,1.39652 -7.53651,-0.33872 -8.93305,-3.87577c-1.39652,-3.53705 0.33871,-7.53651 3.87577,-8.93305c3.53705,-1.39652 7.53652,0.33871 8.93306,3.87577z" fill="#ffffff" stroke="#333333" stroke-width="4" stroke-linecap="butt"/><g fill="none" stroke="#000000"><path d="M223.69198,180.07106c0.44943,3.57971 -0.04489,6.58946 -1.10411,6.72244c-1.05921,0.13298 -2.28224,-2.66115 -2.73167,-6.24086c-0.44943,-3.57971 0.04492,-6.58947 1.10414,-6.72244c1.05921,-0.13298 2.28221,2.66115 2.73164,6.24087z" stroke-width="2" stroke-linecap="butt"/><path d="M240.8396,158.93004l-11.19592,12.66493l-15.34152,-9.71485" stroke-width="2.5" stroke-linecap="round"/><path d="M241.03296,178.06144c0.44943,3.57971 -0.04489,6.58946 -1.10411,6.72244c-1.05921,0.13298 -2.28224,-2.66115 -2.73167,-6.24086c-0.44943,-3.57971 0.04492,-6.58947 1.10414,-6.72244c1.05921,-0.13298 2.28221,2.66115 2.73164,6.24087z" stroke-width="2" stroke-linecap="butt"/></g><path d="M227.04561,279.7412c0,0 1.74674,-13.11214 3.21304,-21.16837c1.47429,-8.10011 4.43491,-21.43167 4.43491,-21.43167" fill="none" stroke="#212121" stroke-width="4" stroke-linecap="round"/><path d="M233.80675,284.59131c-0.36088,2.75365 -3.31845,8.70098 -7.74099,8.1214c-4.42254,-0.57959 -6.60953,-7.20112 -6.24865,-9.95479c0.36088,-2.75365 3.37587,-4.70876 7.79841,-4.12917c4.42254,0.57959 6.5521,3.20891 6.19123,5.96256z" fill="#ffffff" stroke="#333333" stroke-width="4" stroke-linecap="butt"/><path d="M266.61714,175.52373c0.67604,4.15321 -2.14275,8.06812 -6.29598,8.74417c-4.15321,0.67604 -8.06812,-2.14275 -8.74417,-6.29598c-0.67604,-4.15321 2.14276,-8.06812 6.29598,-8.74417c4.15322,-0.67604 8.06812,2.14275 8.74417,6.29598z" fill="#cccccc" stroke="#000000" stroke-width="4" stroke-linecap="butt"/></g></g></svg>