<svg version="1.1" xmlns="http://www.w3.org/2000/svg" xmlns:xlink="http://www.w3.org/1999/xlink" width="60.0762" height="143.40549" viewBox="0,0,60.0762,143.40549"><g transform="translate(-209.96192,-150.72381)"><g stroke="#000000" stroke-miterlimit="10"><g><path d="M268.0381,180c0,15.06422 -12.55309,27.27619 -28.03809,27.27619c-15.48501,0 -28.03809,-12.21197 -28.03809,-27.27619c0,-15.06422 12.55309,-27.27619 28.0381,-27.27619c15.48501,0 28.0381,12.21197 28.0381,27.27619z" fill="#ffffff" stroke-width="4" stroke-linecap="butt"/><g fill="none"><path d="M238.04924,183.76465c0,3.60782 -0.29671,6.53254 -0.66272,6.53254c-0.36601,0 -0.66273,-2.92472 -0.66273,-6.53254c0,-3.60782 0.29672,-6.53254 0.66273,-6.53254c0.36601,0 0.66272,2.92472 0.66272,6.53254z" stroke-width="4" stroke-linecap="butt"/><path d="M254.78889,183.84157c0,3.60782 -0.29671,6.53254 -0.66272,6.53254c-0.36601,0 -0.66272,-2.92472 -0.66272,-6.53254c0,-3.60782 0.29672,-6.53254 0.66272,-6.53254c0.36601,0 0.66272,2.92472 0.66272,6.53254z" stroke-width="4" stroke-linecap="butt"/><path d="M258.68827,164.92441l-12.6864,11.17159l-14.01183,-11.55029" stroke-width="2.5" stroke-linecap="round"/></g></g><g stroke-width="4"><path d="M235.86734,239.78252l-8.8219,48.46973" fill="none" stroke-linecap="round"/><path d="M246.78674,287.62201l-10.92393,-47.53074" fill="none" stroke-linecap="round"/><path d="M234.78367,289.23406c0,2.7772 -3.9206,2.89524 -8.38095,2.89524c-4.46036,0 -8.07619,-0.11803 -8.07619,-2.89524c0,-2.7772 3.61583,-7.1619 8.07619,-7.1619c4.46036,0 8.38095,4.3847 8.38095,7.1619z" fill="#ffffff" stroke-linecap="butt"/><path d="M262.59198,288.8404c0,2.7772 -3.9206,2.89524 -8.38095,2.89524c-4.46036,0 -8.07619,-0.11804 -8.07619,-2.89524c0,-2.7772 3.61584,-7.1619 8.07619,-7.1619c4.46035,0 8.38095,4.3847 8.38095,7.1619z" fill="#ffffff" stroke-linecap="butt"/></g><g stroke-width="4"><path d="M255.77573,251.32162c0.19688,4.20327 -3.05094,7.77031 -7.25422,7.96719c-4.20327,0.19688 -7.77031,-3.05094 -7.96719,-7.25422c-0.19688,-4.20327 3.05095,-7.77031 7.25422,-7.96719c4.20328,-0.19688 7.77031,3.05094 7.96719,7.25422z" fill="#ffffff" stroke-linecap="butt"/><path d="M227.23314,246.98813l8.17433,-30.81813l11.43631,28.4523" fill="none" stroke-linecap="round"/><path d="M233.63453,253.08783c0.19688,4.20327 -3.05094,7.77031 -7.25422,7.96719c-4.20327,0.19688 -7.77031,-3.05094 -7.96719,-7.25422c-0.19688,-4.20327 3.05094,-7.77031 7.25422,-7.96719c4.20327,-0.19688 7.77031,3.05094 7.96719,7.25422z" fill="#ffffff" stroke-linecap="butt"/></g><path d="M236.03935,208.3344v32.53953" fill="none" stroke-width="4" stroke-linecap="round"/></g></g></svg>