<svg version="1.1" xmlns="http://www.w3.org/2000/svg" xmlns:xlink="http://www.w3.org/1999/xlink" width="64.28968" height="144.98122" viewBox="0,0,64.28968,144.98122"><g transform="translate(-213.18136,-151.0203)"><g data-paper-data="{&quot;isPaintingLayer&quot;:true}" fill-rule="nonzero" stroke-width="4" stroke-linejoin="miter" stroke-miterlimit="10" stroke-dasharray="" stroke-dashoffset="0" style="mix-blend-mode: normal"><path d="M257.28237,231.70939l-13.30189,-2.25595l-4.56128,-14.63513" data-paper-data="{&quot;index&quot;:null}" fill="none" stroke="#000000" stroke-linecap="round"/><path d="M272.20604,227.00817c2.19114,3.59239 1.05519,8.28084 -2.53721,10.47199c-3.59239,2.19114 -8.28084,1.05519 -10.47198,-2.5372c-2.19114,-3.59239 -1.05519,-8.28084 2.5372,-10.47198c3.59239,-2.19114 8.28085,-1.0552 10.47198,2.5372z" data-paper-data="{&quot;index&quot;:null}" fill="#cccccc" stroke="#000000" stroke-linecap="butt"/><path d="M235.99145,239.50083c0,0 6.92963,18.10715 2.98141,24.18484c-3.67202,5.65252 -23.26927,8.46534 -23.26927,8.46534" fill="none" stroke="#000000" stroke-linecap="round"/><path d="M224.97358,286.39371c-2.35861,1.46622 -4.52873,-1.80113 -6.88357,-5.5892c-2.35484,-3.78808 -4.16357,-6.92123 -1.80496,-8.38745c2.35861,-1.46622 7.99141,-0.71027 10.34625,3.0778c2.35484,3.78807 0.70089,9.43264 -1.65772,10.89886z" fill="#cccccc" stroke="#000000" stroke-linecap="butt"/><path d="M239.92292,207.90634l-4.06592,32.28451" fill="none" stroke="#212121" stroke-linecap="round"/><path d="M275.42327,179.62741c0.3554,15.06003 -11.90609,27.56475 -27.38678,27.93008c-15.4807,0.36533 -28.3184,-11.54708 -28.6738,-26.60711c-0.3554,-15.06003 11.90609,-27.56475 27.38679,-27.93008c15.4807,-0.36533 28.31841,11.54708 28.67381,26.60711z" fill="#ffffff" stroke="#000000" stroke-linecap="butt"/><path d="M245.79482,184.09231c0.08512,3.60682 -0.14251,6.53773 -0.50843,6.54635c-0.3659,0.00863 -0.73154,-2.90827 -0.81666,-6.51508c-0.08512,-3.60682 0.14252,-6.53773 0.50844,-6.54635c0.3659,-0.00863 0.73153,2.90827 0.81665,6.51508z" fill="none" stroke="#000000" stroke-linecap="butt"/><path d="M262.53164,183.77427c0.08512,3.60682 -0.14251,6.53773 -0.50843,6.54635c-0.3659,0.00863 -0.73153,-2.90827 -0.81665,-6.51508c-0.08512,-3.60682 0.14252,-6.53773 0.50843,-6.54635c0.3659,-0.00863 0.73153,2.90827 0.81665,6.51508z" fill="none" stroke="#000000" stroke-linecap="butt"/><path d="M234.93137,290.64797l1.38799,-48.59832" fill="none" stroke="#212121" stroke-linecap="round"/><path d="M251.42852,291.37448c-0.111,2.77498 -4.03318,2.73622 -8.48997,2.55796c-4.45679,-0.17828 -8.06503,-0.44073 -7.95401,-3.21572c0.111,-2.77498 3.89918,-7.01165 8.35599,-6.83339c4.45679,0.17828 8.199,4.71616 8.08801,7.49115z" fill="#ffffff" stroke="#333333" stroke-linecap="butt"/><path d="M231.55062,238.83776l-8.15989,-14.80166l15.10147,-8.78257" fill="none" stroke="#333333" stroke-linecap="round"/><path d="M239.13758,238.89795c3.88308,1.6211 5.71679,6.08311 4.0957,9.96621c-1.6211,3.88308 -6.08311,5.71679 -9.96621,4.0957c-3.88308,-1.6211 -5.71679,-6.08311 -4.0957,-9.96621c1.6211,-3.88308 6.08311,-5.71679 9.96621,-4.0957z" fill="#ffffff" stroke="#333333" stroke-linecap="butt"/></g></g></svg>