<svg version="1.1" xmlns="http://www.w3.org/2000/svg" xmlns:xlink="http://www.w3.org/1999/xlink" width="86.9154" height="133.16327" viewBox="0,0,86.9154,133.16327"><g transform="translate(-190.26862,-142.73456)"><g data-paper-data="{&quot;isPaintingLayer&quot;:true}" fill-rule="nonzero" stroke-width="4" stroke-linejoin="miter" stroke-miterlimit="10" stroke-dasharray="" stroke-dashoffset="0" style="mix-blend-mode: normal"><path d="M217.44475,226.45319l3.39308,-13.05821l14.97357,-3.28401" data-paper-data="{&quot;index&quot;:null}" fill="none" stroke="#000000" stroke-linecap="round"/><path d="M221.11785,241.67409c-3.43335,2.43279 -8.18878,1.62167 -10.62156,-1.81167c-2.43279,-3.43335 -1.62167,-8.18878 1.81167,-10.62155c3.43335,-2.43279 8.18878,-1.62167 10.62155,1.81167c2.43279,3.43335 1.62167,8.18879 -1.81167,10.62155z" data-paper-data="{&quot;index&quot;:null}" fill="#cccccc" stroke="#000000" stroke-linecap="butt"/><path d="M234.46223,234.24282c0,0 -9.60952,10.09164 -16.75569,13.67648c-6.85061,3.43658 -23.72062,4.3831 -23.72062,4.3831" fill="none" stroke="#000000" stroke-linecap="round"/><path d="M194.76836,268.36835c-2.77162,-0.17608 -2.64085,-4.09627 -2.35807,-8.54765c0.28279,-4.45139 0.62984,-8.05244 3.40146,-7.87637c2.77162,0.17608 6.91824,4.06263 6.63546,8.51401c-0.28279,4.45138 -4.90723,8.08608 -7.67885,7.91002z" fill="#cccccc" stroke="#000000" stroke-linecap="butt"/><path d="M234.57977,232.16979l3.26664,-32.37515" fill="none" stroke="#212121" stroke-linecap="round"/><path d="M272.65951,171.25088c0.40302,15.05883 -11.81887,27.60226 -27.29833,28.01654c-15.47947,0.41427 -28.35476,-11.45749 -28.75778,-26.51632c-0.40302,-15.05883 11.81887,-27.60226 27.29834,-28.01654c15.47947,-0.41427 28.35477,11.45749 28.75779,26.51632z" fill="#ffffff" stroke="#000000" stroke-linecap="butt"/><path d="M243.0454,173.96631c0.09652,3.60653 -0.12184,6.53814 -0.48772,6.54793c-0.36588,0.00979 -0.74074,-2.90595 -0.83726,-6.51247c-0.09652,-3.60653 0.12185,-6.53814 0.48773,-6.54793c0.36588,-0.00979 0.74073,2.90595 0.83725,6.51247z" fill="none" stroke="#000000" stroke-linecap="butt"/><path d="M259.78113,173.59536c0.09652,3.60653 -0.12184,6.53814 -0.48772,6.54793c-0.36588,0.00979 -0.74073,-2.90595 -0.83725,-6.51247c-0.09652,-3.60653 0.12185,-6.53814 0.48772,-6.54793c0.36588,-0.00979 0.74073,2.90595 0.83725,6.51247z" fill="none" stroke="#000000" stroke-linecap="butt"/><path d="M236.16815,232.25843c0,0 18.42638,4.70526 19.77117,11.81526c1.13914,6.02264 -2.5563,23.94097 -2.5563,23.94097" fill="none" stroke="#212121" stroke-linecap="round"/><path d="M269.45299,272.00124c-0.59306,2.71315 -4.44842,1.99124 -8.8059,1.03877c-4.35747,-0.9525 -7.8647,-1.8399 -7.27164,-4.55307c0.59306,-2.71315 5.06178,-6.22457 9.41927,-5.27211c4.35747,0.9525 7.2513,6.07324 6.65826,8.78639z" fill="#ffffff" stroke="#333333" stroke-linecap="butt"/><path d="M260.47231,216.61336l-14.80083,8.16141l-8.78411,-15.10057" fill="none" stroke="#333333" stroke-linecap="round"/><path d="M260.53172,209.02639c1.6207,-3.88324 6.08253,-5.71742 9.96578,-4.09673c3.88324,1.6207 5.71742,6.08253 4.09673,9.96578c-1.6207,3.88324 -6.08253,5.71742 -9.96578,4.09673c-3.88324,-1.6207 -5.71742,-6.08253 -4.09673,-9.96578z" fill="#ffffff" stroke="#333333" stroke-linecap="butt"/></g></g></svg>