<svg version="1.1" xmlns="http://www.w3.org/2000/svg" xmlns:xlink="http://www.w3.org/1999/xlink" width="93.85217" height="115.71107" viewBox="0,0,93.85217,115.71107"><g transform="translate(-189.17249,-178.83355)"><g stroke-miterlimit="10"><path d="M252.52562,267.98067l-12.751,-27.27106" fill="none" stroke="#000000" stroke-width="4" stroke-linecap="round"/><path d="M261.71412,274.4855c0.9231,4.10538 -1.65662,8.18178 -5.76201,9.1049c-4.10538,0.9231 -8.18178,-1.65662 -9.1049,-5.76201c-0.9231,-4.10538 1.65663,-8.18179 5.76201,-9.1049c4.10539,-0.92311 8.18178,1.65662 9.1049,5.76201z" fill="#cccccc" stroke="#000000" stroke-width="4" stroke-linecap="butt"/><path d="M236.25889,262.02543c0,0 23.90262,3.61329 27.98979,8.70249c4.09065,5.09353 -4.4177,17.33361 -4.4177,17.33361" fill="none" stroke="#000000" stroke-width="4" stroke-linecap="round"/><path d="M273.20423,289.11505c0,2.7772 -3.9206,2.89524 -8.38095,2.89524c-4.46036,0 -8.07619,-0.11804 -8.07619,-2.89524c0,-2.7772 3.61584,-7.1619 8.07619,-7.1619c4.46035,0 8.38095,4.3847 8.38095,7.1619z" fill="#cccccc" stroke="#000000" stroke-width="4" stroke-linecap="butt"/><path d="M236.09821,260.7041c0,0 0.03826,-14.22372 2.47796,-20.16363c2.27566,-5.54053 8.17517,-17.34572 8.17517,-17.34572" fill="none" stroke="#212121" stroke-width="4" stroke-linecap="round"/><path d="M281.02464,208.10974c0,15.06422 -12.55309,27.27619 -28.03809,27.27619c-15.48501,0 -28.03809,-12.21197 -28.03809,-27.27619c0,-15.06422 12.55309,-27.27619 28.0381,-27.27619c15.48501,0 28.0381,12.21197 28.0381,27.27619z" fill="#ffffff" stroke="#000000" stroke-width="4" stroke-linecap="butt"/><path d="M251.03583,210.96454c0,2.43533 -0.29671,4.40955 -0.66272,4.40955c-0.36601,0 -0.66273,-1.97422 -0.66273,-4.40955c0,-2.43533 0.29672,-4.40956 0.66273,-4.40956c0.36601,0 0.66272,1.97423 0.66272,4.40956z" fill="none" stroke="#000000" stroke-width="4" stroke-linecap="butt"/><path d="M267.77545,211.04146c0,2.43533 -0.29671,4.40955 -0.66272,4.40955c-0.36601,0 -0.66272,-1.97422 -0.66272,-4.40955c0,-2.43533 0.29672,-4.40956 0.66272,-4.40956c0.36601,0 0.66272,1.97423 0.66272,4.40956z" fill="none" stroke="#000000" stroke-width="4" stroke-linecap="butt"/><path d="M236.15742,262.32683l-38.93396,30.18753" fill="none" stroke="#212121" stroke-width="4" stroke-linecap="round"/><path d="M207.62963,289.65006c-0.00023,2.7772 -3.92084,2.89493 -8.38118,2.89456c-4.46036,-0.00036 -8.07618,-0.11869 -8.07596,-2.8959c0.00023,-2.7772 3.61641,-7.16161 8.07677,-7.16124c4.46036,0.00036 8.38059,4.38538 8.38037,7.16258z" fill="#ffffff" stroke="#333333" stroke-width="4" stroke-linecap="butt"/><path d="M237.56742,240.75415l-1.86367,31.82929" fill="none" stroke="#333333" stroke-width="4" stroke-linecap="round"/><path d="M244.5052,277.01681c1.03123,4.07956 -1.43991,8.22268 -5.51949,9.25392c-4.07956,1.03123 -8.22268,-1.43991 -9.25392,-5.51949c-1.03123,-4.07956 1.43991,-8.22268 5.51949,-9.25392c4.07956,-1.03123 8.22268,1.43991 9.25392,5.51949z" fill="#ffffff" stroke="#333333" stroke-width="4" stroke-linecap="butt"/><path d="M256.10452,207.844l-16.07615,-8.44381" fill="none" stroke="#000000" stroke-width="2.5" stroke-linecap="round"/></g></g></svg>