<svg version="1.1" xmlns="http://www.w3.org/2000/svg" xmlns:xlink="http://www.w3.org/1999/xlink" width="128.82315" height="95.09675" viewBox="0,0,128.82315,95.09675"><g transform="translate(-179.48627,-200.7291)"><g stroke-miterlimit="10"><path d="M276.3227,281.5353l-32.74426,-29.46463" fill="none" stroke="#000000" stroke-width="4" stroke-linecap="round"/><path d="M291.35357,281.89148c1.92628,3.74108 0.45508,8.3354 -3.28601,10.26167c-3.74108,1.92628 -8.3354,0.45509 -10.26168,-3.28601c-1.92628,-3.74108 -0.45508,-8.33541 3.28601,-10.26168c3.74109,-1.92628 8.3354,-0.45508 10.26168,3.28601z" fill="#cccccc" stroke="#000000" stroke-width="4" stroke-linecap="butt"/><path d="M223.70531,260.36745c0,0 26.47499,25.36552 30.10333,30.43468c3.39748,4.74664 -31.6502,-8.6856 -31.6502,-8.6856" fill="none" stroke="#000000" stroke-width="4" stroke-linecap="round"/><path d="M205.2955,285.73862c-0.51665,-2.72872 3.31356,-3.57405 7.69605,-4.40382c4.3825,-0.82977 7.95717,-1.38644 8.47382,1.34228c0.51665,2.72872 -2.22039,7.70954 -6.60288,8.5393c-4.38249,0.82976 -9.05034,-2.74904 -9.56699,-5.47776z" fill="#cccccc" stroke="#000000" stroke-width="4" stroke-linecap="butt"/><path d="M224.4213,259.29047l31.58117,-11.87472" fill="none" stroke="#212121" stroke-width="4" stroke-linecap="round"/><path d="M299.86999,248.58901c-9.80947,11.43263 -27.28848,12.52634 -39.04046,2.44287c-11.75198,-10.08347 -13.3267,-27.52573 -3.51723,-38.95836c9.80947,-11.43263 27.28848,-12.52634 39.04047,-2.44287c11.75198,10.08347 13.32671,27.52574 3.51724,38.95837z" fill="#ffffff" stroke="#000000" stroke-width="4" stroke-linecap="butt"/><path d="M278.53678,232.73032c-0.08507,3.22759 -0.45067,5.83782 -0.81658,5.8301c-0.36591,-0.00772 -0.59358,-2.63047 -0.50851,-5.85806c0.08507,-3.22759 0.45068,-5.83782 0.81659,-5.8301c0.36591,0.00772 0.59357,2.63047 0.5085,5.85806z" fill="none" stroke="#000000" stroke-width="4" stroke-linecap="butt"/><path d="M295.26996,233.15236c-0.08507,3.22759 -0.45067,5.83782 -0.81658,5.8301c-0.36591,-0.00772 -0.59357,-2.63047 -0.5085,-5.85806c0.08507,-3.22759 0.45068,-5.83782 0.81658,-5.8301c0.36591,0.00772 0.59357,2.63047 0.5085,5.85806z" fill="none" stroke="#000000" stroke-width="4" stroke-linecap="butt"/><path d="M223.41685,260.9541c0,0 10.30741,29.84546 2.50345,30.84676c-8.43535,1.08232 -29.87563,-8.16036 -29.87563,-8.16036" fill="none" stroke="#212121" stroke-width="4" stroke-linecap="round"/><path d="M181.91495,292.80237c-1.6004,-2.2697 1.53573,-4.62548 5.181,-7.19583c3.64529,-2.57036 6.66839,-4.55757 8.2688,-2.28786c1.6004,2.2697 1.17208,7.93682 -2.47321,10.50718c-3.64529,2.57036 -9.37619,1.24621 -10.97659,-1.02349z" fill="#ffffff" stroke="#333333" stroke-width="4" stroke-linecap="butt"/><path d="M243.30609,274.57857l-14.31835,-5.7801l13.57603,-15.89485" fill="none" stroke="#333333" stroke-width="4" stroke-linecap="round"/><path d="M257.52029,281.22687c-2.58765,3.31818 -7.37528,3.91039 -10.69347,1.32273c-3.31818,-2.58765 -3.91039,-7.37528 -1.32273,-10.69347c2.58765,-3.31818 7.37528,-3.91039 10.69347,-1.32273c3.31818,2.58765 3.91039,7.37528 1.32273,10.69347z" fill="#ffffff" stroke="#333333" stroke-width="4" stroke-linecap="butt"/><path d="M263.0594,218.28723l20.52879,6.31678" fill="none" stroke="#000000" stroke-width="2.5" stroke-linecap="round"/><path d="M277.54825,239.42182l-4.89231,-0.32615" fill="none" stroke="#000000" stroke-width="2.5" stroke-linecap="round"/></g></g></svg>