<svg version="1.1" xmlns="http://www.w3.org/2000/svg" xmlns:xlink="http://www.w3.org/1999/xlink" width="60.0762" height="143.09462" viewBox="0,0,60.0762,143.09462"><g transform="translate(-207.21989,-151.10621)"><g stroke-miterlimit="10"><path d="M244.4052,241.97214l-9.91299,-28.4259" fill="none" stroke="#000000" stroke-width="4" stroke-linecap="round"/><path d="M254.0815,248.55078c0.50104,4.17794 -2.47969,7.97102 -6.65765,8.47206c-4.17794,0.50104 -7.97102,-2.47969 -8.47206,-6.65765c-0.50104,-4.17794 2.4797,-7.97102 6.65765,-8.47206c4.17795,-0.50104 7.97102,2.47969 8.47206,6.65765z" fill="#cccccc" stroke="#000000" stroke-width="4" stroke-linecap="butt"/><path d="M263.7659,288.91193c0,2.7772 -3.9206,2.89524 -8.38095,2.89524c-4.46036,0 -8.07619,-0.11804 -8.07619,-2.89524c0,-2.7772 3.61584,-7.1619 8.07619,-7.1619c4.46035,0 8.38095,4.3847 8.38095,7.1619z" fill="#cccccc" stroke="#000000" stroke-width="4" stroke-linecap="butt"/><path d="M233.43171,241.09541l13.41089,46.59813" fill="none" stroke="#000000" stroke-width="4" stroke-linecap="round"/><path d="M233.29739,208.7168v32.53953" fill="none" stroke="#212121" stroke-width="4" stroke-linecap="round"/><g stroke="#000000"><path d="M265.29607,180.3824c0,15.06422 -12.55309,27.27619 -28.03809,27.27619c-15.48501,0 -28.03809,-12.21197 -28.03809,-27.27619c0,-15.06422 12.55309,-27.27619 28.0381,-27.27619c15.48501,0 28.0381,12.21197 28.0381,27.27619z" fill="#ffffff" stroke-width="4" stroke-linecap="butt"/><g fill="none"><path d="M235.30727,184.14705c0,3.60782 -0.29671,6.53254 -0.66272,6.53254c-0.36601,0 -0.66273,-2.92472 -0.66273,-6.53254c0,-3.60782 0.29672,-6.53254 0.66273,-6.53254c0.36601,0 0.66272,2.92472 0.66272,6.53254z" stroke-width="4" stroke-linecap="butt"/><path d="M252.04693,184.22397c0,3.60782 -0.29671,6.53254 -0.66272,6.53254c-0.36601,0 -0.66272,-2.92472 -0.66272,-6.53254c0,-3.60782 0.29672,-6.53254 0.66272,-6.53254c0.36601,0 0.66272,2.92472 0.66272,6.53254z" stroke-width="4" stroke-linecap="butt"/><path d="M255.94626,165.30681l-12.6864,11.17159l-14.01183,-11.55029" stroke-width="2.5" stroke-linecap="round"/></g></g><path d="M227.10132,288.32378l6.33494,-47.84799" fill="none" stroke="#212121" stroke-width="4" stroke-linecap="round"/><path d="M234.83955,289.30559c0,2.7772 -3.9206,2.89524 -8.38095,2.89524c-4.46036,0 -8.07619,-0.11803 -8.07619,-2.89524c0,-2.7772 3.61583,-7.1619 8.07619,-7.1619c4.46036,0 8.38095,4.3847 8.38095,7.1619z" fill="#ffffff" stroke="#333333" stroke-width="4" stroke-linecap="butt"/><path d="M232.29649,214.4353l-3.18945,31.72387" fill="none" stroke="#333333" stroke-width="4" stroke-linecap="round"/><path d="M238.00382,250.62348c0.8602,4.11902 -1.78158,8.15548 -5.90061,9.01569c-4.11902,0.8602 -8.15548,-1.78158 -9.01569,-5.90061c-0.8602,-4.11902 1.78158,-8.15548 5.90061,-9.01569c4.11902,-0.8602 8.15548,1.78158 9.01569,5.90061z" fill="#ffffff" stroke="#333333" stroke-width="4" stroke-linecap="butt"/></g></g></svg>