<svg version="1.1" xmlns="http://www.w3.org/2000/svg" xmlns:xlink="http://www.w3.org/1999/xlink" width="60.0761" height="144.82064" viewBox="0,0,60.0761,144.82064"><g transform="translate(-212.79467,-148.915)"><g stroke-miterlimit="10"><path d="M246.69002,243.0379l-7.22507,-15.07492l2.30961,-13.16868" fill="none" stroke="#000000" stroke-width="4" stroke-linecap="round"/><path d="M247.55524,234.98328c2.77591,-3.16236 7.63379,-3.4601 10.79616,-0.68419c3.16237,2.77591 3.47565,7.58985 0.69974,10.75222c-2.77591,3.16237 -7.58985,3.47565 -10.75221,0.69975c-3.16237,-2.77591 -3.51961,-7.60539 -0.74369,-10.76778z" fill="#cccccc" stroke="#000000" stroke-width="4" stroke-linecap="butt"/><path d="M246.72696,289.07296l-5.07185,-48.50546" fill="none" stroke="#000000" stroke-width="4" stroke-linecap="round"/><path d="M263.71011,288.8404c0,2.7772 -3.9206,2.89524 -8.38095,2.89524c-4.46036,0 -8.07619,-0.11804 -8.07619,-2.89524c0,-2.7772 3.61584,-7.1619 8.07619,-7.1619c4.46035,0 8.38095,4.3847 8.38095,7.1619z" fill="#cccccc" stroke="#000000" stroke-width="4" stroke-linecap="butt"/><path d="M241.59926,240.10428l0.08231,-32.53942" fill="none" stroke="#212121" stroke-width="4" stroke-linecap="round"/><path d="M270.87075,178.26211c-0.03811,15.06418 -12.62205,27.24434 -28.107,27.20519c-15.48496,-0.03917 -28.00711,-12.28285 -27.969,-27.34703c0.03811,-15.06418 12.62205,-27.24434 28.10701,-27.20518c15.48496,0.03917 28.00712,12.28286 27.96901,27.34703z" fill="#ffffff" stroke="#000000" stroke-width="4" stroke-linecap="butt"/><path d="M241.93686,236.06225c0,0 -1.10976,14.20021 -3.52112,21.8427c-2.52478,8.00194 -6.39359,24.85526 -6.39359,24.85526" fill="none" stroke="#212121" stroke-width="4" stroke-linecap="round"/><path d="M241.09333,285.85348c0,2.7772 -3.9206,2.89524 -8.38095,2.89524c-4.46036,0 -8.07619,-0.11803 -8.07619,-2.89524c0,-2.7772 3.61583,-7.1619 8.07619,-7.1619c4.46036,0 8.38095,4.3847 8.38095,7.1619z" fill="#ffffff" stroke="#333333" stroke-width="4" stroke-linecap="butt"/><path d="M233.73368,222.89694l5.37137,-6.22732" fill="none" stroke="#333333" stroke-width="4" stroke-linecap="round"/><path d="M239.21872,229.24512c-3.39047,2.49217 -8.1593,1.76397 -10.65148,-1.62651c-2.49217,-3.39047 -1.76397,-8.15931 1.62651,-10.65149c3.39047,-2.49217 8.15931,-1.76397 10.65149,1.62651c2.49217,3.39047 1.76397,8.1593 -1.62651,10.65148z" fill="#ffffff" stroke="#333333" stroke-width="4" stroke-linecap="butt"/><g fill="none" stroke="#000000"><path d="M241.748,182.59885c-0.00913,3.6078 -0.88193,6.53033 -1.94945,6.52763c-1.06752,-0.0027 -1.92555,-2.9296 -1.91643,-6.53741c0.00913,-3.6078 0.88196,-6.53033 1.94948,-6.52763c1.06752,0.0027 1.92553,2.9296 1.91641,6.53741z" stroke-width="2" stroke-linecap="butt"/><path d="M261.44324,163.80837l-12.71462,11.13945l-13.98257,-11.5857" stroke-width="2.5" stroke-linecap="round"/><path d="M259.20378,182.80925c-0.00913,3.6078 -0.88193,6.53032 -1.94945,6.52763c-1.06752,-0.0027 -1.92555,-2.9296 -1.91643,-6.53741c0.00913,-3.6078 0.88196,-6.53033 1.94948,-6.52763c1.06752,0.0027 1.92552,2.9296 1.9164,6.53741z" stroke-width="2" stroke-linecap="butt"/></g></g></g></svg>