<svg version="1.1" xmlns="http://www.w3.org/2000/svg" xmlns:xlink="http://www.w3.org/1999/xlink" width="79.46593" height="134.91339" viewBox="0,0,79.46593,134.91339"><g transform="translate(-201.2341,-142.85007)"><g data-paper-data="{&quot;isPaintingLayer&quot;:true}" fill-rule="nonzero" stroke="#000000" stroke-width="4" stroke-linejoin="miter" stroke-miterlimit="10" stroke-dasharray="" stroke-dashoffset="0" style="mix-blend-mode: normal"><path d="M236.57211,234.84562c0,0 -6.34195,10.15403 -11.73362,16.7281c-4.69199,5.72095 -21.60439,9.16536 -21.60439,9.16536" fill="none" stroke-linecap="round"/><path d="M235.83318,235.36953c0,0 18.81661,0.57793 25.04183,6.21183c5.62582,5.09144 -6.19214,21.26918 -6.19214,21.26918" fill="none" stroke-linecap="round"/><path d="M209.53127,275.62819c-2.62935,0.89404 -4.00324,-2.77986 -5.43912,-7.00277c-1.43588,-4.22293 -2.48813,-7.68427 0.14123,-8.57832c2.62935,-0.89404 7.94465,1.11778 9.38055,5.34069c1.43588,4.22293 -1.45328,9.34632 -4.08265,10.24037z" fill="#ffffff" stroke-linecap="butt"/><path d="M270.73112,263.49395c-0.02985,2.77704 -3.9515,2.85293 -8.41158,2.80499c-4.4601,-0.04794 -8.07446,-0.20484 -8.04461,-2.98188c0.02985,-2.77704 3.69261,-7.12262 8.15271,-7.07467c4.4601,0.04794 8.33333,4.47454 8.30348,7.25157z" fill="#ffffff" stroke-linecap="butt"/><path d="M235.83345,201.44945v32.53953" fill="none" stroke-linecap="round"/><path d="M267.51007,172.12626c0,15.06422 -12.55309,27.27619 -28.03809,27.27619c-15.48501,0 -28.03809,-12.21197 -28.03809,-27.27619c0,-15.06422 12.55309,-27.27619 28.0381,-27.27619c15.48501,0 28.0381,12.21197 28.0381,27.27619z" fill="#ffffff" stroke-linecap="butt"/><g fill="none" stroke-linecap="butt"><path d="M239.22364,172.76986c0,3.60782 -0.29671,6.53254 -0.66272,6.53254c-0.36601,0 -0.66273,-2.92472 -0.66273,-6.53254c0,-3.60782 0.29672,-6.53254 0.66273,-6.53254c0.36601,0 0.66272,2.92472 0.66272,6.53254z"/><path d="M255.96329,172.84678c0,3.60782 -0.29671,6.53254 -0.66272,6.53254c-0.36601,0 -0.66272,-2.92472 -0.66272,-6.53254c0,-3.60782 0.29672,-6.53254 0.66272,-6.53254c0.36601,0 0.66272,2.92472 0.66272,6.53254z"/></g><path d="M265.91753,211.5782l-13.79791,9.30486l-15.69915,-9.99644" fill="none" stroke-linecap="round"/><path d="M275.78965,201.65864c3.30796,2.6007 3.88132,7.39063 1.2806,10.69859c-2.6007,3.30797 -7.39064,3.88131 -10.6986,1.2806c-3.30796,-2.6007 -3.88131,-7.39064 -1.2806,-10.69859c2.6007,-3.30797 7.39063,-3.88132 10.69859,-1.2806z" fill="#ffffff" stroke-linecap="butt"/><path d="M217.96469,230.53808l-0.75942,-17.70406l18.90183,-2.53278" fill="none" stroke-linecap="round"/><path d="M225.50249,238.34715c-2.24681,3.55783 -6.9524,4.62063 -10.51023,2.3738c-3.55783,-2.24681 -4.62062,-6.9524 -2.37379,-10.51023c2.24681,-3.55783 6.9524,-4.62063 10.51023,-2.3738c3.55783,2.24681 4.62062,6.9524 2.37379,10.51023z" fill="#ffffff" stroke-linecap="butt"/></g></g></svg>