<svg version="1.1" xmlns="http://www.w3.org/2000/svg" xmlns:xlink="http://www.w3.org/1999/xlink" width="60.0762" height="145.89245" viewBox="0,0,60.0762,145.89245"><g transform="translate(-208.40757,-148.23685)"><g data-paper-data="{&quot;isPaintingLayer&quot;:true}" fill-rule="nonzero" stroke-linejoin="miter" stroke-miterlimit="10" stroke-dasharray="" stroke-dashoffset="0" style="mix-blend-mode: normal"><path d="M235.51079,212.12994l10.52863,28.20367" fill="none" stroke="#000000" stroke-width="4" stroke-linecap="round"/><path d="M255.54557,247.01121c0.59175,4.16606 -2.3058,8.02305 -6.47188,8.61479c-4.16606,0.59175 -8.02305,-2.3058 -8.61479,-6.47188c-0.59175,-4.16606 2.30581,-8.02305 6.47188,-8.61479c4.16607,-0.59175 8.02305,2.3058 8.61479,6.47188z" fill="#cccccc" stroke="#000000" stroke-width="4" stroke-linecap="butt"/><path d="M263.71007,288.8404c0,2.7772 -3.9206,2.89524 -8.38095,2.89524c-4.46036,0 -8.07619,-0.11804 -8.07619,-2.89524c0,-2.7772 3.61584,-7.1619 8.07619,-7.1619c4.46035,0 8.38095,4.3847 8.38095,7.1619z" fill="#cccccc" stroke="#000000" stroke-width="4" stroke-linecap="butt"/><path d="M246.78678,287.62201l-12.16741,-47.84161" fill="none" stroke="#000000" stroke-width="4" stroke-linecap="round"/><path d="M234.48504,238.38697v-32.53953" fill="none" stroke="#212121" stroke-width="4" stroke-linecap="round"/><g stroke="#000000"><path d="M266.48375,177.51304c0,15.06422 -12.55309,27.27619 -28.03809,27.27619c-15.48501,0 -28.03809,-12.21197 -28.03809,-27.27619c0,-15.06422 12.55309,-27.27619 28.0381,-27.27619c15.48501,0 28.0381,12.21197 28.0381,27.27619z" fill="#ffffff" stroke-width="4" stroke-linecap="butt"/><g fill="none"><path d="M236.49493,181.27769c0,3.60782 -0.29671,6.53254 -0.66272,6.53254c-0.36601,0 -0.66273,-2.92472 -0.66273,-6.53254c0,-3.60782 0.29672,-6.53254 0.66273,-6.53254c0.36601,0 0.66272,2.92472 0.66272,6.53254z" stroke-width="4" stroke-linecap="butt"/><path d="M253.23458,181.35461c0,3.60782 -0.29671,6.53254 -0.66272,6.53254c-0.36601,0 -0.66272,-2.92472 -0.66272,-6.53254c0,-3.60782 0.29672,-6.53254 0.66272,-6.53254c0.36601,0 0.66272,2.92472 0.66272,6.53254z" stroke-width="4" stroke-linecap="butt"/><path d="M257.13392,162.43745l-12.6864,11.17159l-14.01183,-11.55029" stroke-width="2.5" stroke-linecap="round"/></g></g><path d="M227.04549,288.25225l7.57842,-48.7806" fill="none" stroke="#212121" stroke-width="4" stroke-linecap="round"/><path d="M234.78372,289.23406c0,2.7772 -3.9206,2.89524 -8.38095,2.89524c-4.46036,0 -8.07619,-0.11803 -8.07619,-2.89524c0,-2.7772 3.61583,-7.1619 8.07619,-7.1619c4.46036,0 8.38095,4.3847 8.38095,7.1619z" fill="#ffffff" stroke="#333333" stroke-width="4" stroke-linecap="butt"/><path d="M228.10298,243.8444l5.44721,-31.41504" fill="none" stroke="#333333" stroke-width="4" stroke-linecap="round"/><path d="M236.3473,249.24363c0.5638,4.16994 -2.35954,8.0074 -6.52949,8.57121c-4.16994,0.5638 -8.0074,-2.35954 -8.57121,-6.52949c-0.5638,-4.16994 2.35954,-8.0074 6.52949,-8.57121c4.16994,-0.5638 8.0074,2.35954 8.57121,6.52949z" fill="#ffffff" stroke="#333333" stroke-width="4" stroke-linecap="butt"/></g></g></svg>