<svg version="1.1" xmlns="http://www.w3.org/2000/svg" xmlns:xlink="http://www.w3.org/1999/xlink" width="60.0762" height="144.06094" viewBox="0,0,60.0762,144.06094"><g transform="translate(-209.30648,-150.06836)"><g stroke="#000000" stroke-miterlimit="10"><g><path d="M267.38266,179.34455c0,15.06422 -12.55309,27.27619 -28.03809,27.27619c-15.48501,0 -28.03809,-12.21197 -28.03809,-27.27619c0,-15.06422 12.55309,-27.27619 28.0381,-27.27619c15.48501,0 28.0381,12.21197 28.0381,27.27619z" fill="#ffffff" stroke-width="4" stroke-linecap="butt"/><g fill="none"><path d="M237.3938,183.1092c0,3.60782 -0.29671,6.53254 -0.66272,6.53254c-0.36601,0 -0.66273,-2.92472 -0.66273,-6.53254c0,-3.60782 0.29672,-6.53254 0.66273,-6.53254c0.36601,0 0.66272,2.92472 0.66272,6.53254z" stroke-width="4" stroke-linecap="butt"/><path d="M254.13345,183.18612c0,3.60782 -0.29671,6.53254 -0.66272,6.53254c-0.36601,0 -0.66272,-2.92472 -0.66272,-6.53254c0,-3.60782 0.29672,-6.53254 0.66272,-6.53254c0.36601,0 0.66272,2.92472 0.66272,6.53254z" stroke-width="4" stroke-linecap="butt"/><path d="M258.03283,164.26896l-12.6864,11.17159l-14.01183,-11.55029" stroke-width="2.5" stroke-linecap="round"/></g></g><g stroke-width="4"><path d="M227.04545,288.25225l8.15523,-47.46973" fill="none" stroke-linecap="round"/><path d="M246.78675,287.62201l-11.25727,-46.86408" fill="none" stroke-linecap="round"/><path d="M234.78368,289.23406c0,2.7772 -3.9206,2.89524 -8.38095,2.89524c-4.46036,0 -8.07619,-0.11803 -8.07619,-2.89524c0,-2.7772 3.61583,-7.1619 8.07619,-7.1619c4.46036,0 8.38095,4.3847 8.38095,7.1619z" fill="#ffffff" stroke-linecap="butt"/><path d="M262.59199,288.8404c0,2.7772 -3.9206,2.89524 -8.38095,2.89524c-4.46036,0 -8.07619,-0.11804 -8.07619,-2.89524c0,-2.7772 3.61584,-7.1619 8.07619,-7.1619c4.46035,0 8.38095,4.3847 8.38095,7.1619z" fill="#ffffff" stroke-linecap="butt"/></g><g stroke-width="4"><path d="M254.47397,250.76087c0.10067,4.20668 -3.22791,7.69848 -7.4346,7.79914c-4.20668,0.10067 -7.69848,-3.22791 -7.79914,-7.4346c-0.10067,-4.20668 3.22792,-7.69848 7.4346,-7.79914c4.20669,-0.10067 7.69848,3.22791 7.79914,7.4346z" fill="#ffffff" stroke-linecap="butt"/><path d="M226.038,245.7755l8.87726,-30.62305l10.78237,28.70649" fill="none" stroke-linecap="round"/><path d="M232.29816,252.02006c0.10067,4.20668 -3.22791,7.69848 -7.4346,7.79914c-4.20668,0.10067 -7.69848,-3.22791 -7.79914,-7.4346c-0.10067,-4.20668 3.22791,-7.69848 7.4346,-7.79914c4.20668,-0.10067 7.69848,3.22791 7.79914,7.4346z" fill="#ffffff" stroke-linecap="butt"/></g><path d="M235.70602,241.20727v-32.53953" fill="none" stroke-width="4" stroke-linecap="round"/></g></g></svg>