<svg version="1.1" xmlns="http://www.w3.org/2000/svg" xmlns:xlink="http://www.w3.org/1999/xlink" width="73.22601" height="136.08429" viewBox="0,0,73.22601,136.08429"><g transform="translate(-208.66695,-147.76671)"><g data-paper-data="{&quot;isPaintingLayer&quot;:true}" fill-rule="nonzero" stroke="#000000" stroke-width="4" stroke-linejoin="miter" stroke-miterlimit="10" stroke-dasharray="" stroke-dashoffset="0" style="mix-blend-mode: normal"><path d="M236.5508,239.89391c0,0 -0.68458,15.13487 -6.04249,20.31131c-5.11232,4.93918 -19.03595,4.55107 -19.03595,4.55107" fill="none" stroke-linecap="round"/><path d="M233.98261,239.54481c0,0 18.34793,4.21331 23.3634,10.94676c4.53254,6.08512 -4.21206,22.42806 -4.21206,22.42806" fill="none" stroke-linecap="round"/><path d="M214.76488,281.53116c-2.74692,0.40901 -3.44106,-3.45147 -4.09793,-7.86318c-0.65688,-4.41173 -1.07264,-8.0055 1.67428,-8.41451c2.74692,-0.40901 7.61631,2.52166 8.2732,6.93339c0.65688,4.41173 -3.10262,8.93531 -5.84955,9.34431z" fill="#ffffff" stroke-linecap="butt"/><path d="M268.30021,276.45891c-0.56743,2.71862 -4.42944,2.03312 -8.7957,1.12179c-4.36627,-0.91132 -7.88171,-1.76565 -7.31428,-4.48427c0.56743,-2.71862 5.00286,-6.27204 9.36912,-5.36071c4.36627,0.91132 7.30827,6.00457 6.74085,8.72318z" fill="#ffffff" stroke-linecap="butt"/><path d="M235.70604,238.90562v-32.53953" fill="none" stroke-linecap="round"/><path d="M267.38266,177.0429c0,15.06422 -12.55309,27.27619 -28.03809,27.27619c-15.48501,0 -28.03809,-12.21197 -28.03809,-27.27619c0,-15.06422 12.55309,-27.27619 28.0381,-27.27619c15.48501,0 28.0381,12.21197 28.0381,27.27619z" fill="#ffffff" stroke-linecap="butt"/><g fill="none" stroke-linecap="butt"><path d="M239.37996,179.38888c0,3.60782 -0.29671,6.53254 -0.66272,6.53254c-0.36601,0 -0.66273,-2.92472 -0.66273,-6.53254c0,-3.60782 0.29672,-6.53254 0.66273,-6.53254c0.36601,0 0.66272,2.92472 0.66272,6.53254z"/><path d="M256.11961,179.4658c0,3.60782 -0.29671,6.53254 -0.66272,6.53254c-0.36601,0 -0.66272,-2.92472 -0.66272,-6.53254c0,-3.60782 0.29672,-6.53254 0.66272,-6.53254c0.36601,0 0.66272,2.92472 0.66272,6.53254z"/></g><path d="M264.06104,224.92151l-16.0973,4.22373l-11.5149,-14.62186" fill="none" stroke-linecap="round"/><path d="M278.6964,219.14288c2.26297,3.54757 1.22161,8.25795 -2.32597,10.52092c-3.54757,2.26298 -8.25795,1.2216 -10.52092,-2.32598c-2.26297,-3.54757 -1.2216,-8.25795 2.32597,-10.52092c3.54757,-2.26298 8.25795,-1.22161 10.52092,2.32597z" fill="#ffffff" stroke-linecap="butt"/><path d="M225.20075,238.52724l-7.64798,-13.60774l16.85516,-9.94909" fill="none" stroke-linecap="round"/><path d="M235.14326,242.99121c-1.21358,4.02909 -5.4636,6.31151 -9.49269,5.09792c-4.02909,-1.21358 -6.3115,-5.4636 -5.09791,-9.49269c1.21358,-4.02909 5.4636,-6.31151 9.49269,-5.09792c4.02909,1.21358 6.3115,5.4636 5.09791,9.49269z" fill="#ffffff" stroke-linecap="butt"/></g></g></svg>