<svg version="1.1" xmlns="http://www.w3.org/2000/svg" xmlns:xlink="http://www.w3.org/1999/xlink" width="64.06186" height="124.03549" viewBox="0,0,64.06186,124.03549"><g transform="translate(-205.54234,-170.09381)"><g stroke-miterlimit="10"><path d="M252.50044,252.20176l-13.44597,-1.51608l-3.48318,-15.01729" fill="none" stroke="#000000" stroke-width="4" stroke-linecap="round"/><path d="M267.53684,252.00465c0.55472,4.17115 -2.37697,8.00225 -6.54814,8.55697c-4.17115,0.55472 -8.00225,-2.37697 -8.55697,-6.54814c-0.55472,-4.17115 2.37698,-8.00225 6.54814,-8.55697c4.17116,-0.55472 8.00225,2.37697 8.55697,6.54814z" fill="#cccccc" stroke="#000000" stroke-width="4" stroke-linecap="butt"/><path d="M234.10203,257.99385c0,0 10.15548,-3.39805 11.85525,0.39362c2.20159,4.9111 0.82959,29.23454 0.82959,29.23454" fill="none" stroke="#000000" stroke-width="4" stroke-linecap="round"/><path d="M263.71011,288.8404c0,2.7772 -3.9206,2.89524 -8.38095,2.89524c-4.46036,0 -8.07619,-0.11804 -8.07619,-2.89524c0,-2.7772 3.61584,-7.1619 8.07619,-7.1619c4.46035,0 8.38095,4.3847 8.38095,7.1619z" fill="#cccccc" stroke="#000000" stroke-width="4" stroke-linecap="butt"/><path d="M234.84816,257.60257v-32.53953" fill="none" stroke="#212121" stroke-width="4" stroke-linecap="round"/><path d="M263.61852,199.37c0,15.06422 -12.55309,27.27619 -28.03809,27.27619c-15.48501,0 -28.03809,-12.21197 -28.03809,-27.27619c0,-15.06422 12.55309,-27.27619 28.0381,-27.27619c15.48501,0 28.0381,12.21197 28.0381,27.27619z" fill="#ffffff" stroke="#000000" stroke-width="4" stroke-linecap="butt"/><path d="M233.45031,235.76595l-5.91571,11.38861l-3.74943,2.26539" fill="none" stroke="#333333" stroke-width="4" stroke-linecap="round"/><path d="M227.32236,247.22486c1.29285,3.57625 -0.55821,7.52345 -4.13446,8.81631c-3.57625,1.29285 -7.52344,-0.55821 -8.8163,-4.13446c-1.29285,-3.57625 0.5582,-7.52344 4.13446,-8.8163c3.57625,-1.29285 7.52345,0.5582 8.81631,4.13446z" fill="#ffffff" stroke="#333333" stroke-width="4" stroke-linecap="butt"/><g fill="none" stroke="#000000"><path d="M231.72659,202.24071c0.34492,3.59129 -0.23691,6.58535 -1.29955,6.68741c-1.06264,0.10206 -2.20372,-2.72653 -2.54863,-6.31782c-0.34492,-3.59129 0.23694,-6.58536 1.29958,-6.68741c1.06264,-0.10206 2.20369,2.72653 2.5486,6.31783z" stroke-width="2" stroke-linecap="butt"/><path d="M249.48305,181.6084l-11.56026,12.33327l-15.05189,-10.15782" stroke-width="2.5" stroke-linecap="round"/><path d="M249.11877,200.73731c0.34492,3.59129 -0.23691,6.58535 -1.29955,6.68741c-1.06264,0.10206 -2.20372,-2.72653 -2.54863,-6.31782c-0.34492,-3.59129 0.23694,-6.58536 1.29958,-6.68741c1.06264,-0.10206 2.20369,2.72653 2.5486,6.31783z" stroke-width="2" stroke-linecap="butt"/></g><path d="M227.0456,288.25225c0,0 -3.24249,-20.44926 -1.77619,-28.50549c1.47429,-8.10011 9.13066,-2.06167 9.13066,-2.06167" fill="none" stroke="#212121" stroke-width="4" stroke-linecap="round"/><path d="M234.78382,289.23406c0,2.7772 -3.9206,2.89524 -8.38095,2.89524c-4.46036,0 -8.07619,-0.11803 -8.07619,-2.89524c0,-2.7772 3.61583,-7.1619 8.07619,-7.1619c4.46036,0 8.38095,4.3847 8.38095,7.1619z" fill="#ffffff" stroke="#333333" stroke-width="4" stroke-linecap="butt"/></g></g></svg>