<svg version="1.1" xmlns="http://www.w3.org/2000/svg" xmlns:xlink="http://www.w3.org/1999/xlink" width="60.16778" height="119.9267" viewBox="0,0,60.16778,119.9267"><g transform="translate(-205.54233,-174.2026)"><g stroke-miterlimit="10"><path d="M245.3734,262.80256l-8.57187,-12.63605l-2.18944,-15.25968" fill="none" stroke="#000000" stroke-width="4" stroke-linecap="round"/><path d="M259.19786,265.94324c0.19688,4.20327 -3.05094,7.77031 -7.25422,7.96719c-4.20327,0.19688 -7.77031,-3.05094 -7.96719,-7.25422c-0.19688,-4.20327 3.05095,-7.77031 7.25422,-7.96719c4.20328,-0.19688 7.77031,3.05094 7.96719,7.25422z" fill="#cccccc" stroke="#000000" stroke-width="4" stroke-linecap="butt"/><path d="M234.68898,260.63521c0,0 6.34018,-7.80032 8.03995,-4.00865c2.20159,4.9111 4.05792,30.99545 4.05792,30.99545" fill="none" stroke="#000000" stroke-width="4" stroke-linecap="round"/><path d="M263.71011,288.8404c0,2.7772 -3.9206,2.89524 -8.38095,2.89524c-4.46036,0 -8.07619,-0.11804 -8.07619,-2.89524c0,-2.7772 3.61584,-7.1619 8.07619,-7.1619c4.46035,0 8.38095,4.3847 8.38095,7.1619z" fill="#cccccc" stroke="#000000" stroke-width="4" stroke-linecap="butt"/><path d="M234.84814,261.71136v-32.53953" fill="none" stroke="#212121" stroke-width="4" stroke-linecap="round"/><path d="M263.61852,203.47879c0,15.06422 -12.55309,27.27619 -28.03809,27.27619c-15.48501,0 -28.03809,-12.21197 -28.03809,-27.27619c0,-15.06422 12.55309,-27.27619 28.0381,-27.27619c15.48501,0 28.0381,12.21197 28.0381,27.27619z" fill="#ffffff" stroke="#000000" stroke-width="4" stroke-linecap="butt"/><path d="M233.27169,235.85469l-6.68198,10.95661l-3.89581,2.00322" fill="none" stroke="#333333" stroke-width="4" stroke-linecap="round"/><path d="M226.37316,246.8669c1.04483,3.65641 -1.07228,7.46754 -4.7287,8.51237c-3.65641,1.04483 -7.46753,-1.07228 -8.51236,-4.7287c-1.04483,-3.65641 1.07227,-7.46753 4.7287,-8.51236c3.65641,-1.04483 7.46754,1.07227 8.51237,4.7287z" fill="#ffffff" stroke="#333333" stroke-width="4" stroke-linecap="butt"/><g fill="none" stroke="#000000"><path d="M231.72657,206.3495c0.34492,3.59129 -0.23691,6.58535 -1.29955,6.68741c-1.06264,0.10206 -2.20372,-2.72653 -2.54863,-6.31782c-0.34492,-3.59129 0.23694,-6.58536 1.29958,-6.68741c1.06264,-0.10206 2.20369,2.72653 2.5486,6.31783z" stroke-width="2" stroke-linecap="butt"/><path d="M249.48303,185.71719l-11.56026,12.33327l-15.05189,-10.15782" stroke-width="2.5" stroke-linecap="round"/><path d="M249.11875,204.8461c0.34492,3.59129 -0.23691,6.58535 -1.29955,6.68741c-1.06264,0.10206 -2.20372,-2.72653 -2.54863,-6.31782c-0.34492,-3.59129 0.23694,-6.58536 1.29958,-6.68741c1.06264,-0.10206 2.20369,2.72653 2.5486,6.31783z" stroke-width="2" stroke-linecap="butt"/></g><path d="M227.04558,288.25225c0,0 -1.77507,-24.26456 -0.30877,-32.32079c1.47429,-8.10011 7.07627,4.68848 7.07627,4.68848" fill="none" stroke="#212121" stroke-width="4" stroke-linecap="round"/><path d="M234.78381,289.23406c0,2.7772 -3.9206,2.89524 -8.38095,2.89524c-4.46036,0 -8.07619,-0.11803 -8.07619,-2.89524c0,-2.7772 3.61583,-7.1619 8.07619,-7.1619c4.46036,0 8.38095,4.3847 8.38095,7.1619z" fill="#ffffff" stroke="#333333" stroke-width="4" stroke-linecap="butt"/></g></g></svg>