<svg version="1.1" xmlns="http://www.w3.org/2000/svg" xmlns:xlink="http://www.w3.org/1999/xlink" width="95.32125" height="130.8666" viewBox="0,0,95.32125,130.8666"><g transform="translate(-188.09735,-142.73456)"><g data-paper-data="{&quot;isPaintingLayer&quot;:true}" fill-rule="nonzero" stroke-width="4" stroke-linejoin="miter" stroke-miterlimit="10" stroke-dasharray="" stroke-dashoffset="0" style="mix-blend-mode: normal"><path d="M260.19326,216.99782l-14.08776,5.17605l-9.15355,-12.29655" data-paper-data="{&quot;index&quot;:null}" fill="none" stroke="#000000" stroke-linecap="round"/><path d="M270.97535,207.38788c3.62989,2.12844 4.84705,6.79647 2.71862,10.42635c-2.12844,3.62989 -6.79647,4.84705 -10.42634,2.71861c-3.62989,-2.12844 -4.84705,-6.79647 -2.71861,-10.42634c2.12844,-3.62989 6.79648,-4.84705 10.42634,-2.71861z" data-paper-data="{&quot;index&quot;:null}" fill="#cccccc" stroke="#000000" stroke-linecap="butt"/><path d="M235.40595,232.56212c0,0 13.80608,6.42533 17.94797,13.26372c3.97059,6.55556 5.91887,23.28819 5.91887,23.28819" fill="none" stroke="#000000" stroke-linecap="round"/><path d="M275.81253,268.57069c0.04493,2.77685 -3.87324,2.9583 -8.33301,3.03047c-4.45978,0.07217 -8.07702,0.01264 -8.12196,-2.76421c-0.04493,-2.77685 3.49949,-7.21946 7.95925,-7.29163c4.45977,-0.07217 8.45078,4.24852 8.49573,7.02536z" fill="#cccccc" stroke="#000000" stroke-linecap="butt"/><path d="M237.84641,199.79464l-3.26664,32.37515" fill="none" stroke="#212121" stroke-linecap="round"/><path d="M272.65951,171.25088c0.40302,15.05883 -11.81887,27.60226 -27.29833,28.01654c-15.47947,0.41427 -28.35476,-11.45749 -28.75778,-26.51632c-0.40302,-15.05883 11.81887,-27.60226 27.29834,-28.01654c15.47947,-0.41427 28.35477,11.45749 28.75779,26.51632z" fill="#ffffff" stroke="#000000" stroke-linecap="butt"/><path d="M243.0454,174.49292c0.09652,3.60653 -0.12184,6.53814 -0.48772,6.54793c-0.36588,0.00979 -0.74074,-2.90595 -0.83726,-6.51247c-0.09652,-3.60653 0.12185,-6.53814 0.48773,-6.54793c0.36588,-0.00979 0.74073,2.90595 0.83725,6.51247z" fill="none" stroke="#000000" stroke-linecap="butt"/><path d="M259.78113,174.12197c0.09652,3.60653 -0.12184,6.53814 -0.48772,6.54793c-0.36588,0.00979 -0.74073,-2.90595 -0.83725,-6.51247c-0.09652,-3.60653 0.12185,-6.53814 0.48772,-6.54793c0.36588,-0.00979 0.74073,2.90595 0.83725,6.51247z" fill="none" stroke="#000000" stroke-linecap="butt"/><path d="M234.4687,231.59629c0,0 -7.65754,14.10419 -14.33678,16.8878c-5.65775,2.35791 -26.91088,3.04149 -26.91088,3.04149" fill="none" stroke="#212121" stroke-linecap="round"/><path d="M192.30486,267.64059c-2.75442,-0.35503 -2.37029,-4.25855 -1.8001,-8.68232c0.57021,-4.42376 1.14946,-7.99485 3.90391,-7.6398c2.75442,0.35503 6.64091,4.50169 6.07074,8.92548c-0.57021,4.42376 -5.42009,7.75165 -8.17452,7.39665z" fill="#ffffff" stroke="#333333" stroke-linecap="butt"/><path d="M220.54285,229.41531l-1.69289,-16.81688l17.33709,-2.14784" fill="none" stroke="#333333" stroke-linecap="round"/><path d="M227.49689,232.4496c2.93473,3.01556 2.86923,7.83923 -0.14632,10.77398c-3.01556,2.93473 -7.83923,2.86923 -10.77398,-0.14632c-2.93473,-3.01556 -2.86923,-7.83923 0.14632,-10.77398c3.01556,-2.93473 7.83923,-2.86923 10.77398,0.14632z" fill="#ffffff" stroke="#333333" stroke-linecap="butt"/></g></g></svg>