<svg version="1.1" xmlns="http://www.w3.org/2000/svg" xmlns:xlink="http://www.w3.org/1999/xlink" width="105.0352" height="108.60194" viewBox="0,0,105.0352,108.60194"><g transform="translate(-183.14461,-185.61667)"><g stroke-miterlimit="10"><path d="M262.96227,263.22766l-21.21693,-21.35745" fill="none" stroke="#000000" stroke-width="4" stroke-linecap="round"/><path d="M273.80845,266.24459c2.25619,3.55188 1.20584,8.26026 -2.34605,10.51646c-3.55188,2.25619 -8.26026,1.20584 -10.51646,-2.34605c-2.25619,-3.55188 -1.20583,-8.26027 2.34605,-10.51646c3.55189,-2.2562 8.26026,-1.20584 10.51646,2.34605z" fill="#cccccc" stroke="#000000" stroke-width="4" stroke-linecap="butt"/><path d="M238.70079,266.90928c0,0 26.8872,-3.16982 30.97437,1.91938c4.09065,5.09353 -9.84419,19.23288 -9.84419,19.23288" fill="none" stroke="#000000" stroke-width="4" stroke-linecap="round"/><path d="M276.18881,288.57242c0,2.7772 -3.9206,2.89524 -8.38095,2.89524c-4.46036,0 -8.07619,-0.11804 -8.07619,-2.89524c0,-2.7772 3.61584,-7.1619 8.07619,-7.1619c4.46035,0 8.38095,4.3847 8.38095,7.1619z" fill="#cccccc" stroke="#000000" stroke-width="4" stroke-linecap="butt"/><path d="M237.99745,266.13059c0,0 0.03826,-14.22372 2.47796,-20.16363c2.27566,-5.54053 11.70239,-14.36115 11.70239,-14.36115" fill="none" stroke="#212121" stroke-width="4" stroke-linecap="round"/><path d="M286.17979,214.89286c0,15.06422 -12.55309,27.27619 -28.03809,27.27619c-15.48501,0 -28.03809,-12.21197 -28.03809,-27.27619c0,-15.06422 12.55309,-27.27619 28.0381,-27.27619c15.48501,0 28.0381,12.21197 28.0381,27.27619z" fill="#ffffff" stroke="#000000" stroke-width="4" stroke-linecap="butt"/><path d="M256.19097,217.74766c0,2.43533 -0.29671,4.40955 -0.66272,4.40955c-0.36601,0 -0.66273,-1.97422 -0.66273,-4.40955c0,-2.43533 0.29672,-4.40956 0.66273,-4.40956c0.36601,0 0.66272,1.97423 0.66272,4.40956z" fill="none" stroke="#000000" stroke-width="4" stroke-linecap="butt"/><path d="M272.9306,217.82458c0,2.43533 -0.29671,4.40955 -0.66272,4.40955c-0.36601,0 -0.66272,-1.97422 -0.66272,-4.40955c0,-2.43533 0.29672,-4.40956 0.66272,-4.40956c0.36601,0 0.66272,1.97423 0.66272,4.40956z" fill="none" stroke="#000000" stroke-width="4" stroke-linecap="butt"/><path d="M237.70403,266.83176l-43.69184,22.76322" fill="none" stroke="#212121" stroke-width="4" stroke-linecap="round"/><path d="M201.60176,289.32337c0,2.7772 -3.9206,2.89524 -8.38095,2.89524c-4.46036,0 -8.07619,-0.11803 -8.07619,-2.89524c0,-2.7772 3.61583,-7.1619 8.07619,-7.1619c4.46036,0 8.38095,4.3847 8.38095,7.1619z" fill="#ffffff" stroke="#333333" stroke-width="4" stroke-linecap="butt"/><path d="M240.24902,245.77556l-8.17433,30.81813" fill="none" stroke="#333333" stroke-width="4" stroke-linecap="round"/><path d="M239.81512,282.69339c0.19688,4.20327 -3.05094,7.77031 -7.25422,7.96719c-4.20327,0.19688 -7.77031,-3.05094 -7.96719,-7.25422c-0.19688,-4.20327 3.05094,-7.77031 7.25422,-7.96719c4.20327,-0.19688 7.77031,3.05094 7.96719,7.25422z" fill="#ffffff" stroke="#333333" stroke-width="4" stroke-linecap="butt"/><path d="M261.25967,214.62712l-16.07615,-8.44381" fill="none" stroke="#000000" stroke-width="2.5" stroke-linecap="round"/></g></g></svg>