<svg version="1.1" xmlns="http://www.w3.org/2000/svg" xmlns:xlink="http://www.w3.org/1999/xlink" width="71.89137" height="139.04886" viewBox="0,0,71.89137,139.04886"><g transform="translate(-204.68624,-151.43897)"><g data-paper-data="{&quot;isPaintingLayer&quot;:true}" fill-rule="nonzero" stroke-width="4" stroke-linejoin="miter" stroke-miterlimit="10" stroke-dasharray="" stroke-dashoffset="0" style="mix-blend-mode: normal"><path d="M238.72377,242.49078l-9.76901,-11.394l8.32677,-12.8708" data-paper-data="{&quot;index&quot;:null}" fill="none" stroke="#000000" stroke-linecap="round"/><path d="M251.49347,249.23905c-0.72714,4.1446 -4.67643,6.91498 -8.821,6.18785c-4.1446,-0.72714 -6.91498,-4.67642 -6.18784,-8.82099c0.72714,-4.1446 4.67642,-6.91498 8.82099,-6.18784c4.1446,0.72714 6.91499,4.67644 6.18784,8.821z" data-paper-data="{&quot;index&quot;:null}" fill="#cccccc" stroke="#000000" stroke-linecap="butt"/><path d="M235.88703,242.0011c0,0 13.27967,7.45272 16.89164,14.58522c3.46258,6.8375 3.15268,23.18921 3.15268,23.18921" fill="none" stroke="#000000" stroke-linecap="round"/><path d="M272.5238,281.03549c-0.16555,2.77227 -4.08621,2.65639 -8.53863,2.39051c-4.45243,-0.26588 -8.05477,-0.59925 -7.88922,-3.37152c0.16555,-2.77227 4.03633,-6.93362 8.48874,-6.66775c4.45242,0.26588 8.10466,4.87649 7.93913,7.64875z" fill="#cccccc" stroke="#000000" stroke-linecap="butt"/><path d="M238.50084,208.1714l-4.73751,32.19281" fill="none" stroke="#212121" stroke-linecap="round"/><path d="M274.57761,181.24252c-0.28313,15.06156 -13.06353,27.03543 -28.54579,26.7444c-15.48228,-0.29104 -27.80361,-12.73679 -27.52048,-27.79835c0.28313,-15.06156 13.06353,-27.03543 28.5458,-26.7444c15.48228,0.29104 27.80362,12.73679 27.52049,27.79835z" fill="#ffffff" stroke="#000000" stroke-linecap="butt"/><path d="M244.78664,184.44782c-0.06781,3.60718 -0.41944,6.52581 -0.78539,6.51893c-0.36595,-0.00688 -0.60764,-2.93667 -0.53983,-6.54384c0.06781,-3.60718 0.41945,-6.52581 0.7854,-6.51893c0.36595,0.00688 0.60763,2.93667 0.53982,6.54384z" fill="none" stroke="#000000" stroke-linecap="butt"/><path d="M261.5219,184.83934c-0.06781,3.60718 -0.41944,6.52581 -0.78539,6.51893c-0.36595,-0.00688 -0.60763,-2.93667 -0.53982,-6.54384c0.06781,-3.60718 0.41945,-6.52581 0.78539,-6.51893c0.36595,0.00688 0.60763,2.93667 0.53982,6.54384z" fill="none" stroke="#000000" stroke-linecap="butt"/><path d="M233.93732,241.83183c0,0 3.21943,18.74316 -2.7238,22.87096c-5.0343,3.49652 -22.90172,7.43074 -22.90172,7.43074" fill="none" stroke="#212121" stroke-linecap="round"/><path d="M211.22632,288.43207c-2.71911,0.56512 -3.63245,-3.24944 -4.54008,-7.61647c-0.9076,-4.36704 -1.52786,-7.93123 1.19127,-8.49635c2.71911,-0.56512 7.74783,2.08281 8.65547,6.44986c0.9076,4.36704 -2.58755,9.09781 -5.30665,9.66295z" fill="#ffffff" stroke="#333333" stroke-linecap="butt"/><path d="M233.29367,242.56938l-10.251,-13.43839l13.64321,-10.91103" fill="none" stroke="#333333" stroke-linecap="round"/><path d="M240.80675,241.51144c4.07949,1.03149 6.55041,5.17476 5.51894,9.25426c-1.03149,4.07949 -5.17476,6.55041 -9.25426,5.51894c-4.07949,-1.03149 -6.55041,-5.17476 -5.51894,-9.25426c1.03149,-4.07949 5.17476,-6.55041 9.25426,-5.51894z" fill="#ffffff" stroke="#333333" stroke-linecap="butt"/></g></g></svg>