<svg version="1.1" xmlns="http://www.w3.org/2000/svg" xmlns:xlink="http://www.w3.org/1999/xlink" width="76.56684" height="143.78397" viewBox="0,0,76.56684,143.78397"><g transform="translate(-189.14327,-150.34533)"><g stroke-miterlimit="10"><path d="M235.23959,216.48414l3.42424,12.92374l12.87968,10.65687" fill="none" stroke="#000000" stroke-width="4" stroke-linecap="round"/><path d="M247.597,238.521c1.56192,-3.90725 6.04219,-5.80853 9.94945,-4.24661c3.90726,1.56192 5.80853,5.99558 4.24661,9.90284c-1.56192,3.90726 -5.99558,5.80853 -9.90283,4.24661c-3.90726,-1.56192 -5.85515,-5.99557 -4.29323,-9.90284z" fill="#cccccc" stroke="#000000" stroke-width="4" stroke-linecap="butt"/><path d="M235.86292,240.09127l10.92393,47.53074" fill="none" stroke="#000000" stroke-width="4" stroke-linecap="round"/><path d="M263.71011,288.8404c0,2.7772 -3.9206,2.89524 -8.38095,2.89524c-4.46036,0 -8.07619,-0.11804 -8.07619,-2.89524c0,-2.7772 3.61584,-7.1619 8.07619,-7.1619c4.46035,0 8.38095,4.3847 8.38095,7.1619z" fill="#cccccc" stroke="#000000" stroke-width="4" stroke-linecap="butt"/><path d="M235.25438,241.27351l-2.92385,-32.4079" fill="none" stroke="#212121" stroke-width="4" stroke-linecap="round"/><path d="M258.68809,176.99182c1.3536,15.00329 -10.0514,28.29381 -25.47376,29.68523c-15.42237,1.39141 -29.02198,-9.6432 -30.37558,-24.64649c-1.3536,-15.00329 10.0514,-28.29381 25.47377,-29.68523c15.42237,-1.39141 29.02199,9.6432 30.37559,24.64649z" fill="#ffffff" stroke="#000000" stroke-width="4" stroke-linecap="butt"/><path d="M227.04556,288.25225l8.8219,-48.46973" fill="none" stroke="#212121" stroke-width="4" stroke-linecap="round"/><path d="M234.7838,289.23406c0,2.7772 -3.9206,2.89524 -8.38095,2.89524c-4.46036,0 -8.07619,-0.11803 -8.07619,-2.89524c0,-2.7772 3.61583,-7.1619 8.07619,-7.1619c4.46036,0 8.38095,4.3847 8.38095,7.1619z" fill="#ffffff" stroke="#333333" stroke-width="4" stroke-linecap="butt"/><path d="M201.77957,231.17893l29.10894,-13.00948" fill="none" stroke="#333333" stroke-width="4" stroke-linecap="round"/><path d="M201.89947,241.03318c-3.14576,2.79471 -7.96147,2.51014 -10.75619,-0.63563c-2.79471,-3.14576 -2.51014,-7.96148 0.63563,-10.7562c3.14576,-2.79471 7.96148,-2.51014 10.7562,0.63563c2.79471,3.14576 2.51014,7.96147 -0.63563,10.75619z" fill="#ffffff" stroke="#333333" stroke-width="4" stroke-linecap="butt"/><g fill="none" stroke="#000000"><path d="M222.96789,184.62827c0.32418,3.59322 -0.27492,6.58388 -1.33813,6.6798c-1.06321,0.09592 -2.18794,-2.7392 -2.51212,-6.33243c-0.32418,-3.59322 0.27495,-6.58388 1.33816,-6.6798c1.06321,-0.09592 2.18792,2.7392 2.5121,6.33243z" stroke-width="2" stroke-linecap="butt"/><path d="M240.84316,164.0988l-11.63126,12.26633l-14.99301,-10.24453" stroke-width="2.5" stroke-linecap="round"/><path d="M240.36847,183.2253c0.32418,3.59322 -0.27492,6.58387 -1.33813,6.6798c-1.06321,0.09592 -2.18794,-2.7392 -2.51212,-6.33243c-0.32418,-3.59322 0.27495,-6.58388 1.33816,-6.6798c1.06321,-0.09592 2.18791,2.73921 2.51209,6.33243z" stroke-width="2" stroke-linecap="butt"/></g></g></g></svg>