<svg version="1.1" xmlns="http://www.w3.org/2000/svg" xmlns:xlink="http://www.w3.org/1999/xlink" width="76.52989" height="135.53069" viewBox="0,0,76.52989,135.53069"><g transform="translate(-223.94571,-158.91339)"><g stroke-miterlimit="10"><path d="M277.40505,239.3582l-13.43043,-5.16411l-3.36895,-12.35033" fill="none" stroke="#000000" stroke-width="4" stroke-linecap="round"/><path d="M291.2353,240.08724c-0.33379,4.19462 -4.00479,7.32446 -8.19942,6.99067c-4.19462,-0.33379 -7.32446,-4.00479 -6.99067,-8.19942c0.33379,-4.19462 4.0048,-7.32445 8.19942,-6.99067c4.19463,0.33379 7.32446,4.00479 6.99067,8.19942z" fill="#cccccc" stroke="#000000" stroke-width="4" stroke-linecap="butt"/><path d="M256.06016,248.06002c0,0 3.81605,9.0877 3.99777,15.5354c0.2058,7.30183 -13.49538,24.62871 -13.49538,24.62871" fill="none" stroke="#000000" stroke-width="4" stroke-linecap="round"/><path d="M263.26782,288.17225c0,2.7772 -3.9206,2.89524 -8.38095,2.89524c-4.46036,0 -8.07619,-0.11804 -8.07619,-2.89524c0,-2.7772 3.61584,-7.1619 8.07619,-7.1619c4.46035,0 8.38095,4.3847 8.38095,7.1619z" fill="#cccccc" stroke="#000000" stroke-width="4" stroke-linecap="butt"/><path d="M260.14295,215.70822l-4.09604,32.28069" fill="none" stroke="#212121" stroke-width="4" stroke-linecap="round"/><path d="M295.65617,186.9496c0.65246,15.05008 -11.35992,27.7943 -26.83039,28.46499c-15.47047,0.67069 -28.54071,-10.98612 -29.19317,-26.03621c-0.65246,-15.05008 11.35992,-27.7943 26.8304,-28.46499c15.47047,-0.67069 28.54072,10.98612 29.19318,26.03621z" fill="#ffffff" stroke="#000000" stroke-width="4" stroke-linecap="butt"/><path d="M256.41024,248.72805c0,0 17.33152,8.90743 16.39344,14.54824c-1.10172,6.62483 -15.01378,21.69333 -15.01378,21.69333" fill="none" stroke="#212121" stroke-width="4" stroke-linecap="round"/><path d="M271.27862,289.54884c0,2.7772 -3.9206,2.89524 -8.38095,2.89524c-4.46036,0 -8.07619,-0.11803 -8.07619,-2.89524c0,-2.7772 3.61583,-7.1619 8.07619,-7.1619c4.46036,0 8.38095,4.3847 8.38095,7.1619z" fill="#ffffff" stroke="#333333" stroke-width="4" stroke-linecap="butt"/><path d="M235.31245,236.13084l7.16463,-18.12698l16.73829,2.97671" fill="none" stroke="#333333" stroke-width="4" stroke-linecap="round"/><path d="M240.70983,245.36915c-1.46407,3.94497 -5.84895,5.95615 -9.79392,4.49209c-3.94497,-1.46407 -5.95615,-5.84895 -4.49209,-9.79392c1.46407,-3.94497 5.84895,-5.95615 9.79392,-4.49209c3.94497,1.46407 5.95615,5.84895 4.49209,9.79392z" fill="#ffffff" stroke="#333333" stroke-width="4" stroke-linecap="butt"/><path d="M296.96989,183.27482l-15.23137,7.33175l-10.37325,-14.90425" fill="none" stroke="#000000" stroke-width="2.5" stroke-linecap="round"/><path d="M261.89742,183.89589l12.49937,9.31369l-13.33736,-1.95093" fill="none" stroke="#000000" stroke-width="3" stroke-linecap="round"/><path d="M297.74918,197.03198l-8.80265,-1.28761l10.02907,-6.01832" fill="none" stroke="#000000" stroke-width="3" stroke-linecap="round"/><path d="M271.10832,280.01789l8.34597,-8.10667l-2.0242,13.58697l9.91383,2.28263l-6.75797,4.06521" fill="none" stroke="#333333" stroke-width="2" stroke-linecap="round"/></g></g></svg>