<svg version="1.1" xmlns="http://www.w3.org/2000/svg" xmlns:xlink="http://www.w3.org/1999/xlink" width="60.0762" height="143.71016" viewBox="0,0,60.0762,143.71016"><g transform="translate(-209.95576,-150.11447)"><g stroke-miterlimit="10"><path d="M246.0108,242.8394l-9.14779,-28.6813" fill="none" stroke="#000000" stroke-width="4" stroke-linecap="round"/><path d="M255.18176,249.97037c0.38891,4.18987 -2.69237,7.90172 -6.88224,8.29063c-4.18987,0.38891 -7.90172,-2.69237 -8.29063,-6.88224c-0.38891,-4.18987 2.69238,-7.90172 6.88224,-8.29063c4.18988,-0.38891 7.90172,2.69237 8.29063,6.88224z" fill="#cccccc" stroke="#000000" stroke-width="4" stroke-linecap="butt"/><path d="M236.23319,240.55551l9.57399,47.82094" fill="none" stroke="#000000" stroke-width="4" stroke-linecap="round"/><path d="M261.57744,288.8404c0,2.7772 -3.9206,2.89524 -8.38095,2.89524c-4.46036,0 -8.07619,-0.11804 -8.07619,-2.89524c0,-2.7772 3.61584,-7.1619 8.07619,-7.1619c4.46035,0 8.38095,4.3847 8.38095,7.1619z" fill="#cccccc" stroke="#000000" stroke-width="4" stroke-linecap="butt"/><path d="M236.03323,240.26459v-32.53953" fill="none" stroke="#212121" stroke-width="4" stroke-linecap="round"/><g stroke="#000000"><path d="M268.03194,179.39066c0,15.06422 -12.55309,27.27619 -28.03809,27.27619c-15.48501,0 -28.03809,-12.21197 -28.03809,-27.27619c0,-15.06422 12.55309,-27.27619 28.0381,-27.27619c15.48501,0 28.0381,12.21197 28.0381,27.27619z" fill="#ffffff" stroke-width="4" stroke-linecap="butt"/><g fill="none"><path d="M238.04312,183.15531c0,3.60782 -0.29671,6.53254 -0.66272,6.53254c-0.36601,0 -0.66273,-2.92472 -0.66273,-6.53254c0,-3.60782 0.29672,-6.53254 0.66273,-6.53254c0.36601,0 0.66272,2.92472 0.66272,6.53254z" stroke-width="4" stroke-linecap="butt"/><path d="M254.78277,183.23223c0,3.60782 -0.29671,6.53254 -0.66272,6.53254c-0.36601,0 -0.66272,-2.92472 -0.66272,-6.53254c0,-3.60782 0.29672,-6.53254 0.66272,-6.53254c0.36601,0 0.66272,2.92472 0.66272,6.53254z" stroke-width="4" stroke-linecap="butt"/><path d="M258.68211,164.31507l-12.6864,11.17159l-14.01183,-11.55029" stroke-width="2.5" stroke-linecap="round"/></g></g><path d="M229.73811,288.43616l6.48344,-48.83754" fill="none" stroke="#212121" stroke-width="4" stroke-linecap="round"/><path d="M235.69777,288.92939c0,2.7772 -3.9206,2.89524 -8.38095,2.89524c-4.46036,0 -8.07619,-0.11803 -8.07619,-2.89524c0,-2.7772 3.61583,-7.1619 8.07619,-7.1619c4.46036,0 8.38095,4.3847 8.38095,7.1619z" fill="#ffffff" stroke="#333333" stroke-width="4" stroke-linecap="butt"/><path d="M225.0424,244.43507l9.88342,-30.31328" fill="none" stroke="#333333" stroke-width="4" stroke-linecap="round"/><path d="M232.42994,250.95771c-0.03827,4.2077 -3.48031,7.58771 -7.68803,7.54944c-4.2077,-0.03827 -7.58771,-3.48031 -7.54944,-7.68803c0.03827,-4.2077 3.48031,-7.58771 7.68803,-7.54944c4.2077,0.03827 7.58771,3.48031 7.54944,7.68803z" fill="#ffffff" stroke="#333333" stroke-width="4" stroke-linecap="butt"/></g></g></svg>