<svg version="1.1" xmlns="http://www.w3.org/2000/svg" xmlns:xlink="http://www.w3.org/1999/xlink" width="88.57172" height="144.49046" viewBox="0,0,88.57172,144.49046"><g transform="translate(-222.44531,-149.62673)"><g stroke-miterlimit="10"><path d="M238.0434,231.26654l0.96734,-14.26055l13.36917,-3.81759" fill="none" stroke="#000000" stroke-width="4" stroke-linecap="round"/><path d="M246.47438,245.01137c-3.36042,2.53255 -8.13763,1.86144 -10.67019,-1.49899c-2.53255,-3.36042 -1.86145,-8.13763 1.49899,-10.67019c3.36042,-2.53255 8.13763,-1.86144 10.67018,1.49899c2.53256,3.36043 1.86145,8.13763 -1.49898,10.67019z" fill="#cccccc" stroke="#000000" stroke-width="4" stroke-linecap="butt"/><path d="M246.77079,289.1762l4.97692,-48.5153" fill="none" stroke="#000000" stroke-width="4" stroke-linecap="round"/><path d="M263.87049,289.89106c-0.34236,2.75602 -4.2476,2.38985 -8.67393,1.84001c-4.42634,-0.54985 -8.00004,-1.11272 -7.65768,-3.86874c0.34236,-2.75602 4.47114,-6.66154 8.89746,-6.11169c4.42633,0.54984 7.77651,5.38441 7.43415,8.14043z" fill="#cccccc" stroke="#000000" stroke-width="4" stroke-linecap="butt"/><path d="M251.91785,207.23735v32.53953" fill="none" stroke="#212121" stroke-width="4" stroke-linecap="round"/><path d="M283.91657,178.90292c0,15.06422 -12.55309,27.27619 -28.03809,27.27619c-15.48501,0 -28.03809,-12.21197 -28.03809,-27.27619c0,-15.06422 12.55309,-27.27619 28.0381,-27.27619c15.48501,0 28.0381,12.21197 28.0381,27.27619z" fill="#ffffff" stroke="#000000" stroke-width="4" stroke-linecap="butt"/><path d="M295.23405,258.35445l-43.67238,-18.0119" fill="none" stroke="#212121" stroke-width="4" stroke-linecap="round"/><path d="M304.90808,245.47468c2.2395,1.64241 0.01607,4.87373 -2.62175,8.47048c-2.63783,3.59675 -4.87137,6.44271 -7.11087,4.80029c-2.2395,-1.64241 -3.63687,-7.15123 -0.99904,-10.748c2.63783,-3.59675 8.49219,-4.16518 10.73168,-2.52277z" fill="#ffffff" stroke="#333333" stroke-width="4" stroke-linecap="butt"/><path d="M226.70781,231.55163l7.79856,-16.07495l16.4611,-1.94721" fill="none" stroke="#333333" stroke-width="4" stroke-linecap="round"/><path d="M235.21999,240.2686c-2.99667,2.95402 -7.82066,2.91946 -10.77468,-0.07721c-2.95402,-2.99667 -2.91946,-7.82067 0.07721,-10.77469c2.99667,-2.95402 7.82066,-2.91946 10.77469,0.07721c2.95402,2.99667 2.91946,7.82067 -0.07722,10.77469z" fill="#ffffff" stroke="#333333" stroke-width="4" stroke-linecap="butt"/><g fill="none" stroke="#000000"><path d="M259.32549,182.26699c0,3.60782 -0.8654,6.53254 -1.93293,6.53254c-1.06753,0 -1.93296,-2.92472 -1.93296,-6.53254c0,-3.60782 0.86543,-6.53254 1.93296,-6.53254c1.06753,0 1.93293,2.92472 1.93293,6.53254z" stroke-width="2" stroke-linecap="butt"/><path d="M278.97312,163.42675l-12.6864,11.17159l-14.01183,-11.55029" stroke-width="2.5" stroke-linecap="round"/><path d="M276.78173,182.43324c0,3.60782 -0.8654,6.53254 -1.93293,6.53254c-1.06753,0 -1.93296,-2.92472 -1.93296,-6.53254c0,-3.60782 0.86543,-6.53254 1.93296,-6.53254c1.06753,0 1.93293,2.92472 1.93293,6.53254z" stroke-width="2" stroke-linecap="butt"/></g></g></g></svg>