<svg version="1.1" xmlns="http://www.w3.org/2000/svg" xmlns:xlink="http://www.w3.org/1999/xlink" width="60.0762" height="143.40549" viewBox="0,0,60.0762,143.40549"><g transform="translate(-205.99369,-150.72381)"><g stroke="#000000" stroke-miterlimit="10"><g stroke-width="4"><path d="M251.07105,253.06424c-0.1085,4.20648 -3.60648,7.52855 -7.81298,7.42006c-4.20648,-0.1085 -7.52855,-3.60648 -7.42006,-7.81298c0.1085,-4.20648 3.60649,-7.52855 7.81298,-7.42006c4.20649,0.1085 7.52855,3.60648 7.42006,7.81298z" fill="#ffffff" stroke-linecap="butt"/><path d="M222.91795,246.67194l10.38805,-30.14407l9.34254,29.20684" fill="none" stroke-linecap="round"/><path d="M228.86006,253.21988c-0.1085,4.20648 -3.60648,7.52855 -7.81298,7.42006c-4.20648,-0.1085 -7.52855,-3.60648 -7.42006,-7.81298c0.1085,-4.20648 3.60648,-7.52855 7.81298,-7.42006c4.20648,0.1085 7.52855,3.60648 7.42006,7.81298z" fill="#ffffff" stroke-linecap="butt"/></g><g><path d="M264.06987,180c0,15.06422 -12.55309,27.27619 -28.03809,27.27619c-15.48501,0 -28.03809,-12.21197 -28.03809,-27.27619c0,-15.06422 12.55309,-27.27619 28.0381,-27.27619c15.48501,0 28.0381,12.21197 28.0381,27.27619z" fill="#ffffff" stroke-width="4" stroke-linecap="butt"/><g fill="none"><path d="M234.08101,183.76465c0,3.60782 -0.29671,6.53254 -0.66272,6.53254c-0.36601,0 -0.66273,-2.92472 -0.66273,-6.53254c0,-3.60782 0.29672,-6.53254 0.66273,-6.53254c0.36601,0 0.66272,2.92472 0.66272,6.53254z" stroke-width="4" stroke-linecap="butt"/><path d="M250.82066,183.84157c0,3.60782 -0.29671,6.53254 -0.66272,6.53254c-0.36601,0 -0.66272,-2.92472 -0.66272,-6.53254c0,-3.60782 0.29672,-6.53254 0.66272,-6.53254c0.36601,0 0.66272,2.92472 0.66272,6.53254z" stroke-width="4" stroke-linecap="butt"/><path d="M254.72004,164.92441l-12.6864,11.17159l-14.01183,-11.55029" stroke-width="2.5" stroke-linecap="round"/></g></g><g stroke-width="4"><path d="M233.88324,240.973l-6.83778,47.27925" fill="none" stroke-linecap="round"/><path d="M246.78676,287.62201l-12.51123,-47.13392" fill="none" stroke-linecap="round"/><path d="M234.78368,289.23406c0,2.7772 -3.9206,2.89524 -8.38095,2.89524c-4.46036,0 -8.07619,-0.11803 -8.07619,-2.89524c0,-2.7772 3.61583,-7.1619 8.07619,-7.1619c4.46036,0 8.38095,4.3847 8.38095,7.1619z" fill="#ffffff" stroke-linecap="butt"/><path d="M262.59199,288.8404c0,2.7772 -3.9206,2.89524 -8.38095,2.89524c-4.46036,0 -8.07619,-0.11804 -8.07619,-2.89524c0,-2.7772 3.61584,-7.1619 8.07619,-7.1619c4.46035,0 8.38095,4.3847 8.38095,7.1619z" fill="#ffffff" stroke-linecap="butt"/></g><path d="M233.72191,240.87394v-32.53953" fill="none" stroke-width="4" stroke-linecap="round"/></g></g></svg>