<svg version="1.1" xmlns="http://www.w3.org/2000/svg" xmlns:xlink="http://www.w3.org/1999/xlink" width="78.21466" height="141.1521" viewBox="0,0,78.21466,141.1521"><g transform="translate(-202.26316,-133.85179)"><g data-paper-data="{&quot;isPaintingLayer&quot;:true}" fill-rule="nonzero" stroke="#000000" stroke-width="4" stroke-linejoin="miter" stroke-miterlimit="10" stroke-dasharray="" stroke-dashoffset="0" style="mix-blend-mode: normal"><path d="M234.99675,225.60237c0,0 -4.06363,14.26122 -9.11668,20.9253c-5.00356,6.59881 -21.26851,14.04549 -21.26851,14.04549" fill="none" stroke-linecap="round"/><path d="M237.88519,225.89338c0,0 18.67398,2.38351 24.32898,8.58957c5.1105,5.60851 -8.20742,20.57568 -8.20742,20.57568" fill="none" stroke-linecap="round"/><path d="M215.70098,272.46154c-2.12481,1.78829 -4.73968,-1.13532 -7.6118,-4.54789c-2.87211,-3.41259 -5.11012,-6.25503 -2.98531,-8.04334c2.12481,-1.78829 7.80781,-1.84526 10.67994,1.56732c2.87211,3.41259 2.04197,9.23559 -0.08284,11.0239z" fill="#ffffff" stroke-linecap="butt"/><path d="M269.53888,258.00131c-0.29658,2.76132 -4.20737,2.45999 -8.64221,1.98366c-4.43485,-0.47633 -8.0174,-0.97984 -7.72082,-3.74116c0.29658,-2.76132 4.36,-6.7348 8.79485,-6.25846c4.43485,0.47633 7.86476,5.25465 7.56818,8.01596z" fill="#ffffff" stroke-linecap="butt"/><path d="M236.34308,224.9907v-32.53953" fill="none" stroke-linecap="round"/><path d="M268.0197,163.12798c0,15.06422 -12.55309,27.27619 -28.03809,27.27619c-15.48501,0 -28.03809,-12.21197 -28.03809,-27.27619c0,-15.06422 12.55309,-27.27619 28.0381,-27.27619c15.48501,0 28.0381,12.21197 28.0381,27.27619z" fill="#ffffff" stroke-linecap="butt"/><g fill="none" stroke-linecap="butt"><path d="M238.31459,163.77155c0,3.60782 -0.29671,6.53254 -0.66272,6.53254c-0.36601,0 -0.66273,-2.92472 -0.66273,-6.53254c0,-3.60782 0.29672,-6.53254 0.66273,-6.53254c0.36601,0 0.66272,2.92472 0.66272,6.53254z"/><path d="M255.05424,163.84847c0,3.60782 -0.29671,6.53254 -0.66272,6.53254c-0.36601,0 -0.66272,-2.92472 -0.66272,-6.53254c0,-3.60782 0.29672,-6.53254 0.66272,-6.53254c0.36601,0 0.66272,2.92472 0.66272,6.53254z"/></g><path d="M265.33375,208.40692l-15.73879,5.40862l-12.56995,-13.72546" fill="none" stroke-linecap="round"/><path d="M276.9594,201.74567c2.52042,3.36954 1.83208,8.1443 -1.53748,10.66471c-3.36954,2.52043 -8.1443,1.83207 -10.66471,-1.53749c-2.52042,-3.36954 -1.83207,-8.1443 1.53748,-10.66471c3.36954,-2.52043 8.1443,-1.83208 10.66471,1.53748z" fill="#ffffff" stroke-linecap="butt"/><path d="M211.17894,216.23176l4.12735,-15.50561l19.56677,0.47108" fill="none" stroke-linecap="round"/><path d="M215.80652,226.34751c-3.16093,2.77756 -7.97503,2.46677 -10.75258,-0.69417c-2.77756,-3.16093 -2.46676,-7.97502 0.69418,-10.75258c3.16093,-2.77756 7.97503,-2.46677 10.75258,0.69417c2.77756,3.16093 2.46676,7.97502 -0.69418,10.75258z" fill="#ffffff" stroke-linecap="butt"/></g></g></svg>