<svg version="1.1" xmlns="http://www.w3.org/2000/svg" xmlns:xlink="http://www.w3.org/1999/xlink" width="93.76854" height="132.6352" viewBox="0,0,93.76854,132.6352"><g transform="translate(-189.37443,-145.36904)"><g data-paper-data="{&quot;isPaintingLayer&quot;:true}" fill-rule="nonzero" stroke-width="4" stroke-linejoin="miter" stroke-miterlimit="10" stroke-dasharray="" stroke-dashoffset="0" style="mix-blend-mode: normal"><path d="M226.43632,234.82589l-2.08046,-13.33046l12.43215,-8.9685" data-paper-data="{&quot;index&quot;:null}" fill="none" stroke="#000000" stroke-linecap="round"/><path d="M235.8602,247.33021c-2.18252,3.59763 -6.86824,4.7448 -10.46587,2.56228c-3.59763,-2.18252 -4.7448,-6.86824 -2.56228,-10.46586c2.18252,-3.59763 6.86824,-4.7448 10.46586,-2.56228c3.59763,2.18252 4.74481,6.86826 2.56228,10.46586z" data-paper-data="{&quot;index&quot;:null}" fill="#cccccc" stroke="#000000" stroke-linecap="butt"/><path d="M235.02044,236.18427c0,0 -4.12328,14.81921 -11.36985,18.1965c-6.94685,3.23761 -24.46536,-4.42442 -24.46536,-4.42442" fill="none" stroke="#000000" stroke-linecap="round"/><path d="M193.37075,265.59606c-2.58577,-1.01325 -1.26525,-4.70666 0.36209,-8.85955c1.62734,-4.15291 3.05646,-7.47639 5.64223,-6.46315c2.58577,1.01325 5.34899,5.97959 3.72165,10.13247c-1.62734,4.1529 -7.1402,6.20348 -9.72598,5.19024z" fill="#cccccc" stroke="#000000" stroke-linecap="butt"/><path d="M238.31695,202.39396l-3.47298,32.35366" fill="none" stroke="#212121" stroke-linecap="round"/><path d="M273.31601,174.39107c0.13596,15.0636 -12.3064,27.38837 -27.79077,27.52814c-15.48438,0.13975 -28.14717,-11.95842 -28.28313,-27.02203c-0.13596,-15.0636 12.3064,-27.38837 27.79078,-27.52814c15.48438,-0.13975 28.14718,11.95842 28.28314,27.02203z" fill="#ffffff" stroke="#000000" stroke-linecap="butt"/><path d="M243.62572,177.10735c0.03256,3.60767 -0.23774,6.53495 -0.60373,6.53825c-0.366,0.00331 -0.6891,-2.91862 -0.72166,-6.5263c-0.03256,-3.60767 0.23775,-6.53495 0.60374,-6.53825c0.366,-0.00331 0.68909,2.91862 0.72165,6.5263z" fill="none" stroke="#000000" stroke-linecap="butt"/><path d="M260.3654,177.03318c0.03256,3.60767 -0.23774,6.53495 -0.60373,6.53825c-0.366,0.00331 -0.68909,-2.91862 -0.72165,-6.5263c-0.03256,-3.60767 0.23775,-6.53495 0.60373,-6.53825c0.366,-0.00331 0.68909,2.91862 0.72165,6.5263z" fill="none" stroke="#000000" stroke-linecap="butt"/><path d="M236.16815,236.20796c0,0 14.56225,3.11561 18.43483,8.62292c4.28198,6.08953 10.36535,25.29019 10.36535,25.29019" fill="none" stroke="#212121" stroke-linecap="round"/><path d="M281.0383,274.10765c-0.59306,2.71315 -4.44842,1.99124 -8.8059,1.03877c-4.35747,-0.9525 -7.8647,-1.8399 -7.27164,-4.55307c0.59306,-2.71315 5.06178,-6.22457 9.41927,-5.27211c4.35747,0.9525 7.2513,6.07324 6.65826,8.78639z" fill="#ffffff" stroke="#333333" stroke-linecap="butt"/><path d="M256.38826,227.67293l-16.7357,2.36422l-2.83961,-17.2373" fill="none" stroke="#333333" stroke-linecap="round"/><path d="M259.14195,220.60308c2.89576,-3.05301 7.71819,-3.18051 10.77121,-0.28476c3.05301,2.89576 3.18051,7.71819 0.28476,10.77121c-2.89576,3.05301 -7.71819,3.18051 -10.77121,0.28476c-3.05301,-2.89576 -3.18051,-7.71819 -0.28476,-10.77121z" fill="#ffffff" stroke="#333333" stroke-linecap="butt"/></g></g></svg>