<svg version="1.1" xmlns="http://www.w3.org/2000/svg" xmlns:xlink="http://www.w3.org/1999/xlink" width="113.67233" height="147.06638" viewBox="0,0,113.67233,147.06638"><g transform="translate(-213.38277,-146.07126)"><g stroke-miterlimit="10"><path d="M220.95523,228.82187l7.27818,-19.77916l21.25288,0.84814" fill="none" stroke="#000000" stroke-width="4" stroke-linecap="round"/><path d="M215.43727,228.43087c3.13776,-2.80369 7.99601,-2.51214 10.79971,0.62561c2.8037,3.13776 2.53289,7.95427 -0.60487,10.75797c-3.13776,2.8037 -7.95427,2.53289 -10.75797,-0.60486c-2.8037,-3.13776 -2.57465,-7.97501 0.56312,-10.77873z" fill="#cccccc" stroke="#000000" stroke-width="4" stroke-linecap="butt"/><path d="M245.75005,287.07986l0.82754,-48.76288" fill="none" stroke="#000000" stroke-width="4" stroke-linecap="round"/><path d="M262.6368,288.90154c-0.33564,2.75684 -4.24177,2.40019 -8.66943,1.86112c-4.42767,-0.53906 -8.00273,-1.09324 -7.66708,-3.85008c0.33564,-2.75684 4.4549,-6.6724 8.88256,-6.13334c4.42766,0.53906 7.7896,5.36545 7.45395,8.1223z" fill="#cccccc" stroke="#000000" stroke-width="4" stroke-linecap="butt"/><path d="M246.49799,236.34575l5.59661,-32.05462" fill="none" stroke="#212121" stroke-width="4" stroke-linecap="round"/><path d="M286.04503,180.19734c-2.59097,14.83974 -17.05737,24.71065 -32.31162,22.04734c-15.25425,-2.66333 -25.51989,-16.85237 -22.92892,-31.69211c2.59097,-14.83974 17.05737,-24.71065 32.31163,-22.04733c15.25425,2.66333 25.51989,16.85238 22.92893,31.69211z" fill="#ffffff" stroke="#000000" stroke-width="4" stroke-linecap="butt"/><path d="M247.51688,233.62081c0,0 12.34641,14.17621 9.02908,21.47125c-3.47336,7.63815 -20.21255,13.78323 -20.21255,13.78323" fill="none" stroke="#212121" stroke-width="4" stroke-linecap="round"/><path d="M239.70753,285.05653c-2.61097,0.94639 -4.05798,-2.69932 -5.57793,-6.89271c-1.51996,-4.19339 -2.64117,-7.63302 -0.03017,-8.57941c2.61097,-0.94639 7.9654,0.95884 9.48537,5.15223c1.51996,4.19339 -1.26628,9.3735 -3.87725,10.31988z" fill="#ffffff" stroke="#333333" stroke-width="4" stroke-linecap="butt"/><path d="M293.71218,202.41323l-41.89835,9.03377" fill="none" stroke="#333333" stroke-width="4" stroke-linecap="round"/><path d="M305.43343,205.94692c-2.93586,3.01446 -7.75955,3.07819 -10.77402,0.14233c-3.01445,-2.93585 -3.07819,-7.75955 -0.14233,-10.77402c2.93586,-3.01446 7.75955,-3.07819 10.77402,-0.14233c3.01446,2.93586 3.07819,7.75954 0.14233,10.77401z" fill="#ffffff" stroke="#333333" stroke-width="4" stroke-linecap="butt"/><path d="M308.18284,189.31458l8.34597,-8.10667l-2.0242,13.58697l9.91383,2.28263l-6.75797,4.06521" fill="none" stroke="#333333" stroke-width="2" stroke-linecap="round"/></g></g></svg>