<svg version="1.1" xmlns="http://www.w3.org/2000/svg" xmlns:xlink="http://www.w3.org/1999/xlink" width="76.94027" height="143.41518" viewBox="0,0,76.94027,143.41518"><g transform="translate(-198.912,-153.21589)"><g stroke-miterlimit="10"><path d="M241.24317,237.38826l-11.15268,-13.82298l2.07569,-8.57712" fill="none" stroke="#000000" stroke-width="4" stroke-linecap="round"/><path d="M255.49741,241.17958c0.19688,4.20327 -3.05094,7.77031 -7.25422,7.96719c-4.20327,0.19688 -7.77031,-3.05094 -7.96719,-7.25422c-0.19688,-4.20327 3.05095,-7.77031 7.25422,-7.96719c4.20328,-0.19688 7.77031,3.05094 7.96719,7.25422z" fill="#cccccc" stroke="#000000" stroke-width="4" stroke-linecap="butt"/><path d="M235.86289,240.09127c0,0 26.07327,1.6869 27.95573,9.87761c1.74903,7.61015 -18.90762,12.43383 -18.90762,12.43383" fill="none" stroke="#000000" stroke-width="4" stroke-linecap="round"/><path d="M246.01097,278.71013c-2.7772,0.00503 -2.90234,-3.91535 -2.91042,-8.37569c-0.00808,-4.46035 0.1034,-8.07639 2.8806,-8.08142c2.7772,-0.00503 7.16844,3.60285 7.17653,8.06319c0.00808,4.46034 -4.3695,8.38888 -7.1467,8.39392z" fill="#cccccc" stroke="#000000" stroke-width="4" stroke-linecap="butt"/><path d="M235.72856,240.87394c0,0 -6.25272,-12.75282 -6.25272,-18.29966c0,-5.28722 6.25272,-14.23988 6.25272,-14.23988" fill="none" stroke="#212121" stroke-width="4" stroke-linecap="round"/><path d="M273.85227,185.17417c-1.43619,14.9956 -15.09636,25.95516 -30.51082,24.47886c-15.41448,-1.4763 -26.74612,-14.82943 -25.30993,-29.82503c1.43619,-14.9956 15.09636,-25.95516 30.51083,-24.47886c15.41448,1.4763 26.74613,14.82943 25.30994,29.82503z" fill="#ffffff" stroke="#000000" stroke-width="4" stroke-linecap="butt"/><path d="M244.75064,188.32403c-0.18124,2.46389 -0.62415,4.4616 -0.98926,4.462c-0.36511,0.00042 -0.51419,-1.99665 -0.33295,-4.46055c0.18124,-2.46389 0.62416,-4.46159 0.98927,-4.462c0.36511,-0.00042 0.51418,1.99664 0.33294,4.46054z" fill="none" stroke="#000000" stroke-width="4" stroke-linecap="butt"/><path d="M261.48088,188.89013c-0.18124,2.46389 -0.62415,4.4616 -0.98926,4.46199c-0.36512,0.00041 -0.51418,-1.99665 -0.33294,-4.46055c0.18124,-2.46389 0.62416,-4.4616 0.98926,-4.46199c0.36512,-0.00041 0.51418,1.99665 0.33294,4.46055z" fill="none" stroke="#000000" stroke-width="4" stroke-linecap="butt"/><path d="M265.79549,168.04653l-11.23058,15.14348l-15.44518,-16.30226" fill="none" stroke="#000000" stroke-width="2.5" stroke-linecap="round"/><path d="M235.86743,239.78252c0,0 1.9049,12.32461 -0.16038,18.76148c-1.81579,5.65926 -12.62158,18.66178 -12.62158,18.66178" fill="none" stroke="#212121" stroke-width="4" stroke-linecap="round"/><path d="M223.8538,294.58567c-2.7765,-0.06232 -2.80654,-3.98458 -2.70645,-8.44381c0.10009,-4.45924 0.29923,-8.07151 3.07574,-8.00919c2.7765,0.06232 7.07896,3.77563 6.97887,8.23486c-0.10009,4.45924 -4.57166,8.28045 -7.34816,8.21813z" fill="#ffffff" stroke="#333333" stroke-width="4" stroke-linecap="butt"/><path d="M207.58922,224.06468l5.71314,-15.08632l17.43635,5.90668" fill="none" stroke="#333333" stroke-width="4" stroke-linecap="round"/><path d="M211.68314,238.46426c-3.05359,2.89515 -7.876,2.7667 -10.77114,-0.28689c-2.89515,-3.05359 -2.7667,-7.876 0.28689,-10.77114c3.05359,-2.89515 7.876,-2.7667 10.77114,0.28689c2.89515,3.05359 2.7667,7.876 -0.28689,10.77114z" fill="#ffffff" stroke="#333333" stroke-width="4" stroke-linecap="butt"/></g></g></svg>